<svg xmlns="http://www.w3.org/2000/svg" viewBox="0 0 448 512" fill="none"><path fill="currentColor" fill-rule="evenodd" d="M60 32C26.863 32 0 58.863 0 92v328c0 33.137 26.863 60 60 60h328c33.137 0 60-26.863 60-60V92c0-33.137-26.863-60-60-60H60Zm2 224.5c0-50.559 40.905-91.5 91.378-91.5s91.378 40.941 91.378 91.5-40.905 91.5-91.378 91.5S62 307.059 62 256.5Zm191.666 0c0-47.588 20.453-86.162 45.664-86.162 25.211 0 45.664 38.574 45.664 86.162h.101c0 47.588-20.452 86.162-45.714 86.162-25.262 0-45.715-38.574-45.715-86.162Zm100.238 0c0-42.653 7.188-77.198 16.048-77.198 8.859 0 16.048 34.595 16.048 77.198 0 42.603-7.189 77.198-16.048 77.198-8.86 0-16.048-34.545-16.048-77.198Z" clip-rule="evenodd"/></svg>
