<svg xmlns="http://www.w3.org/2000/svg" width="160" height="67" fill="none"><path fill="#6C705B" d="M136.738 55.844c-.176.306-.679.533-.943.856-.687.834-1.166 1.326-1.634 1.821l.31-.506a9.384 9.384 0 0 0-.623 1.037c-.343.66-.756 1.865-1.022 3.115-.44 1.967-.619 4.669-1.756 4.668a.75.75 0 0 1-.054-.002c-.343-.025-.718-.613-1.105-.701-.388-.092-2.9-.02-3.03-.9-.123-.877.225-2.705.625-3.965.168-.55.323-.983.365-1.2.095-.484.038-1.136.203-1.756.34-1.263.75-2.072 1.065-2.975.039-.072.16-.279.21-.343.228-.428.463-.946.647-1.563a71.502 71.502 0 0 1 1.994-.993c.419-.792 1.555-1.552 1.853-1.974.247-.35.206-.717.465-1.07.294-.402.988-.84 1.513-1.587.859-1.219.491-1.845.965-2.602.495-.79 1.657-1.71 2.175-2.794l.088-.487-.592-.048c.293-.52.72-.519 1.048-.95.386-.508.318-.965.571-1.307.205-.278.701-.516.951-.892.366-.546-.024-.65.125-.98.072-.137 1.37-2.368 1.446-2.502.592-.91 1.088-.73 1.582-1.422a13.278 13.278 0 0 0 1.611-3.064c.165-.462.301-.97.303-1.22.006-.11-.039-.198-.069.07-.037.152.043 1.24 1.022 2 .488.368.822.454 1.096.518.273.051.342.042.413.044.106-.005.015-.003-.142.035a47.147 47.147 0 0 0-1.066.278c1.012-1.77-2.598-1.54-.642-.063-1.136.117-1.687.944-2.722 1.266-.681.214-1.227.13-2.173.534-1.656.71-3.161 2.225-4.218 1.07-1.866 1.06-3.78 1.263-4.016 2.756-.487.282-2.098.087-2.714.21-.584.14-4.961 1.361-5.716 1.546-.732.217-2.029.57-2.631.83-.78.322-1.126 1.845-3.05.436-1.044.067-1.979.267-3.408-.829-.733-.607-1.084-1.716-1.016-2.448.019-.341.088-.671.192-.988.085-.243.194-.488.33-.744.213-.392.414-.252.508-.434.092-.171.187-.425.327-.727a5.06 5.06 0 0 1 .438-.829c.588-.864 1.346-.984.691-1.377.328-.6.671-1.186 1.031-1.767.261-.07.533-.15.794-.215.123-.362.258-.729.392-1.09.482 1.046 1.775-1.122.775-1.017a57.156 57.156 0 0 1 3.274-2.047c.66 1.041 2.211-1.627 1.621-2.001.113-.088.228-.176.344-.264 1.2-.509 1.973-1.412 3.364-2.1 1.392-.679 1.343-.489 2.038-.267.278-.219.563-.439.849-.657.791-2.312 1.863.149 4.064-2.439.722.2 1.61-.162 2.506-.684.77-.45 1.527-1.04 2.144-1.511.151-.116.067-.287.264-.453.484-.404 1.975-.912 1.641-1.431.555-.094 1.113-.194 1.669-.297.331-.31.657-.62.981-.933l-.29-.496c1.083.138 2.134-.785 2.779-1.011.129-.045.296.163.684 0 .459-.194 1.163-.762 1.674-1.03.012-.368.014-.732.01-1.095.687-.718 1.421-.333 1.905-.675.11-.048 1.359-1.378 1.366-1.467.184-.326.109-.558.124-.869.001-.297.158-.774.292-1.163.043-.12.267-.205.25-.328-.012-.08-.13-.199-.364-.32.042.136.43.539.613.644.182.126.244.164.253.2.016.063-.113.103-.22.16-.234.106-.477.238-.52.38-.687-.665-3.116-.461-3.829-.635-.209-.054-.235-.436-.929-.52-.501-.068-1.898.237-2.586.19-.758-.053-.965-.37-1.303-.391-.301-.02-.624.24-1.021.242-1.28 0-2.469-.402-3.524-.398-1.467.004-2.838.784-4.04 1.14-.311-.046-.623-.206-.959-.203-4.045.031-8.594-.038-12.616-.136-1.878-.044-6.594-1.001-5.309.706-.587.313-5.414-.302-6.277-.298-.902.005-1.628.328-2.362.345-2.052.05-3.675-.146-6.222.169-.659.082-1.372.462-1.773.464-.482.003-1.011-.343-1.649-.354-1.505-.025-4.185.14-5.667.104-.266-.007-.368-.318-.748-.408-1.405-.357-3.027-.295-2.723.696-1.119-.32-2.199-.25-3.275-.13-.751.08-1.47.183-2.171.208-3.427.126-10.32.026-13.362.516-1.024.156-1.453.344-1.986.454-.708.114-1.372.145-2.827-.004-.725-.063-1.21-.164-2.06-.23-.211-.02-.365-.053-.628-.08a1.448 1.448 0 0 1-.245-.052c-.022-.01-.065-.018-.067-.03.004-.006.026-.014.09-.031.072-.021.162-.034.454-.137a3.427 3.427 0 0 0 .382-.165l.062-.033c.05-.026.105-.057.166-.094.236-.152.588-.36 1.011-.956.427-.552.764-1.8.444-2.763-.294-.962-.809-1.406-1.109-1.654-.634-.47-.862-.48-1.041-.55-.6-.155-.41-.077-.466-.089-.026.01-.013.023.015.037.064.029.166.058.244.084.173.053.41.103.592.14.83.15 1.581.132 2.421-.314.114.024.327.053.503.083a13.957 13.957 0 0 1 .216.038c.022.005.054.01.14.024.167.037.282.024.84.23.15.061.34.14.634.33.281.2.74.495 1.174 1.319.47.828.46 2.22.027 3.01-.408.81-.858 1.124-1.141 1.33-.58.377-.805.404-.995.47a3.62 3.62 0 0 1-.93.143c-.156.006-.33.012-.504.016-.205-.001-.431-.002-.686-.005a52.909 52.909 0 0 1-.401-.006 11.896 11.896 0 0 1-1.606-.18 4.933 4.933 0 0 1-1.127-.426c-.174.21-.355.42-.542.63-.255.015-.61.031-.806.042a98.552 98.552 0 0 0-.233-.576c-.792 0-1.973.22-2.925.44-.901.218-1.864.442-2.69.46-2.468.058-9.136-.099-11.629-.308-1.23-.113-1.3.305-2.048-.535l-.867.197c-.18.191-.36.383-.543.574-1.797.045-3.629-.208-5.189-.173-2.944.066-7.16.665-10.085.383-.74-.071-1.687-.44-2.438-.421-1.135.028-1.26.672-2.535.708-2.122.06-6.492-.604-8.681-.507-.6.028-.879.272-1.298.305-1.763.142-3.252.15-5.028.55-1.934-.58-1.793-1.376-2.412-2.166-.47-.596-1.925-1.97-2.142-2.496-.15-.37.377-.857.169-1.263 2.381-.37 3.357-.028 5.22.515l10.172-.257c.316.218.63.435.943.653v.002c1.304.233 1.827-.352 2.505-.496 6.795-1.378 19.96-.659 27.392-.688 1.521-.003 6.858-.432 7.776-.094.314.087.41.429.732.435 2.734-.277 5.32-.552 7.985-.857.379.02.771.033 1.093.044l.46.016c.14.004.394.002.556.003l.455-.002c.126 0 .385-.013.45-.015h.04c.006 0 .007 0-.046.011-.06.02-.128.01-.459.167-.163.1-.461.192-.86.799-.188.3-.348.8-.297 1.296.04.496.276.922.468 1.15.404.465.638.522.784.6.147.064.225.084.283.1.213.05.144.026.146.028a5.441 5.441 0 0 0-.4-.046 50.615 50.615 0 0 0-2.092-.12c-.352-.016-.726-.03-1.13-.055a6.71 6.71 0 0 1-.376-.034c-.018-.007-.084.006-.431-.09-.097-.033-.218-.065-.456-.199-.196-.148-.77-.365-1.026-1.47a2.158 2.158 0 0 1 .275-1.457c.212-.344.423-.51.574-.623.359-.237.319-.183.401-.228.441-.173.498-.146.627-.174a5.95 5.95 0 0 1 .413-.048l.28-.024c2.916-.2 5.667-.373 8.552-.485 4.965-.182 9.59-.345 14.75-.506 10.221-.324 20.211-.606 30.273-.72 2.901-.033 6.534-.352 9.342-.23 1.209.05 1.636.597 3.206.16l.057.447c1.389-.201 2.144-.552 3.72-.609 1.242-.047 4.605-.114 5.761-.07.574.022.365.303.887.296.977-.016 2.962-.42 4.209-.43 1.229-.01 3.104.305 4.059.26 1.195-.06 2.441-.158 3.74-.227.681-.032 1.3-.062 2.044-.053.357.006.752.019 1.224.078.138.02.275.041.415.07.175.036.347.077.573.153.256.09.529.195.915.45.368.233.793.696.948.932.914 1.177 1.456 3.131 1.126 4.725-.312 1.785-1.623 2.985-1.82 3.291-.418.62-.289.996-.579 1.402-1.489 2.065-4.477 3.678-6.201 4.752-3.377 2.123-6.944 3.984-10.418 5.75a84.676 84.676 0 0 0-6.435 3.65c-3.277 1.969-8.193 5.963-10.722 8.313-.555.498-.703.096-1.123.553-.472.52-.504.963-.696 1.226-.352.485-.825 1.157-1.199 1.821-.134.236-.219.42-.273.567-.062.146-.036.26 0-.02a1.67 1.67 0 0 0-.158-.802 1.945 1.945 0 0 0-.688-.796c-.418-.237-.405-.154-.296-.166.554.03 1.793-.193 2.498-.275.386-.043.736.173.976.105.126-.035.326-.305.687-.436 3.222-1.191 5.682-2.04 8.949-3.272 4.611-1.71 9.228-4.133 14.782-6.046.778-.169 1.361-.497 2.999-.104.726.138 1.957 1.172 2.199 2.044a3.679 3.679 0 0 1 .243 1.14c.021.303-.002.648-.026.838-.276 1.766-.829 2.643-1.342 3.653-.833 1.506-1.929 2.089-2.04 2.29-.259.44-.071.899-.548 1.807-1.546 2.955-4.503 6.225-6.206 8.795-.84 1.27-1.714 3.236-2.54 4.484-.66.998-2.536 3.084-2.68 3.636-.082.326.163.717-.027 1.052Zm3.948-21.515c-.08-.718-1.897.669-.985.69.211.002.994-.5.985-.69Zm-10.441-29.59.071.593.871-.26c-.164-.117-.329-.234-.495-.35l-.447.017Z"/></svg>