<svg xmlns="http://www.w3.org/2000/svg" width="115" height="114" fill="none"><path fill="#A89C81" d="M101.818 63.603c-.285-4.893-1.568-9.928-3.563-14.393-.902-1.995-1.995-3.895-3.134-5.652 2.137.38 5.414.427 9.024-.665.143 0 .285-.095.428-.19.712-.475.902-1.473.427-2.185l-.095-.095c-1.33-1.948-3.04-3.848-4.94-5.273-3.514-2.707-8.17-4.322-11.827-4.417-2.66-.143-4.608.285-5.463.712-.332-.19-.665-.38-.95-.522.285-.238.57-.428.856-.665a22.604 22.604 0 0 0 3.467-3.895h.047s.143-.333.238-.475c.332-.903-.19-1.9-1.093-2.185-4.37-1.473-8.977-1.425-12.112-.618-2.612.618-4.228 1.568-4.655 2.09-.903-.665-1.615-.807-1.615-.76-.237.238 1.615 1.14 2.422 3.753.38 1.282-.047 2.897-1.567 3.467-1.52.57-3.705.095-5.32-1.282-.237-.238-.617-.333-.998-.285-.665.095-1.092.712-.997 1.377.19 1.425-.285 3.088-1.14 4.133h-.143.096c-.475.57-.998 1.045-1.663 1.092-1.71.285-3.373-2.612-2.85-5.13.095-.475 0-.997-.333-1.377-.57-.665-1.614-.76-2.28-.19-1.804 1.52-4.94 1.52-5.51.19-.807-1.188.808-3.848 2.993-4.56.428-.143.808-.475 1.045-.903a1.79 1.79 0 0 0-.807-2.375l-.19-.095-.76-.38c-1.948-.997-2.993-3.467-2.043-4.37.807-1.14 3.657-.997 5.32.38h.047c.38.333.903.475 1.378.38a1.634 1.634 0 0 0 1.282-1.947c-.522-2.47 1.14-5.32 2.803-5.083 1.758.095 3.135 2.993 2.755 5.178-.048.38 0 .76.285 1.092.475.523 1.282.618 1.805.143 1.377-1.188 3.278-1.71 4.75-1.378 1.472.285 2.233 1.52 2.138 2.803-.333 2.66-2.566 4.085-3.516 4.655h-.047s-.095.142-.142.19c-.048.142 0 .332.19.38.664.19 1.044.285 1.092.19 0-.048-.095-.19-.332-.38 1.33-.428 3.562-1.568 4.417-4.798.523-1.805-.807-4.512-3.182-5.13-1.52-.475-3.183-.332-4.75.285-.096-.855-.285-1.71-.666-2.565-.664-1.567-2.137-3.325-4.417-3.657-2.328-.333-4.418 1.187-5.367 2.897-.523.855-.808 1.758-.998 2.66-.712-.237-1.425-.475-2.185-.57-1.758-.19-3.942.238-5.415 1.995-1.472 1.758-1.425 4.275-.617 5.938.522 1.14 1.282 1.995 2.137 2.755-.143.095-.238.285-.38.427a13.329 13.329 0 0 0-3.752-1.377c-3.183-.808-7.743-.76-11.543.617l-.38.143s-.332.142-.475.237c-.807.57-.95 1.71-.38 2.518a20.537 20.537 0 0 0 4.56 4.512c-.333.19-.712.38-1.14.618-.855-.38-2.85-.808-5.51-.665-3.61.095-8.313 1.71-11.78 4.417-1.9 1.425-3.61 3.325-4.94 5.273l-.095.142s-.143.238-.19.428a1.644 1.644 0 0 0 1.045 1.995c3.61 1.092 6.935 1.045 9.025.617a49.543 49.543 0 0 0-3.135 5.653c-1.995 4.465-3.23 9.5-3.563 14.392-.19 17.195.665 36.528 1.473 40.233-2.802.237-4.465.427-4.465.665 0 .902 25.603 1.805 47.5 1.805s47.5-.903 47.5-1.805c0-.238-1.663-.475-4.465-.665.807-3.705 1.662-23.038 1.472-40.233l-.142-.237Zm-11.257 6.46c1.282 1.33 2.564 2.612 3.752 3.61 1.615 1.33 3.04 2.327 4.085 2.897.285 12.683.808 24.32 1.425 27.17-3.23-.237-7.837-.475-13.205-.617.998-2.945 2.422-10.498 3.135-17.243.665-5.747.95-12.16.808-15.865v.048Zm-2.756-36.955c3.183.76 6.983 2.517 9.975 4.845a31.534 31.534 0 0 1 2.993 2.66c-2.707.855-5.13 1.187-6.602 1.472-1.093-1.52-2.233-2.992-3.42-4.227a40.327 40.327 0 0 0-6.366-5.51c.95.19 2.09.38 3.42.712v.048Zm1.045 6.412c4.846 5.89 8.883 15.248 9.31 24.273 0 3.515.096 7.172.19 10.735-.664-.76-1.377-1.615-2.232-2.66-2.422-2.898-5.415-6.84-7.932-10.593-3.896-5.367-6.888-12.207-8.598-15.39h.95a24.09 24.09 0 0 0 5.985-1.52h.095s.285-.19.38-.285c.76-.57.855-1.662.285-2.375-2.66-3.467-6.27-5.747-9.168-6.935a12.52 12.52 0 0 0-1.9-.617c1.71-.713 3.325-1.663 4.798-2.755 1.662 1.472 4.75 4.132 7.885 8.122h-.047Zm-27.454-2.327c.332-.475.664-.95.855-1.425.047-.143.047-.238.095-.38h.38-.38c0-.048 0-.143.047-.19 1.757.617 5.463 1.235 9.927.19 4.466-1.045.19 0 .286 0h.19a7.384 7.384 0 0 1 1.092-.38c.855.427 1.947 1.045 3.182 1.805a28.692 28.692 0 0 1 5.843 4.987c-.95.238-1.9.38-2.802.523-4.75.617-9.976-.428-13.633-2.185-2.28-1.093-3.942-2.185-5.035-2.85l-.047-.095Zm7.077-4.038c1.14-.57 1.995-1.662 2.28-2.755.285-1.092.095-2.09-.237-2.897-.476-1.045-1.046-1.663-1.568-2.185.808 0 2.375-.285 4.465-.333 2.28-.095 5.178.143 8.075.95-.475.475-.855.998-1.33 1.425-2.375 2.138-5.273 3.895-8.17 4.94h-.142a25.707 25.707 0 0 1-5.083 1.283c.57-.095 1.188-.238 1.71-.523v.095Zm-1.948.57c-1.615.238-2.945.333-3.847.428.047-.333.19-.665.19-.95 1.187.475 2.47.665 3.657.522Zm-8.597 5.7A5.114 5.114 0 0 0 60.731 38c.19.238.332.475.57.76-.096.38-.143.855-.19 1.52-.095 1.14 0 2.66-.38 4.37-.476 2.85-1.663 6.128-3.373 8.978-1.662-2.755-2.85-5.843-3.372-8.455-.475-2.375-.57-4.228-.808-5.225.523-.523.998-.998 1.33-1.425.997.665 2.185 1.045 3.42.807v.095Zm-24.652 2.328c2.802-2.945 6.317-5.225 9.974-6.46 1.52-.475 2.898-.76 4.18-.95.523.095.998.095 1.473.095.712 0 1.378-.238 1.995-.428h.57a9.54 9.54 0 0 0 .997 2.66c.285.475.665.95 1.093 1.378-1.282.807-3.277 2.042-6.127 3.087-3.943 1.568-9.358 1.948-14.25.713l.095-.095Zm7.79-16.578c1.14 0 2.137.095 2.944.143-.047.095-.142.142-.19.19-1.044 1.567-1.614 4.037-.38 6.175.19.285.428.522.666.76-.38.047-.76.095-1.188.142-.428.048-.095 0-.095 0h-.19.142l-.38.048c-.237 0-.475.142-.665.19a59.52 59.52 0 0 1-3.277-2.138c-1.71-1.187-3.61-2.85-5.225-4.702a29.503 29.503 0 0 1 7.885-.95l-.047.142ZM13.942 40.613a26.12 26.12 0 0 1 2.945-2.66c3.04-2.328 6.792-4.085 9.975-4.845 1.33-.333 2.518-.57 3.468-.76a41.954 41.954 0 0 0-6.413 5.462c-1.14 1.235-2.28 2.66-3.372 4.18-1.473-.285-3.895-.57-6.603-1.425v.048Zm2.565 23.18c.332-4.513 1.33-9.12 2.992-13.348 1.71-4.18 3.943-7.98 6.318-10.972 3.277-4.18 6.507-6.84 8.122-8.265 1.093.712 2.186 1.377 3.23 1.805.666.285 1.33.522 1.9.665-3.847 1.52-7.932 4.275-10.592 7.885v.095s-.238.285-.285.475c-.333.95.19 1.947 1.092 2.28l.57.19c1.71.617 3.468.997 5.273 1.187-1.758 3.135-4.75 10.023-8.692 15.485-2.518 3.753-5.51 7.695-7.933 10.593-.855 1.045-1.615 1.9-2.233 2.66.096-3.61.143-7.22.143-10.735h.095Zm-.19 12.777c1.045-.617 2.47-1.567 4.085-2.897 1.235-.998 2.47-2.28 3.753-3.61-.143 3.705.19 10.07.807 15.865.76 6.745 2.137 14.297 3.135 17.242-5.367.19-9.975.38-13.205.618.617-2.85 1.14-14.488 1.425-27.17v-.048Zm12.967 26.505c.333-3.04.048-10.782-.712-17.622-.713-6.508-2.043-13.775-3.04-16.958 1.425-1.662 2.85-3.42 4.037-5.225 4.323-6.032 6.556-13.965 7.03-17.432 4.465.19 8.883-.855 12.018-2.613 1.377-.76 2.517-1.52 3.468-2.28-.285 1.093-.523 2.613-.523 4.465 0 3.8 1.52 8.788 4.37 12.54 2.85 3.753.237.333.38.428.807.57 1.9.38 2.47-.428l.38-.57c2.755-3.752 4.133-8.787 4.085-12.635.095-1.947-.427-3.562-.712-4.75a18.02 18.02 0 0 0 2.612 2.138c3.183 2.28 8.123 3.8 12.92 3.705.475 3.467 2.707 11.352 7.03 17.385 1.188 1.805 2.612 3.562 4.037 5.225-.997 3.182-2.327 10.45-3.04 16.957-.76 6.84-1.044 14.583-.712 17.623-8.455-.285-18.62-.428-28.072-.428-9.453 0-19.618.19-28.073.428l.047.047Z"/><path fill="#A89C81" d="M59.162 20.758c2.09.855 2.517 3.04 2.945 2.992.19 0 .522-.522.427-1.52-.047-.997-.617-2.517-2.09-3.61-1.425-1.092-3.847-1.567-5.985-.57-2.137.95-3.705 3.325-3.657 5.7 0 2.423 1.52 4.798 3.657 5.7 2.138.998 4.56.523 5.985-.57 1.473-1.092 2.043-2.612 2.09-3.61.048-.997-.237-1.52-.427-1.52-.428 0-.855 2.138-2.945 2.993-.998.427-2.233.38-3.183-.238-.95-.57-1.567-1.662-1.52-2.755 0-1.045.57-2.137 1.52-2.755.95-.617 2.233-.665 3.183-.237Z"/></svg>