<svg xmlns="http://www.w3.org/2000/svg" width="76" height="76" fill="none"><path fill="#939880" d="M38.736 63.397c6.63-7.22 12.379-15.069 17.046-23.697.249-.463-.01-1.062-.448-1.257-.015-.029-.025-.058-.049-.087-.906-1.092-2.153-2.012-2.899-3.22-.214-.347-.618-.39-.955-.225-.925.453-2.021.96-3 1.569 1.1-5.905 1.378-12.009 2.484-17.894.102-.555-.204-.96-.604-1.13-1.247-5.325-8.102-5.062-12.603-5.062-3.435 0-7.644-.195-10.889 1.047-2.177.833-3.366 4.629-3.873 6.636a.629.629 0 0 0 .073.492c.005.029.005.058.015.087 1.603 5.257 3.26 10.5 4.916 15.741-1.803-.784-3.995-1.164-5.778-1.354-.264-.03-.497.18-.629.38-.76 1.17-1.603 2.592-1.32 4.02.01.058.044.106.083.14-.205.293-.259.702-.064 1.009 5.213 8.126 11.098 15.604 17.495 22.824.253.288.755.244.999-.02Zm3.532-49.322c.906.984 1.734 1.963 2.353 3.22.224.458.955.107.799-.36a8.923 8.923 0 0 0-1.291-2.539c2.036.512 3.78 1.579 4.837 3.703v.005c-.048.219-.092.438-.14.657a95.775 95.775 0 0 0-6.256-.185c-.531-.77-1.053-1.535-1.637-2.265-.61-.77-1.174-1.686-1.93-2.329 1.102-.03 2.203-.02 3.265.093Zm-3.659-.025c.312.99 1.038 1.851 1.622 2.7.448.652.955 1.251 1.481 1.84-.916.01-1.827.04-2.743.069-1.14-1.593-2.489-3.035-3.8-4.492h.03c1.091-.049 2.25-.127 3.415-.17-.005.014-.015.029-.005.053Zm-4.54.122c.01.024.014.049.033.073 1.175 1.486 2.315 3.035 3.596 4.443-1.208.044-2.416.103-3.62.17a.32.32 0 0 0-.034-.233c-.93-1.642-2.163-2.991-3.576-4.239-.331-.292-.799.19-.472.502 1.28 1.223 2.406 2.607 3.493 4.005-1.155.063-2.31.136-3.464.214v-.005c-.794-1.325-1.695-2.752-2.767-3.912 1.218-1.106 4.681-1.033 6.81-1.018Zm-7.415 1.773c.633 1.136 1.442 2.217 2.26 3.22-1.398.093-2.796.186-4.19.274.556-1.214 1.155-2.383 1.93-3.494Zm22.892 24.7c-.799.356-1.593.721-2.382 1.096.312-1.023.575-2.055.813-3.093.059-.02.113-.049.17-.068.395.662.815 1.3 1.263 1.939a.416.416 0 0 0 .136.126Zm2.645-1.213c.02.015.04.025.059.034-.716.303-1.432.614-2.144.93a.416.416 0 0 0-.029-.291 33.465 33.465 0 0 0-1.008-1.95 16.02 16.02 0 0 0 1.51-.92c.302.853.97 1.593 1.612 2.197Zm-.38-3.084c.892.639 1.642 1.525 2.456 2.276-.565.224-1.12.467-1.68.706.023-.058.019-.127-.03-.195-.526-.706-1.009-1.505-1.617-2.153.302-.215.594-.429.872-.633Zm-26.497 4.18a.328.328 0 0 0-.064-.297 15.796 15.796 0 0 1-1.807-2.742c-.239-.463-.911-.04-.682.423a8.797 8.797 0 0 0 1.676 2.368 39.164 39.164 0 0 1-3.22-1.023.717.717 0 0 0-.195-.034c.565-.804.91-1.754 1.461-2.592.838.248 1.69.458 2.534.682a8.81 8.81 0 0 1 1.466 1.603c.419.594.614 1.408 1.12 1.915.18.18.444.019.458-.205.04-.73-.56-1.52-.954-2.095a7.763 7.763 0 0 0-.639-.799c.692.214 1.37.434 2.076.56.321 1.018.643 2.037.964 3.06a39.395 39.395 0 0 1-4.194-.823Zm-2.173 1.253a40.593 40.593 0 0 0 7.444 1.52c.648.073 1.306-.415 1.077-1.136-2.192-7.015-4.35-14.045-6.597-21.04 7.785-1.165 15.658-1.102 23.507-1.17-1.496 7.712-1.335 15.648-3.688 23.224-.244.78.667 1.252 1.286.935 2.231-1.145 4.516-2.163 6.835-3.108-4.238 7.41-9.135 14.41-14.786 20.827-5.505-6.28-10.503-13.057-15.078-20.052Z"/></svg>