<svg xmlns="http://www.w3.org/2000/svg" width="64" height="64" fill="none"><path fill="#6C705B" d="M37.805 42.42c2.931-2.265 4.66-3.898 8.733-6.558-.04-.072-6.447.165-6.485.166-6.552.201-7.595.31-14.148.41-4.385.068-9.213.235-13.195.16-3.75-.071-5.335-.502-6.041-1.848-1.854-3.531 4.563-3.4 6.283-3.532 3.02-.232 6.042-.228 9.065-.352 4.034-.166 8.07-.278 12.106-.337.957-.013 6.346.012 10.214.11-2.62-2.592-5.05-4.91-6.113-6-1.62-1.663-2.95-2.62-4.198-4.698-1.38-2.299 1.861-5.29 3.242-3.824 2.037 2.162 4.072 4.404 6.438 6.544 3.02 2.73 6.275 5.236 9.936 7.048 4.694 2.324 5.725 5.434.682 8.119a69.96 69.96 0 0 0-11.046 7.303c-2.115 1.707-3.058 2.536-4.97 3.035-3.105.81-3.741-3.243-.503-5.746Z"/></svg>