<svg xmlns="http://www.w3.org/2000/svg" width="120" height="120" fill="none"><path fill="#939880" d="M3.849 105.283c.679 3.849 3.396 7.245 7.245 8.604.906.226 1.811.453 2.943.679h7.246l38.717.226 38.717-.226H105.962c.906 0 2.038-.226 2.943-.679 3.849-1.359 6.566-4.755 7.246-8.604.226-2.038 0-3.396.226-5.208v-14.49l-.453-38.717-.453-9.51v-4.754c0-1.585-.226-3.623-1.132-5.208-1.585-3.17-4.981-5.207-8.604-5.434l-7.924.227c.226-2.944.226-5.887.453-8.83 0-2.038-.906-4.302-2.264-5.66-1.585-1.586-3.623-2.491-5.66-2.491-2.038 0-4.303.905-5.661 2.49-1.585 1.585-2.49 3.623-2.264 5.66 0 2.491.226 4.755.226 7.246a154.66 154.66 0 0 0-14.49 0c-.227-2.264-.227-4.755 0-7.245 0-2.038-.906-4.302-2.265-5.66-1.584-1.586-3.622-2.491-5.66-2.491-2.038 0-4.302.905-5.66 2.49-1.585 1.585-2.49 3.623-2.265 5.66-.226 2.491-.226 4.982 0 7.246a154.662 154.662 0 0 0-14.49 0c.226-2.49.226-4.755.226-7.245 0-2.038-.905-4.302-2.264-5.66-1.585-1.586-3.622-2.491-5.66-2.491-2.038 0-4.302.905-5.66 2.49-1.812 1.585-2.718 3.623-2.718 5.66 0 2.944.227 5.887.453 8.604h-7.924c-3.623 0-7.02 2.264-8.604 5.434-.68 1.585-1.132 3.396-1.132 4.981v4.755l-.226 9.736-.453 38.717v14.49c0 1.585-.227 2.944 0 5.208Zm108.679-19.698v14.49c0 1.585 0 3.397-.227 4.529-.452 2.49-2.264 4.754-4.754 5.434-.679.226-1.132.226-1.812.453H98.717L60 110.264H14.264c-.68 0-1.132-.226-1.812-.453-2.49-.679-4.301-2.943-4.754-5.434-.227-1.132 0-2.943-.227-4.528V85.359l-.453-31.246c8.604.906 17.208 1.359 25.812 1.585 9.056.453 18.113.453 26.943.453 9.057 0 18.113-.227 26.944-.453 8.603-.226 17.434-.906 26.037-1.585l-.226 31.472ZM7.471 28.302c1.132-2.717 3.85-4.528 6.793-4.755l7.924-.226c.227 2.943.453 5.886.68 8.603.226 1.812 1.132 3.623 2.49 4.529 1.359 1.132 3.17 1.585 4.528 1.358-1.584-.226-2.943-1.132-3.622-2.037-.906-1.133-1.132-2.491-1.132-3.623.226-3.17.452-6.113.679-9.283.226-3.17.226-6.113.453-9.283 0-2.038 1.811-3.623 3.849-3.623 2.038 0 3.849 1.585 3.849 3.623-.227 2.717 0 5.434 0 8.15 0 .454-.227.68-.227.907.227 3.17.453 6.113.68 9.282.226 1.133-.227 2.491-.906 3.623-.906 1.132-2.038 2.038-3.623 2.264 1.585.227 3.17 0 4.529-1.132 1.358-1.132 2.49-2.717 2.49-4.755.227-2.49.453-4.754.453-7.245 4.755.227 9.51.227 14.49 0 .227 2.49.227 4.755.453 7.245.227 1.812 1.133 3.623 2.491 4.755 1.359 1.132 3.17 1.359 4.528 1.132h.227c-1.585-.226-2.717-1.132-3.623-2.264a4.426 4.426 0 0 1-.905-3.622c.226-3.17.452-6.114.679-9.284 0-.452 0-.679-.227-.905.227-2.717.227-5.66.227-8.378 0-2.037 1.811-3.622 3.849-3.622 2.038 0 3.849 1.585 3.849 3.622.226 2.717.226 5.66.226 8.378-.226.226-.226.68-.226.905.226 3.17.453 6.114.68 9.284.226 1.132-.227 2.49-.907 3.622-.905 1.132-2.037 2.038-3.622 2.264h.226c1.585.227 3.17 0 4.529-1.132 1.358-1.132 2.49-2.717 2.49-4.755.227-2.49.453-4.754.453-7.245 4.755.227 9.51.227 14.49 0 .227 2.49.227 4.755.453 7.245.227 1.812 1.132 3.623 2.49 4.755 1.36 1.132 3.17 1.359 4.53 1.132h.226c-1.585-.226-2.717-1.132-3.623-2.264a4.426 4.426 0 0 1-.906-3.622c.227-3.17.453-6.114.68-9.284 0-.452 0-.679-.227-.905.68-2.717.906-5.434.906-8.151 0-2.038 1.811-3.623 3.849-3.623 2.038 0 3.849 1.585 3.849 3.623.226 2.943.226 6.113.453 9.283.226 3.17.453 6.113.679 9.283.453 2.49-1.585 5.434-4.755 5.887 1.585.226 3.17-.227 4.529-1.359a6.995 6.995 0 0 0 2.49-4.528c.227-2.944.453-5.887.68-8.604l7.924.227c2.943.226 5.66 2.037 6.792 4.754.68 1.359.906 2.717.68 4.302v4.755l-.227 9.736v7.019c-8.604-.906-17.434-1.359-26.038-1.585-9.056-.453-18.113-.453-26.943-.453-9.057 0-18.113.226-26.943.453-8.604.226-17.208.679-25.812 1.585v-7.02l-.679-9.962v-4.754c-.226-1.812 0-3.17.68-4.302Z"/><path fill="#939880" d="M27.169 65.434c-.906 0-1.585.226-2.49.453-.907.453-1.586.906-2.491 1.811.905.906 1.584 1.359 2.49 1.811.906.227 1.585.453 2.49.453.906 0 1.585-.226 2.491-.453.906-.452 1.585-.905 2.49-1.81-.905-.906-1.584-1.36-2.49-1.812-.905-.227-1.811-.453-2.49-.453ZM49.132 65.434c-.906 0-1.585.226-2.491.453-.906.453-1.585.906-2.49 1.811.905.906 1.584 1.359 2.49 1.811.906.227 1.585.453 2.49.453.906 0 1.585-.226 2.491-.453.906-.452 1.585-.905 2.49-1.81-.905-.906-1.584-1.36-2.49-1.812-.906-.227-1.811-.453-2.49-.453ZM70.868 65.434c-.906 0-1.585.226-2.49.453-.906.453-1.586.906-2.491 1.811.905.906 1.585 1.359 2.49 1.811.906.227 1.585.453 2.49.453.906 0 1.586-.226 2.491-.453.906-.452 1.585-.905 2.491-1.81-.906-.906-1.585-1.36-2.49-1.812-.68-.227-1.585-.453-2.491-.453ZM92.83 65.434c-.905 0-1.584.226-2.49.453-.906.453-1.585.906-2.49 1.811.905.906 1.585 1.359 2.49 1.811.906.227 1.585.453 2.49.453.906 0 1.586-.226 2.491-.453.906-.452 1.585-.905 2.49-1.81-.905-.906-1.584-1.36-2.49-1.812-.679-.227-1.585-.453-2.49-.453ZM27.169 81.057c-.906 0-1.585.226-2.49.452-.907.453-1.586.906-2.491 1.812.905.905 1.584 1.358 2.49 1.811.906.227 1.585.453 2.49.453.906 0 1.585-.226 2.491-.453.906-.453 1.585-.906 2.49-1.811-.905-.906-1.584-1.359-2.49-1.812-.905-.226-1.811-.452-2.49-.452ZM49.132 81.057c-.906 0-1.585.226-2.491.452-.906.453-1.585.906-2.49 1.812.905.905 1.584 1.358 2.49 1.811.906.227 1.585.453 2.49.453.906 0 1.585-.226 2.491-.453.906-.453 1.585-.906 2.49-1.811-.905-.906-1.584-1.359-2.49-1.812-.906-.226-1.811-.452-2.49-.452ZM70.868 81.057c-.906 0-1.585.226-2.49.452-.906.453-1.586.906-2.491 1.812.905.905 1.585 1.358 2.49 1.811.906.227 1.585.453 2.49.453.906 0 1.586-.226 2.491-.453.906-.453 1.585-.906 2.491-1.811-.906-.906-1.585-1.359-2.49-1.812-.68-.226-1.585-.452-2.491-.452ZM92.83 81.057c-.905 0-1.584.226-2.49.452-.906.453-1.585.906-2.49 1.812.905.905 1.585 1.358 2.49 1.811.906.227 1.585.453 2.49.453.906 0 1.586-.226 2.491-.453.906-.453 1.585-.906 2.49-1.811-.905-.906-1.584-1.359-2.49-1.812-.679-.226-1.585-.452-2.49-.452ZM27.169 96.68c-.906 0-1.585.226-2.49.452-.907.453-1.586.906-2.491 1.811.905.906 1.584 1.359 2.49 1.812.906.226 1.585.453 2.49.453.906 0 1.585-.227 2.491-.453.906-.453 1.585-.906 2.49-1.812-.905-.905-1.584-1.358-2.49-1.811-.905-.226-1.811-.453-2.49-.453ZM49.132 96.68c-.906 0-1.585.226-2.491.452-.906.453-1.585.906-2.49 1.811.905.906 1.584 1.359 2.49 1.812.906.226 1.585.453 2.49.453.906 0 1.585-.227 2.491-.453.906-.453 1.585-.906 2.49-1.812-.905-.905-1.584-1.358-2.49-1.811-.906-.226-1.811-.453-2.49-.453ZM70.868 96.68c-.906 0-1.585.226-2.49.452-.906.453-1.586.906-2.491 1.811.905.906 1.585 1.359 2.49 1.812.906.226 1.585.453 2.49.453.906 0 1.586-.227 2.491-.453.906-.453 1.585-.906 2.491-1.812-.906-.905-1.585-1.358-2.49-1.811-.68-.226-1.585-.453-2.491-.453ZM92.83 96.68c-.905 0-1.584.226-2.49.452-.906.453-1.585.906-2.49 1.811.905.906 1.585 1.359 2.49 1.812.906.226 1.585.453 2.49.453.906 0 1.586-.227 2.491-.453.906-.453 1.585-.906 2.49-1.812-.905-.905-1.584-1.358-2.49-1.811-.679-.226-1.585-.453-2.49-.453Z"/></svg>