<svg xmlns="http://www.w3.org/2000/svg" width="104" height="104" fill="none"><path fill="#6C705B" d="M95.81 25.188H69.815c.124-2.488.27-6.555-3.25-6.5h-29.25c-3.498-.056-3.399 4.016-3.25 6.5h-8.125c.135-2.488.262-6.555-3.25-6.5-5.6.406-12.719-2.348-11.375 6.5-3.502-.39-8.195.428-8.132 4.875v52c-.806 8.863 25.54 3.5 29.877 4.874 10.257 8.55 27.504 8.55 37.761 0 4.462-1.4 30.575 4.024 29.862-4.873-1.944-3.897 4.978-59.085-4.875-56.876Zm-58.494-3.25h29.25v3.25h-29.25v-3.25Zm-22.75 0h8.125v3.25h-8.125v-3.25ZM6.434 82.061V48.035h18.279c-6.32 11.04-4.062 26.836 4.773 35.654-1.196-.684-24.086 1.72-23.052-1.626Zm45.507 8.126a27.625 27.625 0 1 1 0-55.25c36.649 1.517 36.638 53.738 0 55.25Zm22.455-6.5c8.835-8.817 11.093-24.615 4.773-35.654h18.265v34.029c1.05 3.34-21.925.944-23.038 1.624Zm8.564-39.906c-.328-1.07-.62-2.126-.967-3.2a78.895 78.895 0 0 0 10.022-.85c.368.045.416.137.454.48.19 1.507-.536 3.071-.31 4.572H83.22a9.354 9.354 0 0 0-.26-1.002Zm14.474 1.002h-2.451c.371-3.058 1.157-7.978-3.324-7.909a50.057 50.057 0 0 0-10.311 2.257.912.912 0 0 0-1.8.132c.06 1.866.336 3.718.823 5.52h-3.23a30.895 30.895 0 0 0-50.4 0H6.434V30.063c-.326-4.575 87.75-.118 89.378-1.628 3.262-.605.98 15.017 1.622 16.35Z"/><path fill="#6C705B" d="M51.941 39.813a22.776 22.776 0 0 0-22.75 22.75c1.25 30.18 44.256 30.172 45.5 0a22.776 22.776 0 0 0-22.75-22.75Zm0 42.25a19.522 19.522 0 0 1-19.5-19.5c1.071-25.87 37.933-25.862 39 0a19.522 19.522 0 0 1-19.5 19.5ZM87.311 19.965c.123-1.922.507-3.82 1.143-5.638 1.35-2.926-1.52-4-2.632-.725a9.418 9.418 0 0 0-.239 6.597.884.884 0 0 0 1.728-.234ZM91.618 22.571c.66.287 1.024-.387 1.337-.847a8.762 8.762 0 0 1 1.236-1.278c.686-.658 1.752-1.049 2.072-1.998a.873.873 0 0 0-.61-1.074c-2.188-.202-3.7 2.547-4.485 4.28a.771.771 0 0 0 .45.917ZM76.155 21.397a16.91 16.91 0 0 0 4.444 1.586 1.112 1.112 0 0 0 .855-2.03 19.49 19.49 0 0 0-3.986-2.095c-1.87-.47-2.946 1.303-1.313 2.54Z"/><path fill="#6C705B" d="M65.234 58.125c.684-1.557-.169-3.495-.94-4.89-2.394-4.341-8.358-7.033-13.046-5.082a1.037 1.037 0 0 0 .246 1.88c1.41.008 2.819.13 4.21.364a10.132 10.132 0 0 1 6.843 6.077 6.03 6.03 0 0 0 1.017 1.866 1.071 1.071 0 0 0 1.67-.215ZM65.608 62.616a1.508 1.508 0 0 0 0-3.015 1.508 1.508 0 0 0 0 3.015ZM66.715 64.968a1.258 1.258 0 0 0-2.09 1.216 1.244 1.244 0 1 0 2.09-1.216ZM90.173 31.028a3.183 3.183 0 0 0-2.716.797c-.357.243-.29.17-.682.034a2.69 2.69 0 0 0-3.57 1.224c-1.495-1.42-3.932-1.562-4.55.757-.818-2.055-3.984.091-1.8 1.37a2.2 2.2 0 0 0 4.304-.201 2.714 2.714 0 0 0 4.487-.587 3.32 3.32 0 0 0 3.765-.522c2.353 1.554 3.152-2.305.762-2.872ZM93.494 70.451c.997-2.23-.105-4.841-.303-7.16a35.031 35.031 0 0 0-1.506-7.01.94.94 0 0 0-1.84.25c.034 3.61.378 7.21 1.03 10.76.072 1.193.943 4.836 2.62 3.16ZM94.68 71.96a1.238 1.238 0 0 0-1.75 1.75 1.238 1.238 0 0 0 1.75-1.75ZM11.03 39.344c-.195-.85-.87-6.068-2.244-4.023-.155 1.335-.233 9.963 2.2 8.49.963-1.27.198-3.035.045-4.467Z"/></svg>