<svg xmlns="http://www.w3.org/2000/svg" width="64" height="64" fill="none"><g fill="#A89C81" clip-path="url(#a)"><path d="M58.25 34.44C56.91 28.96 53.32 23 44 23c-4.09 0-7.41.75-9.79 1.55.05-1.01.02-2.02-.13-3.02l-.09-.66c-.04-.27-.18-.52-.4-.68-.21-.16-.49-.22-.76-.18l-1.06.18c-2.62.44-5.08 1.68-7.01 3.49C23.37 23.26 21.8 23 20 23c-1.8 0-3.37.26-4.76.68-1.93-1.81-4.39-3.05-7-3.49l-1.07-.18c-.27-.04-.55.02-.76.18-.22.16-.36.41-.4.68l-.09.65c-.42 2.92-.01 5.86 1.16 8.55-.52.78-.96 1.52-1.33 2.16-.49.85-1.01 1.73-1.32 1.95-.27.19-.43.49-.43.82 0 1.11.15 2.2.41 3.25C2.11 39 .5 40.13.42 40.19c-.45.32-.55.94-.23 1.39.19.27.5.42.81.42.2 0 .41-.06.58-.19.02-.01 1.44-1 3.45-1.66.34.84.75 1.64 1.24 2.4-2.06.94-3.88 2.65-3.96 2.73a.997.997 0 0 0-.03 1.41c.19.21.46.31.72.31.26 0 .5-.09.69-.28.02-.01 1.91-1.8 3.79-2.52.36.42.73.83 1.14 1.21C7.59 46.23 7 47.32 7 48.5c0 2.52 2.64 4.5 6 4.5 2.64 0 4.88-1.27 5.68-3.06.44.03.87.06 1.32.06.37 0 .74-.03 1.11-.05.53 2.3 2.97 4.05 5.89 4.05h3.37c2.77 0 5.49-.37 8.1-1.1.79-.21 1.53-.38 2.23-.52.19.13.38.25.6.35C44.07 53.99 46.88 54 47 54c14.05 0 17-5.98 17-11s-3.95-7.68-5.75-8.56ZM32.1 22.17h.05c.24 2.04 0 4.09-.65 6.02-1.17-1.37-2.66-2.71-4.63-3.69 1.51-1.2 3.32-2.02 5.23-2.33Zm-24.25-.01h.06c1.9.32 3.71 1.14 5.22 2.34-1.97.98-3.46 2.32-4.63 3.69-.66-1.93-.89-3.98-.65-6.03ZM13 51c-2.17 0-4-1.15-4-2.5 0-.65.45-1.29 1.2-1.76 1.85 1.37 4.01 2.38 6.35 2.88C15.87 50.43 14.5 51 13 51Zm7-3c-3.41 0-6.57-1.21-9.03-3.17-.37-.31-.73-.63-1.07-.96.51.03.86.1.88.1.54.13 1.08-.2 1.2-.74a.986.986 0 0 0-.74-1.2c-.07-.02-1.39-.31-2.97-.08-.49-.7-.91-1.44-1.25-2.22 1.07-.03 2.81.13 3.86.26a.995.995 0 0 0 1.12-.86.995.995 0 0 0-.86-1.12c-.35-.05-3.22-.41-4.79-.24-.18-.76-.3-1.53-.33-2.33.48-.51.92-1.25 1.47-2.2 1.43-2.45 3.41-5.83 7.52-7.39V27c0 .55.45 1 1 1s1-.45 1-1v-1.71c.62-.12 1.29-.21 2-.25V28c0 .55.45 1 1 1s1-.45 1-1v-2.96c.71.04 1.38.13 2 .25V27c0 .55.45 1 1 1s1-.45 1-1v-1.15c4.11 1.56 6.09 4.94 7.52 7.39.55.95.99 1.69 1.47 2.2-.03.8-.15 1.57-.33 2.33-1.56-.17-4.44.19-4.79.24-.55.07-.93.57-.86 1.12.07.55.57.93 1.12.86 1.05-.14 2.79-.29 3.86-.26-.34.78-.76 1.52-1.25 2.22-1.58-.23-2.9.06-2.97.08-.54.12-.87.66-.74 1.2.12.54.66.87 1.2.74.01 0 .36-.07.88-.1-.93.92-2.01 1.71-3.19 2.35-.03.02-.05.03-.08.05A14.521 14.521 0 0 1 20.01 48H20Zm27 4s-2.51-.02-4.88-1.09c-.46-.21-.78-.59-.91-1.09-.14-.52-.03-1.06.29-1.49.44-.58 1.22-.83 1.87-.61 2.23.72 6.11 1.18 11.95-.77.52-.18.8-.74.63-1.27-.18-.52-.74-.8-1.27-.63-5.6 1.87-9.1 1.28-10.68.77-1.43-.47-3.15.05-4.1 1.31-.69.92-.92 2.09-.63 3.2.03.1.08.19.11.28-.46.11-.94.23-1.44.37-2.44.68-4.98 1.02-7.57 1.02H27c-1.88 0-3.45-.98-3.88-2.3 1.53-.3 2.98-.81 4.33-1.49.49.13 1.14.24 1.92.24.84 0 1.84-.13 2.95-.5.52-.18.8-.74.63-1.27-.18-.52-.74-.8-1.27-.63-.5.17-.97.27-1.4.33.82-.66 1.57-1.39 2.24-2.18 1.88.72 3.77 2.51 3.79 2.52.19.19.44.28.69.28.25 0 .53-.1.72-.31.38-.4.37-1.03-.03-1.41-.08-.08-1.9-1.79-3.96-2.73.49-.76.9-1.56 1.24-2.4 2 .66 3.43 1.65 3.45 1.66.18.13.38.19.58.19.31 0 .62-.15.81-.42a.992.992 0 0 0-.23-1.39c-.08-.06-1.69-1.19-3.99-1.94.26-1.05.41-2.14.41-3.25 0-.33-.16-.63-.43-.82-.31-.22-.83-1.1-1.32-1.95-.37-.64-.81-1.38-1.33-2.16.46-1.07.8-2.18 1.02-3.31C36.18 25.92 39.61 25 44 25c11.31 0 13 10.02 13 16 0 .55.45 1 1 1s1-.45 1-1c0-1.08-.06-2.46-.26-3.96C60.24 38.1 62 39.98 62 43c0 5.97-5.05 9-15 9Z"/><path d="M19 40.72V41c0 .55-.45 1-1 1s-1 .45-1 1 .45 1 1 1c.77 0 1.47-.3 2-.78.53.48 1.23.78 2 .78.55 0 1-.45 1-1s-.45-1-1-1-1-.45-1-1v-.28A2 2 0 0 0 22 39c0-.6-.28-.91-.52-1.06-.52-.34-1.04-.12-1.29-.01-.07.03-.17.07-.18.08-.04 0-.14-.05-.21-.08-.25-.11-.77-.33-1.29.01-.24.16-.52.47-.52 1.06 0 .74.41 1.38 1 1.72H19ZM25 37c1.65 0 3-1.35 3-3 0-.55-.45-1-1-1s-1 .45-1 1-.45 1-1 1-1-.45-1-1-.45-1-1-1-1 .45-1 1c0 1.65 1.35 3 3 3Zm-10 0c1.65 0 3-1.35 3-3 0-.55-.45-1-1-1s-1 .45-1 1-.45 1-1 1-1-.45-1-1-.45-1-1-1-1 .45-1 1c0 1.65 1.35 3 3 3ZM21 16h1.59l-2.29 2.29c-.29.29-.37.72-.22 1.09.15.37.52.62.92.62h4c.55 0 1-.45 1-1s-.45-1-1-1h-1.59l2.29-2.29c.29-.29.37-.72.22-1.09-.15-.37-.52-.62-.92-.62h-4c-.55 0-1 .45-1 1s.45 1 1 1Zm8-4h1.59l-2.29 2.29c-.29.29-.37.72-.22 1.09.15.37.52.62.92.62h4c.55 0 1-.45 1-1s-.45-1-1-1h-1.59l2.29-2.29c.29-.29.37-.72.22-1.09-.15-.37-.52-.62-.92-.62h-4c-.55 0-1 .45-1 1s.45 1 1 1Z"/></g><defs><clipPath id="a"><path fill="#fff" d="M0 0h64v64H0z"/></clipPath></defs></svg>