<svg xmlns="http://www.w3.org/2000/svg" width="120" height="120" fill="none"><path fill="#939880" d="M56.359 45.108c2.76 1.339 6.417.878 8.69-1.108 2.345-2.05 3.011-5.479 1.585-8.157-3.168-5.945-12.943-4.59-14.197 1.85-.567 2.92 1.082 6.04 3.922 7.415Zm-1.323-6.909c.78-4.014 7.275-4.837 9.262-1.111.84 1.576.414 3.69-.99 4.92-1.482 1.292-3.973 1.599-5.794.718-1.75-.848-2.816-2.793-2.478-4.527Z"/><path fill="#939880" d="M4.871 109.511c0 2.34 2.597 4.174 5.912 4.174h.013c4.451 2.136 10.133 1.31 14.663 1.514 30.112 1.354 60.186 4.64 89.671 2.898-.656-2.812-2.619-4.679-4.92-5.191 1.495-.741 2.472-1.957 2.493-3.366.013-.898-.351-1.749-1.053-2.462-.68-.691-1.665-1.179-2.774-1.468-.087-11.834.226-23.897.111-35.715-30.91-28.285-14.731-13.31-28.269-25.516V33.114a269.229 269.229 0 0 0 4.13 3.174c.451.34 1.052.336 1.504.046 1.015-.32 2.597-1.07 3.19-1.51-7.773-6.43-21.397-18.86-23.394-19.928-1.578-.845-3.38-1.17-5.083-1.723V8.906h3.788a1.324 1.324 0 0 0 0-2.647h-3.788v-3.53a1.324 1.324 0 0 0-2.647 0v3.53h-3.533a1.324 1.324 0 0 0 0 2.647h3.533v4.852c0 .063.027.116.036.176-9.412 7.501-17.652 14.857-26.429 21.789a1.324 1.324 0 0 0 1.64 2.078 401.238 401.238 0 0 0 7.485-6.087c.047 1.809.005.375-.637 11.987L12.96 68.563c-.28.253-.44.613-.437.99l.238 35.767h-1.98c-3.315 0-5.91 1.834-5.91 4.191Zm75.847-61.593 24.037 21.312-.436 36.09h-3.562a28.778 28.778 0 0 0-1.315-10.244c-1.148-3.607-3.136-5.88-5.749-6.57-4.204-1.11-9.49 1.81-10.022 9.695-.148 2.223-.001 4.408-.308 6.455a1.29 1.29 0 0 0 .092.664h-2.737V47.918Zm17.395 57.402H85.88c.425-1.08.296-4.948.432-6.94.393-5.843 3.843-8.064 6.704-7.316 1.717.455 3.03 2.075 3.903 4.815a26.168 26.168 0 0 1 1.193 9.441ZM43.745 29.543c6.682-5.596 11.442-9.641 16.452-13.63 5.938 5.064 10.804 9.358 16.346 13.87-.943 26.838-.846 54.243.261 75.537h-4.812a139.03 139.03 0 0 0-1.013-15.934c-.53-4.341-1.72-10.397-5.924-12.872-3.616-2.128-8.63-.651-11.665 3.437-2.836 3.817-3.738 9.021-4.17 12.604-.438 3.64-.9 8.715-.987 12.765H43.52c.824-25.394.903-51.576.225-75.777Zm25.6 75.777H50.88c.092-3.971.559-9.048.969-12.448.395-3.283 1.206-8.03 3.666-11.343 1.893-2.55 5.41-4.374 8.198-2.733 3.194 1.88 4.177 7.128 4.638 10.91.63 5.161.963 10.413.993 15.614ZM40.35 47.412v57.908h-3.446a28.783 28.783 0 0 0-1.324-9.802c-1.148-3.608-3.136-5.88-5.749-6.572-4.203-1.113-9.49 1.81-10.022 9.696a955.22 955.22 0 0 0-.297 6.678h-4.103l-.233-35.19L40.35 47.411Zm-6.09 57.908H22.134c.326-2.338.174-4.41.317-6.499.394-5.855 3.847-8.054 6.704-7.316 1.717.456 3.03 2.075 3.903 4.816a26.166 26.166 0 0 1 1.202 8.999Zm72.533 2.647c1.289 0 3.277.639 3.263 1.535-.008.604-1.315 1.519-3.262 1.519l-96.011.017c-1.963 0-3.265-.919-3.265-1.544 0-.609 1.301-1.527 3.263-1.527h96.012Z"/></svg>