<svg width="65" height="36" viewBox="0 0 65 36" fill="none" xmlns="http://www.w3.org/2000/svg">
<path d="M62.6195 34.0884C62.8661 34.036 62.9816 33.8226 62.9406 33.6155C62.3827 30.8009 61.2127 28.0681 59.5563 25.7137C58.2033 23.7905 55.9623 22.3152 52.8943 21.3285C50.7584 20.6462 48.6068 20.4803 46.4961 20.833C44.586 21.1621 41.5712 22.1547 39.7479 23.3464C36.168 25.6682 33.7221 28.5888 32.0614 32.5137C31.8896 32.8574 32.0964 33.2876 32.4585 33.3892L33.1858 34.934C39.8883 35.4829 54.2365 35.4966 62.0948 35.4716L62.6195 34.0884ZM40.1963 24.035C41.9281 22.9033 44.8067 21.9578 46.6338 21.6431C48.6124 21.3119 50.634 21.4698 52.6436 22.1113C55.5366 23.0419 57.6364 24.4128 58.8842 26.1867C60.3812 28.3148 61.4647 30.764 62.0336 33.2982C54.1057 33.521 40.7286 33.6323 32.905 32.6304C34.5068 28.9553 36.8286 26.2193 40.1963 24.035Z" fill="#A89C81"/>
<path d="M40.9275 8.76909C40.7033 9.0848 40.6054 9.49737 40.6522 9.9308C40.7421 10.764 41.5316 11.5372 42.2112 11.7764C42.2336 11.7841 42.2563 11.784 42.279 11.7878C42.6051 14.2683 43.5471 16.511 45.6568 17.8578C45.8453 17.9997 46.4411 18.2974 46.6413 18.3787C48.2762 19.217 50.0687 18.9671 51.6155 18.0537C53.6207 16.8694 54.1743 14.0819 54.5362 11.9831C56.4665 11.5983 56.2718 8.99751 55.2551 8.52893C56.8524 3.1717 51.9111 -1.31813 47.4899 1.42989C47.5454 1.14384 47.6415 0.865123 47.7848 0.614126C47.8975 0.417208 47.8293 0.166245 47.6323 0.0533383C47.436 -0.057428 47.1842 0.00945987 47.0716 0.206378C46.8882 0.526637 46.7645 0.872748 46.6908 1.22986C46.597 1.13491 46.4946 1.0485 46.3791 0.979601C46.1841 0.862948 45.9323 0.92716 45.8157 1.1214C45.6993 1.31672 45.763 1.56875 45.958 1.68487C46.0702 1.75199 46.1616 1.85209 46.2286 1.9661C43.7816 1.60954 41.2226 3.92899 41.8705 8.2264C41.5067 8.25981 41.1528 8.45127 40.9275 8.76909ZM44.4763 15.6114C43.5387 14.2634 43.0595 12.4888 42.9699 10.0721C45.5125 10.3226 49.5749 8.41469 51.1993 6.00957C51.5577 7.6725 52.2014 9.28018 53.5876 10.2088C53.5873 10.2654 53.5979 10.3195 53.6203 10.3717C53.5197 11.8478 53.36 13.3945 52.7618 14.796C52.1138 16.3146 50.9612 17.4436 49.6791 17.8155C47.6735 18.4009 45.5449 17.1472 44.4763 15.6114ZM54.4272 10.6132C54.4556 10.2188 54.4468 10.367 54.4495 10.2544C54.4835 10.203 54.5163 10.1507 54.5488 10.0982L54.4272 10.6132ZM42.6123 6.25571C42.8785 3.53454 44.9924 2.23931 46.6199 2.91774C46.7815 2.98677 46.9696 2.94289 47.0863 2.81126C48.1423 1.61691 50.138 1.11231 51.6298 1.66079C53.0963 2.20017 54.2623 3.6 54.6004 5.22725C54.8994 6.66654 54.6584 8.24044 53.9731 9.47205C52.5676 8.4781 52.0826 6.57962 51.7882 4.64452C51.7213 4.2086 51.1099 4.1761 50.9874 4.59047C50.2284 7.17234 45.5532 9.56479 42.9665 9.24961C42.9499 9.24757 42.9348 9.25333 42.9184 9.25326C42.6281 8.05473 42.5281 7.11499 42.6123 6.25571Z" fill="#A89C81"/>
<path d="M58.5048 21.5532C58.6496 20.5713 58.9439 19.622 59.3797 18.7322C59.4795 18.5283 59.395 18.2821 59.1911 18.1821C58.9875 18.0831 58.7411 18.1666 58.6413 18.3704C58.1682 19.3368 57.8488 20.3674 57.6915 21.4334C57.6586 21.6581 57.8137 21.8668 58.0382 21.9C58.2778 21.9315 58.4732 21.767 58.5048 21.5532Z" fill="#A89C81"/>
<path d="M62.7399 21.5308C62.9068 21.3772 62.9178 21.1171 62.764 20.9502C62.6101 20.7827 62.3506 20.7725 62.1834 20.9261L59.7976 23.1222C59.5238 23.374 59.7025 23.8354 60.0759 23.8354C60.1754 23.8354 60.2674 23.7527 62.7399 21.5308Z" fill="#A89C81"/>
<path d="M64.9186 25.7195C64.91 25.4927 64.7241 25.3113 64.4921 25.3246C63.5714 25.36 62.6444 25.4589 61.7366 25.62C61.5132 25.6596 61.3641 25.8726 61.4037 26.0963C61.4427 26.3173 61.6537 26.4689 61.88 26.4291C62.7509 26.275 63.6405 26.1797 64.5237 26.1455C64.7505 26.1369 64.9271 25.9459 64.9186 25.7195Z" fill="#A89C81"/>
<path d="M45.1323 30.4054C46.1792 31.2635 47.4671 31.9166 48.4714 32.7449C48.6257 32.872 48.8448 32.8687 48.9939 32.7454C52.5047 29.8596 52.9557 29.551 53.4684 28.814C54.1568 27.8246 54.3449 26.5366 53.9591 25.452C53.3397 23.708 51.3238 22.6837 49.5611 23.6203C49.2323 23.7954 48.9137 24.1934 48.744 24.3074C48.4848 24.1843 48.3084 23.7729 47.2936 23.5037C43.9789 22.6353 40.9365 26.9711 45.1323 30.4054ZM47.7222 24.5584C47.7923 24.598 47.8721 24.667 47.9566 24.7403C48.5167 25.2253 48.8627 25.3323 49.6363 24.6055C49.7495 24.499 49.8664 24.3893 49.9472 24.3459C52.078 23.2131 54.4552 25.9558 52.7937 28.3448C52.3573 28.9724 51.9638 29.2405 48.7288 31.8994C47.7455 31.1428 46.5847 30.5323 45.653 29.7697C41.8841 26.6825 45.0487 23.046 47.7222 24.5584Z" fill="#A89C81"/>
<path d="M28.1362 35.4764L28.6149 34.2142C28.8699 34.171 28.9943 33.9497 28.9522 33.7372C27.7944 27.8886 25.0834 24.0204 19.551 22.2406C17.5524 21.6027 15.5372 21.4459 13.5621 21.7766C11.685 22.0999 8.85229 23.0803 7.24846 24.1284C3.90032 26.3004 1.61222 29.0321 0.0593518 32.7029C-0.112653 33.0506 0.108957 33.4803 0.470043 33.5631L1.13444 34.9743C7.39471 35.4869 20.7963 35.4997 28.1362 35.4764ZM20.7009 23.5511C17.6592 27.516 13.2705 27.3018 9.87197 23.7194C13.75 22.1443 16.8989 21.9252 20.7009 23.5511ZM7.69687 24.8171C8.09971 24.5539 8.56912 24.3017 9.07302 24.0666C10.688 25.8539 12.6459 26.9763 14.5817 27.2277C14.57 27.4124 14.7039 27.5439 14.6891 27.9201C14.6879 27.9468 14.6973 27.9705 14.701 27.996C13.361 28.1797 12.9668 30.0165 14.208 30.6406C14.7034 30.8908 15.3415 30.8408 15.8283 30.4956C16.3292 30.1403 16.5132 29.5634 16.3088 28.9903C16.1622 28.5786 15.8531 28.263 15.4749 28.1003C15.4945 28.0552 15.5078 28.0065 15.5099 27.9544C15.5192 27.7302 15.4823 27.5052 15.4219 27.2876C15.4993 27.2664 18.7907 27.5351 21.4711 23.9096C25.2789 25.8341 27.1447 29.2329 28.0474 33.4199C21.9316 33.5109 9.39283 33.8511 0.911237 32.8003C2.40471 29.3895 4.56599 26.8478 7.69687 24.8171Z" fill="#A89C81"/>
<path d="M26.2462 1.52994C25.6854 0.934605 24.3038 0.843153 23.4482 1.63161C22.7907 -0.211359 20.9733 -0.44954 20.2009 0.697486C17.7913 -0.464584 14.9251 0.108405 13.1148 1.82264C11.2484 1.34586 9.38245 2.36791 8.32294 3.64145C6.75135 5.52555 6.3329 7.99077 6.14347 9.92784C5.8909 12.5338 5.48636 15.0268 5.12356 17.1212C5.04223 17.5873 4.82551 18.825 5.65064 19.4436C6.42565 20.0201 7.54158 19.3688 8.23786 19.2574C9.28993 19.0907 9.75091 19.9048 11.6128 19.9048C12.2704 19.9048 12.927 19.7834 13.5953 19.5394C13.6444 19.5215 13.6864 19.4935 13.7235 19.4611C14.9602 19.8046 16.2203 19.7754 17.4248 19.2547C18.0124 19.5156 19.1511 19.4514 19.7362 19.3344C20.9056 19.1193 20.8626 18.9083 22.0917 19.1851C22.3218 19.2365 22.5604 19.2905 22.8146 19.3194C23.4444 19.3868 24.3338 19.1621 24.7988 18.5136C25.4875 17.5526 25.3664 16.0037 25.3146 14.8278C25.2269 12.4567 24.8179 9.7725 24.3532 7.50185C25.5212 7.6154 26.3352 6.63796 26.273 5.6604C26.2419 5.10496 25.9594 4.63835 25.587 4.28251C26.707 3.70414 26.9328 2.2382 26.2462 1.52994ZM22.8044 5.40408C22.6187 5.94935 21.8327 6.43362 21.2853 6.33516C20.7197 6.22975 20.2568 5.63418 20.2948 5.06055C20.336 4.44518 20.9621 3.7656 21.5132 3.73777C21.518 3.73777 21.5234 3.73724 21.5287 3.7367C21.4076 4.6014 22.0223 5.28117 22.8044 5.40408ZM23.1769 4.59019C22.8735 4.64638 22.5331 4.49066 22.4015 4.23916C22.266 3.98005 22.3308 3.57028 22.6749 3.32735L22.7322 3.29845C23.0484 3.15879 23.4808 3.31825 23.6274 3.62808C23.7843 3.95814 23.6147 4.48196 23.1769 4.59019ZM22.3442 1.28593C22.6064 1.61776 22.7369 2.04932 22.8163 2.44319C22.3586 2.49275 22.0265 2.72003 21.7958 3.05017C21.7578 3.00789 21.7096 2.97365 21.6545 2.94957C21.0248 2.67939 20.5278 2.04123 20.7662 1.37904C21.0204 0.632492 21.8543 0.685066 22.3442 1.28593ZM8.95436 4.16746C9.85334 3.08816 11.5357 2.15815 13.103 2.67506C13.2534 2.72268 13.4166 2.68308 13.5263 2.57071C15.0408 1.0122 17.6945 0.368787 19.9059 1.4682C19.8092 2.1522 20.0933 2.76322 20.588 3.22247C19.9903 3.60828 19.5216 4.30498 19.475 5.00597C19.4087 6.00179 20.1535 6.9607 21.1381 7.1437C21.7492 7.2534 22.4545 6.99869 22.9634 6.55455C23.0763 6.77943 23.24 6.97692 23.4388 7.13601C23.5464 7.61416 23.6416 8.09946 23.73 8.58995C21.3429 8.95375 18.8473 7.84445 17.6944 5.88909C18.0581 5.50629 18.3821 5.1065 18.651 4.68811C18.7735 4.49708 18.7184 4.24291 18.5274 4.12037C18.3363 3.99676 18.0821 4.05241 17.9596 4.24398C16.2114 6.96444 11.9124 9.00746 7.26184 9.32746C7.16903 9.33381 7.09017 9.37588 7.02509 9.43264C7.23123 7.71934 7.67263 5.70478 8.95436 4.16746ZM8.10783 18.4461C6.96858 18.627 5.49895 19.7426 5.93371 17.262C6.37633 14.7029 6.71139 12.5253 6.96459 9.97643C7.13998 10.2146 7.35167 10.1422 7.6458 10.1172C7.82466 12.0929 8.44488 14.7539 9.69013 16.5326C10.4419 17.6152 11.4342 18.4454 12.5178 18.9859C10.2572 19.4339 9.65619 18.1939 8.10783 18.4461ZM16.5683 18.6939C14.177 19.3885 11.6363 17.8939 10.3644 16.0628C9.20794 14.4109 8.62538 11.8265 8.46344 10.032C11.9245 9.59548 15.0387 8.29123 17.0967 6.46412C17.9705 7.83606 19.4143 8.83138 21.045 9.25458C20.9311 11.1074 20.9258 13.5007 20.245 15.0937C19.4723 16.9029 18.0977 18.2487 16.5683 18.6939ZM24.1309 18.0346C23.9078 18.3455 23.3732 18.5521 22.904 18.5023C22.6974 18.4788 22.4909 18.4322 22.2715 18.383C20.3153 17.9437 20.4172 18.6166 18.533 18.6128C19.5607 17.8667 20.4227 16.7705 21.0006 15.4169C21.7272 13.7171 21.7456 11.3572 21.8588 9.41244C22.5941 9.51492 23.1771 9.50522 23.8713 9.39795C24.1774 11.2045 24.4225 12.938 24.4932 14.8561C24.5358 15.8239 24.6576 17.2994 24.1309 18.0346ZM24.0303 6.55081C23.6698 6.31642 23.5428 5.91199 23.6082 5.57906C23.6269 5.48552 23.6066 5.39569 23.5665 5.31666C23.6045 5.30178 23.6511 5.29261 23.6857 5.27512C24.0212 5.10546 24.266 4.80182 24.3968 4.45504C24.8639 4.67189 25.4205 5.12977 25.4527 5.70909C25.4996 6.45523 24.6711 6.96073 24.0303 6.55081ZM24.6088 3.67249C24.5661 3.66981 24.5245 3.67603 24.484 3.68533C24.4157 3.18925 24.1375 2.83937 23.7238 2.61974C24.0572 1.80575 25.3019 1.72655 25.6522 2.09768C25.7571 2.20577 25.8171 2.38717 25.8122 2.58623C25.8032 3.22478 25.226 3.73874 24.6088 3.67249Z" fill="#A89C81"/>
</svg>
