<svg xmlns="http://www.w3.org/2000/svg" width="724" height="489" fill="none"><path fill="#6C705B" d="M688.201 478.095c.854-.06 2.06.265 3.068.282 4.22.075 5.784.299 9.603.427 5.662.189 22.467-.237 22.468 2.016a.516.516 0 0 1-.005.067c-.059.429-1.489.898-1.701 1.383-.212.486-.053 3.62-2.083 3.796-2.943.233-10.004-.571-11.574-.535-1.073.024-2.395.309-3.767.36-4.425.163-6.74-.046-10.727.728l-4.784-1.223c-2.081.189-5.234-.349-6.498-.32-1.037.025-1.645.347-2.726.362-1.212.019-3.073-.329-5.278-.277-3.615.085-4.258.926-6.427 1.033-2.249.111-5.747-.347-8.617-.051l-1.08.278.774.628c-1.445.098-2.067-.331-3.395-.339-1.563-.01-2.36.397-3.412.395-.861-.002-2.029-.328-3.146-.307-1.629.028-1.273.499-2.149.587-.35.034-6.814.294-7.179.298-2.773.018-3.015-.626-5.226-.683-6.135-.153-12.431.367-18.106.564-2.533.088-5.177.051-7.703-.052 3.979-1.65-4.827-2.934-1.534-.352-2.81-.368-4.803.329-7.468.211-1.723-.076-2.916-.434-5.377-.425-4.367.019-9.143 1.036-10.399-.803-5.126.325-9.566-.342-11.413 1.281-1.322.099-4.709-.868-6.192-.999-1.402-.124-12.16-.561-13.92-.585-1.76-.024-4.841-.051-6.323.092-1.862.176-3.164 1.859-6.479-.109-3.854.159-5.228.103-8.813-.126-.649-.041-.723-.333-1.102-.334-.781 0-2.11.216-3.504.243-2.293.043-3.602-.572-3.346.367l-4.536.473-1.591-.544-2.424.592c.949-1.359-4.74-.557-2.893.223l-8.791-.843c.409-1.545-6.435-.179-5.858.661l-1.006-.003c-2.936-.411-5.632-.075-9.21-.351-3.578-.275-3.242-.426-4.33-1.136l-2.526.122c-4.418 1.948-3.637-1.425-11.203.069-2.417-1.224-8.375-.581-12.326-.21-.46.044-.468.281-1.08.354-1.497.177-5.316-.129-5.186.638l-3.966-.666-3.242.418.016.718c-2.176-.815-5.596-.502-7.283-.697-.335-.039-.408-.369-1.451-.459-1.22-.107-3.492-.01-4.945-.113l-1.695 1.097c-2.599.198-3.512-.767-5.038-.842-.275-.013-5.288.057-5.558.077-2.211.164-1.585.986-7.98.81-1.138-.032-2.059-.317-3.089-.328-1.818-.021-7.297.624-7.728 1.221-2.205-.747-8.106-.442-9.844-.657-.524-.066-.643-.542-2.255-.643-1.307-.082-4.674.298-6.331.235-1.76-.07-2.388-.469-3.177-.497-.745-.027-1.431.296-2.446.294-3.169-.011-6.039-.53-8.543-.54-3.622-.015-6.822.94-9.852 1.363-.752-.062-1.492-.266-2.28-.268-9.756-.03-20.761-.206-30.546-.41-4.543-.094-15.839-1.39-12.824.772-1.579.378-13.057-.493-15.24-.506-2.183-.013-3.913.374-5.629.38-5.178.017-8.823-.262-15.125.075-1.628.088-3.372.547-4.336.542-1.161-.007-2.411-.452-3.915-.48-3.585-.063-10.267.083-13.706.006-.628-.015-.849-.405-1.747-.527-3.498-.476-7.419-.435-6.725.81-4.483-.707-8.631-.062-12.786-.023-8.784.081-24.787-.21-32.44.313-4.826.33-4.702.889-11.807.407-1.577-.107-3.147-.251-5.06-.378-4.484-.3-8.597-1.332-12.014-.089-4.98-.322-8.946-.094-12.641-1.157l-1.307.765-1.831.019-.572-.729c-4.373-.066-9.922.934-13.624.926-6.207-.011-22.195-.399-28.081-.727-3.124-.174-3.293.346-5.082-.724l-2.096.223-1.312.703c-4.01.01-8.764-.354-12.584-.351-6.959.008-17.41.653-24.398.229-1.752-.107-3.942-.59-5.658-.584-2.498.007-3.105.809-6.274.824-5.463.025-15.635-.907-20.798-.836-1.534.021-2.249.319-3.308.351-4.44.137-8.085.113-12.342.574-4.572-.769-4.177-1.761-5.593-2.762-1.074-.756-4.366-2.507-4.834-3.169-.328-.464.898-1.062.438-1.574 5.477-.409 7.778.041 12.225.761l24.638-.086 2.242.838v.002c3.154.322 4.49-.397 6.192-.561 16.285-1.563 48.336-.339 66.264-.163 3.864.037 16.431-.339 19.081.115.687.118.878.548 1.608.567l19.57-.768c13.415.669 27.283.116 40.8.013 36.571-.279 72.777-.619 108.749-.516 6.952.021 15.774-.302 22.58-.094 2.841.087 4.024.778 7.756.263l.117.559c3.257-.225 5.338-.649 8.989-.692 3.074-.036 11.208-.063 13.925.008 1.409.035.884.384 2.198.382 2.249-.006 7.055-.487 10.158-.487 2.812 0 7.551.401 9.713.343 7.784-.206 16.264-.801 24.559-.642 2.292.045 5.239.497 5.957.484 1.402-.026 1.819-.465 2.761-.521 4.783-.285 12.239.236 16.927.257 15.277.068 31.461-.124 46.672-.043 9.61.05 25.58-.027 34.453.303 1.913.071 1.403.552 3.009.552 1.782 0 2.747-.325 3.579-.351 5.762-.184 18.482-.512 23.922-.18 1.037.064 1.788.44 2.409.439.314 0 1.023-.257 2.009-.284 8.705-.232 15.051-.082 23.581.006 16.335.167 35.263-.311 52.424-.053 3.738.057 6.303.801 6.828.794 1.154-.015 1.892-.516 4.229-.64 7.77-.406 18.233.128 25.623-.123 3.651-.124 8.668-.76 12.261-.9 2.869-.113 9.646.137 10.918-.143.774-.168 1.132-.71 2.058-.778Zm-96.671 8.433c.511-.866-4.861-.146-2.846.319.454.104 2.714-.094 2.846-.319Zm-251.572-1.504.147.742 2.116-.309-1.189-.446-1.074.013Zm380.929-25.575c.06.575-.264 1.386-.281 2.064-.075 2.839-.3 3.891-.427 6.46-.19 3.809.236 15.114-2.016 15.115h-.001a.512.512 0 0 1-.067-.004c-.429-.039-.897-1.001-1.383-1.143-.485-.143-3.62-.036-3.796-1.402-.232-1.98.571-6.73.536-7.786-.025-.722-.31-1.611-.36-2.534-.163-2.977.045-4.535-.729-7.217l1.224-3.218c-.189-1.4.349-3.521.319-4.371-.024-.698-.347-1.107-.362-1.834-.019-.815.33-2.068.277-3.551-.084-2.432-.926-2.865-1.033-4.324-.11-1.513.347-3.866.051-5.796l-.278-.727-.628.521c-.097-.973.332-1.391.34-2.284.009-1.051-.398-1.588-.396-2.295.002-.58.328-1.366.308-2.117-.028-1.096-.499-.856-.587-1.445-.035-.236-.295-4.584-.298-4.83-.019-1.866.626-2.028.682-3.516.154-4.127-.367-8.363-.564-12.18-.088-1.704-.05-3.483.053-5.182 1.649 2.677 2.933-3.247.352-1.032.367-1.891-.33-3.231-.212-5.024.077-1.159.435-1.962.425-3.617-.019-2.938-1.036-6.151.803-6.996-.324-3.448.343-6.435-1.28-7.678-.1-.889.867-3.168.999-4.165.123-.944.56-8.181.584-9.365.025-1.184.051-3.256-.091-4.253-.176-1.253-1.86-2.128.108-4.359-.159-2.593-.102-3.517.126-5.929.042-.437.334-.486.334-.741 0-.525-.216-1.419-.242-2.358-.043-1.542.572-2.422-.368-2.251l-.472-3.05.544-1.071-.593-1.631c1.359.639.557-3.188-.223-1.946l.844-5.914c1.544.275.178-4.329-.662-3.941l.004-.677c.41-1.975.075-3.788.35-6.195.276-2.407.426-2.181 1.137-2.913l-.122-1.7c-1.948-2.972 1.424-2.447-.07-7.536 1.224-1.626.581-5.634.21-8.292-.043-.309-.281-.315-.354-.727-.176-1.007.129-3.576-.637-3.488l.665-2.669-.418-2.181-.718.011c.816-1.464.502-3.764.697-4.899.04-.226.37-.274.46-.976.107-.821.009-2.35.112-3.327l-1.097-1.14c-.198-1.748.767-2.363.842-3.39.013-.185-.056-3.557-.077-3.738-.163-1.488-.985-1.066-.809-5.368.032-.767.316-1.386.328-2.079.02-1.223-.625-4.909-1.221-5.198.746-1.484.441-5.454.657-6.623.066-.353.541-.432.642-1.517.083-.879-.298-3.144-.234-4.259.069-1.184.468-1.607.497-2.137.026-.501-.296-.963-.295-1.646.012-2.132.531-4.062.54-5.747.015-2.437-.939-4.589-1.363-6.628.062-.506.267-1.003.269-1.534.03-6.563.206-13.966.41-20.549.094-3.056 1.389-10.655-.772-8.627-.379-1.062.493-8.783.506-10.252.013-1.469-.375-2.633-.381-3.787-.016-3.483.263-5.935-.075-10.175-.088-1.095-.547-2.268-.542-2.917.008-.781.452-1.621.48-2.633.064-2.412-.082-6.907-.005-9.221.015-.423.405-.571.526-1.175.477-2.353.435-4.991-.81-4.524.707-3.016.063-5.806.023-8.601-.081-5.91.21-16.675-.313-21.824-.33-3.246-.888-3.163-.407-7.943.107-1.061.251-2.117.379-3.404.3-3.016 1.331-5.783.088-8.082.323-3.35.094-6.018 1.157-8.504l-.765-.879-.019-1.232.73-.384c.065-2.943-.934-6.676-.927-9.166.011-4.176.4-14.931.728-18.89.174-2.103-.347-2.216.724-3.42l-.224-1.41-.703-.883c-.009-2.697.355-5.895.351-8.465-.008-4.681-.653-11.712-.229-16.413.107-1.179.59-2.652.585-3.807-.008-1.68-.81-2.088-.825-4.22-.024-3.675.908-10.518.836-13.992-.02-1.031-.319-1.512-.351-2.225-.136-2.987-.112-5.439-.573-8.303.768-3.075 1.76-2.81 2.762-3.762.755-.723 2.506-2.938 3.168-3.252.465-.22 1.063.604 1.575.294.408 3.685-.042 5.233-.761 8.224l.086 16.576-.838 1.508h-.002c-.323 2.121.397 3.02.56 4.165 1.564 10.955.34 32.517.164 44.578-.038 2.599.339 11.053-.115 12.836-.118.462-.549.59-.568 1.082l.769 13.165c-.67 9.025-.117 18.354-.014 27.448.28 24.602.619 48.958.516 73.158-.021 4.677.302 10.611.094 15.19-.086 1.911-.778 2.707-.262 5.217l-.56.079c.225 2.191.649 3.591.693 6.047.035 2.068.063 7.54-.008 9.368-.036.948-.384.595-.382 1.479.005 1.513.487 4.746.487 6.833 0 1.892-.401 5.08-.343 6.534.206 5.237.8 10.941.641 16.522-.045 1.542-.496 3.525-.484 4.007.026.943.465 1.224.521 1.858.285 3.217-.236 8.233-.257 11.387-.067 10.277.124 21.165.044 31.398-.051 6.465.026 17.208-.304 23.177-.071 1.287-.551.944-.551 2.025 0 1.198.324 1.847.351 2.407.183 3.876.511 12.434.18 16.093-.064.697-.441 1.203-.439 1.62 0 .212.257.689.283 1.352.232 5.856.083 10.126-.006 15.864-.166 10.989.312 23.722.053 35.266-.056 2.516-.801 4.241-.793 4.594.015.776.515 1.273.639 2.845.407 5.227-.128 12.266.123 17.237.124 2.456.76 5.832.901 8.248.112 1.931-.137 6.49.142 7.346.169.52.71.761.778 1.384Zm-8.432-65.033c.866.344.146-3.27-.319-1.914-.105.305.094 1.825.319 1.914Zm1.503-169.24-.742.1.309 1.423.446-.8-.013-.723ZM10.276 465.023c.06.582-.264 1.405-.282 2.093-.075 2.88-.3 3.947-.427 6.553-.19 3.864.237 15.331-2.016 15.331a.76.76 0 0 1-.067-.003c-.43-.04-.898-1.016-1.383-1.161-.486-.144-3.62-.036-3.796-1.421-.233-2.009.571-6.827.536-7.898-.025-.732-.31-1.634-.36-2.571-.164-3.019.045-4.599-.73-7.319l1.224-3.265c-.189-1.42.35-3.571.32-4.434-.025-.707-.347-1.122-.362-1.86-.019-.827.33-2.097.277-3.602-.085-2.466-.926-2.905-1.033-4.385-.11-1.535.347-3.922.05-5.88l-.277-.737-.628.528c-.098-.986.332-1.41.34-2.317.009-1.066-.398-1.61-.396-2.328.002-.588.328-1.385.307-2.147-.028-1.111-.499-.868-.587-1.466-.034-.239-.294-4.65-.298-4.898-.018-1.893.626-2.058.683-3.567.154-4.186-.367-8.483-.564-12.355-.088-1.729-.05-3.532.052-5.256 1.65 2.715 2.934-3.294.352-1.047.368-1.918-.33-3.278-.211-5.096.077-1.176.434-1.99.425-3.669-.019-2.98-1.036-6.239.803-7.096-.324-3.498.343-6.528-1.28-7.788-.1-.902.867-3.214.998-4.225.124-.957.56-8.298.585-9.499.024-1.201.05-3.303-.091-4.314-.177-1.271-1.86-2.159.108-4.421-.16-2.631-.103-3.568.126-6.015.041-.442.333-.492.334-.751 0-.533-.216-1.44-.243-2.392-.043-1.564.572-2.457-.367-2.283l-.472-3.095.543-1.085-.592-1.655c1.359.648.557-3.234-.223-1.973l.843-6c1.545.28.179-4.39-.661-3.997l.004-.687c.41-2.003.074-3.842.35-6.284.275-2.442.426-2.212 1.136-2.955l-.122-1.723c-1.948-3.015 1.425-2.482-.07-7.645 1.225-1.649.582-5.715.21-8.411-.042-.314-.28-.319-.353-.737-.177-1.021.129-3.627-.638-3.538l.666-2.707-.418-2.212-.718.011c.815-1.485.502-3.818.697-4.97.04-.229.37-.278.46-.99.106-.832.009-2.383.112-3.375l-1.097-1.156c-.198-1.773.767-2.397.842-3.438a142.19 142.19 0 0 0-.077-3.792c-.164-1.509-.986-1.082-.81-5.445.032-.778.317-1.406.328-2.108.02-1.241-.624-4.98-1.22-5.274.746-1.505.44-5.531.656-6.717.067-.358.542-.439.643-1.539.082-.892-.298-3.189-.234-4.32.069-1.201.468-1.63.496-2.168.027-.508-.296-.977-.294-1.669.011-2.163.53-4.121.54-5.83.015-2.471-.94-4.655-1.363-6.723.062-.513.266-1.017.268-1.555.03-6.657.206-14.167.41-20.844.094-3.1 1.39-10.808-.772-8.751-.378-1.077.493-8.909.506-10.399.013-1.49-.374-2.67-.38-3.841-.017-3.533.263-6.021-.075-10.321-.088-1.111-.547-2.301-.542-2.959.008-.792.452-1.645.48-2.671.064-2.447-.082-7.006-.006-9.353.015-.429.405-.579.527-1.192.476-2.387.435-5.062-.81-4.589.707-3.059.062-5.889.023-8.724-.08-5.995.21-16.915-.313-22.137-.33-3.293-.889-3.209-.407-8.057.107-1.076.251-2.147.379-3.452.3-3.06 1.33-5.867.088-8.199.322-3.398.094-6.104 1.157-8.625l-.765-.892-.02-1.25.73-.39c.066-2.984-.933-6.77-.926-9.297.011-4.236.4-15.145.727-19.161.175-2.132-.346-2.247.724-3.468l-.223-1.43-.703-.896c-.01-2.736.354-5.98.35-8.587-.007-4.748-.652-11.88-.228-16.648.107-1.196.59-2.69.585-3.861-.008-1.705-.81-2.119-.825-4.281-.024-3.728.907-10.67.836-14.192-.02-1.047-.319-1.535-.35-2.257-.138-3.03-.113-5.518-.575-8.423.769-3.12 1.761-2.85 2.762-3.816C4.95 2.604 6.701.357 7.363.039c.465-.224 1.063.612 1.574.298.409 3.737-.04 5.307-.76 8.342l.085 16.813-.838 1.53h-.002c-.322 2.152.397 3.064.56 4.225 1.564 11.112.34 32.983.164 45.217-.037 2.636.34 11.211-.114 13.02-.119.468-.55.599-.568 1.097l.768 13.354c-.669 9.154-.116 18.618-.013 27.841.28 24.955.619 49.661.516 74.207-.02 4.744.302 10.764.094 15.408-.087 1.939-.778 2.746-.263 5.293l-.559.08c.225 2.222.65 3.642.692 6.133.036 2.098.064 7.649-.008 9.503-.035.961-.384.603-.382 1.499.006 1.535.487 4.814.487 6.932 0 1.919-.4 5.153-.343 6.628.207 5.312.801 11.098.642 16.758-.045 1.564-.497 3.575-.484 4.065.026.957.465 1.242.521 1.884.285 3.264-.236 8.352-.257 11.551-.067 10.424.124 21.468.043 31.848-.05 6.557.027 17.455-.303 23.509-.071 1.306-.552.958-.552 2.054 0 1.215.325 1.874.351 2.442.184 3.932.512 12.611.18 16.324-.063.707-.44 1.22-.439 1.643 0 .214.257.699.284 1.371.232 5.94.082 10.271-.006 16.091-.167 11.147.311 24.063.053 35.773-.057 2.551-.801 4.301-.794 4.659.015.788.516 1.292.64 2.886.407 5.302-.128 12.442.123 17.484.124 2.492.76 5.915.9 8.367.113 1.958-.137 6.582.143 7.45.168.528.71.772.778 1.405Zm-8.433-65.966c.866.349.147-3.317-.318-1.942-.105.31.093 1.852.318 1.942Zm1.504-171.666-.742.1.309 1.444.446-.811-.013-.733ZM680.94 1.591c.849-.06 2.048.265 3.051.282 4.199.075 5.754.3 9.553.427 5.633.19 22.351-.237 22.351 2.016a.51.51 0 0 1-.005.067c-.058.43-1.48.898-1.691 1.383-.211.486-.053 3.62-2.072 3.797-2.929.232-9.953-.572-11.515-.536-1.067.024-2.382.31-3.747.36-4.402.163-6.705-.046-10.671.729l-4.76-1.224c-2.069.189-5.206-.349-6.464-.32-1.031.025-1.636.348-2.711.363-1.206.018-3.058-.33-5.251-.278-3.596.085-4.236.926-6.394 1.033-2.237.11-5.717-.347-8.572-.05l-1.074.277.77.628c-1.438.098-2.057-.331-3.378-.34-1.554-.008-2.348.398-3.394.396-.857-.002-2.019-.328-3.13-.307-1.62.028-1.266.499-2.137.587-.348.034-6.779.294-7.142.298-2.759.018-2.999-.626-5.199-.683-6.103-.153-12.367.367-18.011.564-2.521.088-5.151.051-7.664-.052 3.959-1.65-4.802-2.934-1.526-.352-2.796-.367-4.778.33-7.429.211-1.715-.076-2.901-.434-5.35-.425-4.343.019-9.095 1.036-10.344-.803-5.1.325-9.516-.342-11.354 1.281-1.315.1-4.685-.868-6.16-1-1.395-.123-12.097-.56-13.847-.584-1.751-.024-4.816-.05-6.291.092-1.852.176-3.147 1.86-6.445-.109-3.835.16-5.201.103-8.767-.126-.646-.041-.719-.333-1.096-.334-.777 0-2.1.216-3.487.243-2.281.043-3.583-.572-3.328.367l-4.512.473-1.583-.544-2.412.592c.944-1.359-4.714-.557-2.877.223l-8.746-.843c.407-1.545-6.401-.179-5.828.661l-1.001-.003c-2.92-.41-5.602-.075-9.161-.35-3.56-.276-3.226-.427-4.308-1.137l-2.513.122c-4.395 1.948-3.618-1.425-11.144.07-2.405-1.225-8.332-.582-12.262-.21-.458.043-.466.28-1.075.354-1.489.176-5.289-.13-5.159.637l-3.945-.666-3.226.419.017.717c-2.165-.815-5.567-.502-7.245-.697-.334-.04-.406-.37-1.444-.46-1.213-.106-3.474-.008-4.92-.112l-1.686 1.097c-2.585.199-3.494-.766-5.012-.841-.273-.013-5.26.056-5.529.076-2.199.164-1.576.986-7.938.81-1.133-.032-2.049-.317-3.073-.328-1.809-.02-7.259.625-7.688 1.22-2.194-.745-8.064-.44-9.793-.656-.521-.066-.639-.542-2.243-.643-1.3-.082-4.649.298-6.298.235-1.751-.07-2.376-.469-3.16-.497-.741-.026-1.425.296-2.434.294-3.153-.011-6.007-.53-8.499-.54-3.603-.015-6.786.94-9.801 1.363-.748-.062-1.483-.266-2.268-.268-9.705-.03-20.653-.206-30.387-.41-4.519-.094-15.757-1.39-12.757.772-1.571.378-12.99-.493-15.161-.506-2.172-.013-3.893.374-5.6.38-5.151.017-8.777-.262-15.047.075-1.619.088-3.354.547-4.313.542-1.155-.007-2.398-.451-3.894-.48-3.567-.063-10.214.083-13.636.006-.624-.015-.844-.405-1.737-.527-3.48-.476-7.38-.435-6.69.81-4.46-.707-8.586-.062-12.719-.022-8.74.08-24.659-.21-32.272.313-4.801.33-4.678.888-11.746.406-1.569-.107-3.131-.25-5.034-.378-4.46-.3-8.552-1.332-11.952-.089-4.954-.322-8.899-.094-12.575-1.156l-1.3.764-1.822.02-.568-.73c-4.351-.066-9.871.934-13.554.926-6.175-.01-22.079-.4-27.934-.727-3.109-.174-3.276.346-5.056-.724l-2.086.223-1.305.704c-3.988.009-8.718-.355-12.518-.351-6.923.007-17.319.652-24.271.228-1.743-.106-3.922-.59-5.63-.584-2.484.007-3.088.81-6.24.824-5.435.025-15.554-.907-20.69-.836-1.526.02-2.238.32-3.291.351-4.417.137-8.043.113-12.279.574-4.547-.769-4.154-1.761-5.564-2.762-1.068-.756-4.343-2.507-4.808-3.168-.326-.465.893-1.063.435-1.575 5.449-.409 7.738.041 12.162.761l24.51-.086 2.23.838v.002c3.138.322 4.468-.397 6.16-.56 16.2-1.564 48.086-.34 65.92-.164 3.844.037 16.345-.339 18.982.115.683.118.873.549 1.6.567l19.468-.768c13.345.67 27.142.116 40.589.013 36.38-.28 72.398-.619 108.183-.515 6.916.02 15.692-.303 22.463-.094 2.826.086 4.003.777 7.715.262l.117.56c3.24-.226 5.31-.65 8.942-.693 3.058-.036 11.15-.063 13.853.008 1.402.035.88.384 2.186.382 2.238-.006 7.019-.487 10.106-.487 2.797 0 7.512.401 9.662.343 7.744-.206 16.179-.8 24.432-.642 2.28.045 5.212.497 5.926.484 1.394-.026 1.81-.464 2.746-.52 4.759-.286 12.176.235 16.839.256 15.198.068 31.298-.124 46.43-.043 9.56.05 25.447-.027 34.274.303 1.903.071 1.396.552 2.994.552 1.772 0 2.732-.325 3.56-.351 5.732-.184 18.386-.512 23.798-.18 1.031.064 1.778.44 2.396.439.312 0 1.018-.257 1.999-.283 8.659-.233 14.973-.083 23.458.005 16.25.167 35.08-.311 52.151-.052 3.72.056 6.271.8 6.794.793 1.147-.015 1.882-.516 4.207-.64 7.729-.406 18.138.128 25.489-.123 3.632-.124 8.623-.76 12.197-.9 2.855-.113 9.597.137 10.862-.142.77-.17 1.126-.71 2.048-.779Zm-96.169 8.433c.508-.866-4.836-.146-2.831.319.451.104 2.699-.094 2.831-.319ZM334.504 8.52l.147.742 2.105-.309-1.183-.446-1.069.013Z"/></svg>