<svg xmlns="http://www.w3.org/2000/svg" width="154" height="154" fill="none"><path fill="#C2B18E" d="M9.807 82.965c.727 5.692 3.773 9.828 9.44 10.395 6.337.689 11.947-.229 18.376-.77 7.326 5.722 13.24 9.473 20.367 15.126.234.187.515.303.813.337a1.595 1.595 0 0 0 1.78-1.569l3.11-4.264c-.895-4.107-1.663-8.657-2.533-12.836 4.224.143 5.796.248 8.694-.085.364 11.597 7.196 22.297 17.24 27.841-1.198 7.6-3.303 13.336-.37 17.325a1.596 1.596 0 0 0 2.652.663c5.12-5.054 10.609-10.292 16.487-13.919l.04-.028c8.688 2.517 16.645 4.733 24.76.539 24.249-12.534 21.38-50.19-10.786-63.433-7.893-3.264-16.517-4.013-24.369-2.163 1.947-12.348-3.615-20.702-8.82-22.683-2.285-1.903-9.98-2.337-12.122-2.156-20.231 1.814-38.66-.162-58.216 5.908-8.556 2.689-9.432 6.618-8.994 12.79.235 3.27.207 15.351 2.451 32.982Zm108.844-21.714c22.516 9.272 27.938 34.458 11.64 49.175-7.016 6.366-16.897 8.813-24.612 7.459a1.48 1.48 0 0 0-1.425.541c-.043.026-.081.053-.122.081-4.44 2.74-8.63 6.325-12.6 10.068.963-3.97 1.506-7.899 1.656-10.607.106-1.968-3.307-2.804-5.038-3.935-9.494-5.465-15.534-16.371-15.09-26.54.674-22.298 23.456-35.394 45.591-26.242ZM17.306 40.254c18.993-5.895 37.388-3.968 57.545-5.773 1.713-.156 8.827.346 9.928 1.54 2.366 3.352-.56 21.588-.947 25.275-7.967 5.666-13.186 14.992-13.894 24.766-4.605.633-8.54-.143-17.13-.028a1.605 1.605 0 0 0-1.48 2.17c1.76 4.692 2.925 9.092 4.405 13.729-5.82-4.353-11.043-7.82-17.072-12.598a1.587 1.587 0 0 0-2.103.133c-6.044.545-11.325 1.317-16.98.703-4.27-.43-6.051-3.38-6.588-7.612-2.274-17.843-2.14-28.657-2.434-32.802-.338-4.766-.417-7.247 6.75-9.503Z"/><path fill="#C2B18E" d="M37.012 48.112c2.532-1.356 4.983-2.04 7.283-2.04h.008c2.575 0 4.95.913 6.515 2.502 3.604 3.662 3.187 8.983-7.584 12.329-8.57 2.673-3.19 8.773-3.837 11.376a1.604 1.604 0 0 0 3.114.773c1.202-4.834-4.139-7.273 1.818-9.13 12.754-3.967 14.125-12.165 8.776-17.598-2.163-2.197-5.369-3.459-8.8-3.46h-.01c-2.832 0-5.79.812-8.796 2.416a1.605 1.605 0 1 0 1.513 2.832Zm82.313 22.29-9.103-4.428c-2.475 10.335-5.754 21.21-9.782 31.046.728.515 1.534 1.11 2.259 1.626 4.714-9.762 10.237-19.486 16.626-28.245Zm-20.52 36.14c2.018 0 3.655-1.557 3.655-3.475 0-1.919-1.637-3.476-3.656-3.476-2.017 0-3.653 1.555-3.653 3.476 0 1.92 1.636 3.475 3.653 3.475ZM41.41 82.213c1.552 0 2.81-1.198 2.81-2.674 0-1.477-1.258-2.674-2.81-2.674s-2.81 1.197-2.81 2.674c0 1.476 1.258 2.674 2.81 2.674ZM97.247 19.778l-1.405 9.63a1.604 1.604 0 0 0 3.174.462l1.405-9.628a1.603 1.603 0 0 0-3.174-.464Zm17.518 8.977a1.613 1.613 0 0 0-1.018-.689 1.603 1.603 0 0 0-1.207.234l-8.989 5.94a1.604 1.604 0 0 0 1.766 2.677l8.994-5.94a1.606 1.606 0 0 0 .454-2.224v.002Zm-1.882 12.502-6.062.704a1.606 1.606 0 0 0-1.408 1.778 1.605 1.605 0 0 0 1.778 1.409l6.062-.706a1.603 1.603 0 0 0 1.216-2.374 1.598 1.598 0 0 0-1.586-.81Z"/></svg>