<svg xmlns="http://www.w3.org/2000/svg" width="73" height="73" fill="none"><path fill="#A89C81" d="M62.758 12.811c-1.04-.594-2.08-.891-3.121-1.04.892-.594 1.486-1.338 2.08-2.08.892-1.635.744-3.567-.891-4.756-1.338-1.04-3.121-1.04-4.608-.446-.891.446-1.486 1.04-2.08 1.635 0-.743 0-1.486-.149-2.08C53.692 2.556 52.95.327 51.166.03c-1.784-.298-3.27 1.634-3.864 3.12a4.577 4.577 0 0 0-.446 1.932c-2.08-2.526-5.499-4.012-8.322-1.932-1.338 1.04-2.08 2.973-1.338 4.607.149.446.446.744.744 1.04-.892.744-1.635 1.784-2.23 2.973-.445-.892-1.04-1.783-1.783-2.675 1.932-2.23 2.08-8.174-1.189-8.768-3.418-.595-6.242 2.823-7.133 5.796-.446-3.121-2.23-6.242-5.945-5.796-1.783.148-2.972 1.486-3.27 3.12-.148.595 0 1.338.15 1.933-3.27-2.08-7.728-3.27-8.917.743-.743 2.378 1.04 5.053 3.27 6.687-1.933.892-3.567 2.527-4.013 4.756-.298 1.783.446 3.715 2.377 4.161 1.19.297 2.675.149 4.162-.297-2.23 2.824-3.418 7.133.445 9.065 1.932 1.04 4.31.595 6.094-.594 1.337-.892 2.972-2.824 3.418-4.607.743.148 1.486.148 2.378.148-2.676 2.23-4.607 5.648-3.27 8.917 1.04 2.675 4.31 2.824 6.54 1.932.593-.148 1.188-.446 1.782-.891 2.973 5.35 3.864 12.335 4.013 19.32-2.23-.892-5.647-1.19-6.242 1.783-.297 1.486 1.04 2.08 2.378 2.23.149 0 .297 0 .446.148-.149.148-.446.297-.595.446-.891.743-2.229 1.634-1.486 2.972 1.04 1.932 3.864.892 5.5-.297-.15 3.715-.15 7.43-.15 10.551 0 .595.744.595.892 0 .446-3.715.595-7.58.595-11.294.891.148 1.783.297 2.675.297-.149 3.715 0 7.43 1.04 10.997.148.595 1.189.595 1.189-.148-.446-14.416 3.566-26.157 8.768-39.086 1.634-.148 2.972-1.04 3.566-3.12.298-1.338 0-2.379-.445-3.419.297.149.594.297.743.446 1.783.892 3.864.892 5.499-.149 1.634-1.04 2.229-3.12 1.634-4.904-.148-.743-.594-1.486-1.04-2.08.446 0 .892-.15 1.486-.15 1.635-.296 4.458-1.04 4.904-2.971.148-1.635-2.08-3.419-3.418-4.162ZM30.955 2.706c2.229-.743 2.229 1.932 2.08 3.418-.148.594-.446 1.189-.594 1.932-1.486-1.19-3.716-2.378-5.5-1.784.744-1.783 2.23-2.972 4.014-3.566ZM20.552 17.12c-1.338.892-2.23 2.378-2.23 4.013 0 1.783.892 2.972 2.378 3.715-1.337 1.783-2.378 4.161-4.904 3.864-1.783-.149-2.23-2.08-1.932-3.567.446-1.634 1.635-2.972 2.378-4.31.148-.297.148-.594 0-.743.297-.594.148-1.486-.743-1.337-1.338.148-2.675.594-4.013.743-.594.149-1.635.297-2.08-.297-.298-.446 0-1.19.148-1.486.595-1.486 2.08-2.675 3.567-3.27 1.338.446 2.675.595 3.864 0 .594-.297.446-1.189 0-1.486-1.189-.743-2.675-.892-3.864-1.635-1.04-.594-2.972-2.08-2.972-3.418-.149-2.824 4.904-.446 7.43.892a3.51 3.51 0 0 0 1.338 1.189c.446.148 1.04 0 1.04-.595.149-.148.149-.446 0-.743-.149-.148-.149-.297-.297-.446-.743-2.229-2.378-5.498.892-5.498 3.12 0 3.566 3.864 4.16 6.241-.148 1.19.15 2.527.447 3.716-.743-.743-1.784-1.04-2.824-.892-1.337.149-2.526 1.04-2.823 2.378-.298 1.189.148 2.23 1.04 2.972Zm3.864-1.189c-.892 0-1.635.149-2.527.446 0 0-.148 0-.148.149v-.149c-.892-1.04-.149-2.526 1.04-2.675.595 0 1.189.297 1.486.892.149.446.149.891.149 1.337Zm5.944 41.315c-.446-.743 1.189-1.189 1.784-1.338.891 0 1.783.298 2.526.595v.297c-.446.297-1.04.594-1.486 1.04-.594 0-2.526 0-2.824-.594Zm1.635 4.161c.743-.594 1.486-1.189 2.229-1.932h.595v.744c-.744.446-1.487.891-2.23 1.04-.297.148-.445.148-.594.148Zm6.687-.743a8.103 8.103 0 0 1-2.675 0v-1.337c.149 0 .298 0 .595-.15.297-.148.446-.297.446-.594.594 0 1.337 0 2.08.149-.297.743-.446 1.338-.446 1.932Zm.892-5.944c-1.04 0-2.08.148-3.121.297-.446 0-.297.743.149.743.891 0 1.932 0 2.823.149-.148.743-.297 1.337-.446 2.08-.743 0-1.634.149-2.378.149-.148 0-.148-.149-.297-.149h-.446l.149-.148c.297-.298.148-.892-.149-1.19.149-.296.298-.593-.148-.89h-.149c-.148-2.676-.446-5.35-.743-8.175-.594-4.31-.892-8.767-3.27-12.335.744-.594 1.487-1.188 2.08-2.08-.593 1.783-.742 3.715.15 5.35 1.04 1.932 3.269 3.418 5.498 2.824 4.459-1.19 4.31-6.39 2.676-9.957 1.634.891 3.715 1.783 5.647 2.08-3.12 6.687-6.39 13.82-8.025 21.252ZM50.72 29.605c-.445 4.31-8.173.297-9.957-.446h-.148c-.595-.446-1.635.297-1.486 1.189.892 2.526 3.418 6.093.594 8.47-1.634 1.487-3.418 0-4.161-1.634-.743-1.783-.149-4.012.446-5.796.148-.594-.595-1.189-1.04-.892-.149-.445-.744-.743-1.19-.445-1.783 1.337-6.984 6.836-8.767 3.418-1.635-2.973 1.931-6.54 4.755-8.174.595-.149 1.189-.297 1.635-.595.892-.445.446-1.783-.446-1.783-1.932 0-10.254 1.189-9.957-2.23.297-3.269 5.35-2.526 8.322-2.08.743.446 1.635.892 2.378 1.04.892.15 2.08-1.04 1.04-1.783-1.486-1.04-2.972-1.932-4.012-3.418-.743-1.04-2.08-3.418-1.635-4.904.743-2.23 4.161.743 5.053 1.635 1.338 1.337 1.932 2.972 2.675 4.607.297.594 1.338.297 1.338-.298v-.297c1.634-1.932 1.932-6.093 5.498-5.499 2.527.446 2.23 4.013.892 6.242-.594.595-1.189 1.04-1.486 1.635 0 0-.148 0-.148.149-.446.148-.446 1.04.148 1.04.297.297.594.446.892.148 2.08-1.337 6.093-5.052 8.62-3.418 3.12 2.081-3.419 8.471-6.094 7.134-.743-.297-1.189.297-1.189.743h-.148c-.744.149-.744 1.189 0 1.486 2.525.892 8.024.743 7.578 4.756Zm-.594-5.053c-.446-.297-.892-.446-1.338-.743l.892-.446c0 .297.149.743.446 1.189Zm13.078-7.728c-.298.594-3.121 1.04-3.716 1.189-1.189.148-2.08-.297-3.27-.743-.743-.297-1.485.594-1.337 1.337 0 .297.149.446.297.595.15 0 .15.148.298.148.148.149.297.298.594.446.892.743 1.784 1.635 2.08 2.824.298 1.337-.148 2.675-1.634 2.823-2.526.15-3.418-2.229-5.053-3.566 1.784-1.635 3.121-3.567 2.378-6.093-1.04-3.864-5.053-3.27-8.471-1.635.446-2.08.148-4.31-1.338-5.499-1.337-1.04-3.12-1.189-4.607-.594-.594-.595-.743-1.338-.446-2.08.595-1.19 2.08-1.487 3.27-1.041 2.377.743 3.12 2.972 4.755 4.458.446.446 1.19.149 1.19-.446.148-.148.297-.445.297-.743-.149-1.04-.298-2.08 0-2.972.297-.743 1.04-2.824 2.23-2.378.742.297 1.04 2.675.89 3.27 0 1.189-.593 2.08-.742 3.12.148.446.594.892 1.188.892.298.446.892.595 1.338.149 1.19-1.783 3.121-4.904 5.647-3.715 3.864 1.634-3.12 4.755-3.864 5.647-.594.594 0 1.783.892 1.486h.149c.148.149.446.297.743.149 1.338-.298 2.675 0 3.864.445.594.15 2.824 1.487 2.378 2.527Z"/><path fill="#A89C81" d="M39.127 20.39c-1.04-.89-2.675-.89-3.715-.148-.148-.149-.446-.297-.743 0-1.486 1.338-2.824 3.715-1.338 5.648 1.486 1.783 4.458 1.486 5.945 0 1.486-1.487 1.635-4.013-.149-5.5ZM37.79 24.7c-.892.744-2.675 1.19-3.418 0-.446-.742-.148-1.783.297-2.674.149.148.446.148.744 0 .743-.892 2.08-1.19 2.823-.15.743.893.446 2.081-.446 2.825Z"/></svg>