<svg xmlns="http://www.w3.org/2000/svg" width="78" height="78" fill="none"><path fill="#A89C81" d="m22.942 53.109-.46-.115c-3.096-.688-4.128-1.262-4.243-1.491-.23-.459-.803-.574-1.147-.344-.46.23-.574.803-.344 1.147 1.605 2.982 5.161 8.603 10.438 11.47 3.441 1.836 7.341 2.295 9.635 1.836.115 3.9.23 7.685.459 11.012 0 .458.459.803.803.803a.784.784 0 0 0 .803-.803V75.59c.23-.459 1.606-3.441 1.95-4.244 5.276.459 11.241.115 15.6-2.868.917-.688 1.72-1.376 2.638-2.064 1.032-.918 1.95-1.836 3.097-2.41.344-.228.459-.573.459-.917-.115-.344-.344-.688-.688-.688-3.097-.459-6.194-.918-9.52-.459-3.098.459-5.85 1.835-7.8 3.785-.919 1.033-1.721 2.065-2.64 2.868a131.723 131.723 0 0 0 3.786-10.782c11.127.917 12.733-3.785 15.944-5.62.689-.345.574-1.492-.23-1.607-2.408-.344-4.817-.803-7.34-.459-.115 0-3.556.23-6.08 2.983-.459.459-.688.803-1.261 1.376.802-2.523 1.49-5.161 2.179-7.685h.23c0-.344.114-.803.114-1.147 1.377 1.032 4.13-.115 5.391-1.262 1.377-1.262.803-2.638-.459-2.753-1.147-.114-2.982 1.033-4.014 1.72-.23.116-.46.345-.688.574.688-2.409 1.261-4.932 1.835-7.226 2.064.803 6.423-.803 5.85-2.753-.115-.459-.574-.803-1.033-.918-1.147-.23-3.326.574-4.244 1.147.46-1.95.803-3.211 1.491-5.85 1.377.574 3.556 0 4.933-.803 1.606-1.032 1.262-2.408 0-2.753-1.147-.229-3.327.574-4.359 1.148.23-.918.459-1.721.688-2.524 1.262 0 2.18-1.262 2.753-2.294 1.95-2.983.344-6.08-1.72-6.08-.803 0-1.492.345-1.95 1.033-1.033 1.262-1.721 5.047-.574 6.538-.115.23 0-.115-.918 3.67 0-.343 0-.802-.114-1.146-.115-1.147-.574-2.18-1.377-2.983-.344-.344-.688-.573-1.147-.459-1.72.46.344 5.506 2.409 5.506-.803 3.442-1.262 5.162-1.835 7.686-.115-.918.114-2.753-1.491-4.36-.345-.343-.689-.573-1.148-.458-1.72.459.46 5.506 2.524 5.506-.574 2.409-1.262 4.932-1.95 7.456-.344-1.377-1.606-2.868-2.638-3.097.344-1.95.344-3.441.803-4.933.23-.803-.574-1.49-1.262-1.032-2.409 1.606-4.818 3.212-6.538 5.62.344-4.817.917-9.52 2.064-14.338 1.377.689 3.671.115 5.047-.803 1.606-1.032 1.262-2.409 0-2.753-1.147-.229-3.555.689-4.473 1.262.459-1.606.918-3.212 1.376-4.703 1.262 1.147 4.015.46 5.506-.459 1.606-1.032 1.262-2.408 0-2.752-1.032-.23-3.097.458-4.244 1.032-.23.114-.459.344-.803.573.574-1.49 1.147-2.982 1.836-4.473 1.376.917 3.9.23 5.276-.688 1.606-1.033 1.262-2.41 0-2.753-1.147-.23-3.097.458-4.13 1.032.345-.688.804-1.376 1.148-2.065.344 0 .688-.23.803-.344 1.49-.917 2.638-1.606 3.326-2.523.688-1.033.688-2.294.115-3.097C50.242.229 47.603.574 46.57 3.097c-.688 1.835-.803 2.868-.803 3.441-.688 1.033-1.262 2.18-1.835 3.327V8.832c-.115-1.147-.574-2.18-1.377-2.982-.344-.344-.688-.574-1.147-.459-1.605.459.115 4.932 2.18 5.506-.688 1.377-1.262 2.753-1.835 4.13-.115-1.033-.574-2.18-1.377-2.868-1.032-1.033-1.95-.344-1.835 1.032.23 1.262 1.147 3.212 2.409 3.786a45.565 45.565 0 0 0-1.721 5.62v-.803c-.115-1.147-.574-2.18-1.377-2.982-1.032-1.033-1.95-.344-1.835 1.032.23 1.491 1.491 3.67 2.868 4.015-1.491 6.194-2.18 12.044-2.524 18.238-.573-.459-1.147-.918-1.72-1.491a154.193 154.193 0 0 0-3.097-11.012c2.064-.573 4.244-5.506 2.523-6.194-1.491-.688-2.867 2.409-3.326 4.015-.46-1.491-1.033-2.868-1.606-4.244 2.18-.689 3.67-5.965 1.72-6.653-.458-.115-.917 0-1.376.344-.803.688-1.262 2.638-1.491 3.67-.459-1.147-1.033-2.294-1.606-3.44 2.065-.918 3.441-5.85 1.491-6.54-.459-.114-.918 0-1.376.345-.803.688-1.377 2.638-1.492 3.785-.229-.459-.573-1.032-.803-1.49.115-.804 0-1.721 0-2.41-.114-1.261-.344-2.294-.917-2.982-.803-1.032-2.18-1.491-3.327-1.147-1.261.459-1.95 1.835-1.72 3.212.114 1.032.803 2.064 1.835 2.867.688.46 1.835 1.147 2.753 1.377.459.918 1.032 1.835 1.491 2.753-.688-.46-2.065-1.606-4.359-1.262-.458.115-.917.23-1.032.688-.573 1.606 4.244 2.753 5.735 1.377a111.423 111.423 0 0 1 2.41 5.162c-.345-.23-.574-.46-.918-.574-1.033-.574-2.18-.803-3.212-.574-1.491.23-1.377 1.377-.23 2.065 1.147.574 3.556.918 4.818 0 .688 1.72 1.376 3.556 2.065 5.391-.23-.114-.46-.344-.574-.459-.803-.573-1.835-.802-2.982-.688-.459 0-.918.23-1.147.574-.803 1.49 3.326 2.753 5.047 1.606.917 2.638 1.606 5.276 2.294 7.914-1.491-1.95-2.753-4.13-3.9-6.309-.344.345-.23 1.033 0 1.836-.23-.344-.574-.803-.803-1.147.23 3.097 3.326 7.111 5.735 9.52.23 1.033.46 1.95.688 2.983-6.423-8.26-13.65-6.424-17.435-8.603-.917-.574-1.95.459-1.376 1.376 2.982 5.047 6.309 8.603 9.98 10.553 3.44 1.836 7.57 2.294 9.75 1.72a163.35 163.35 0 0 1 1.376 10.095v1.606a16.674 16.674 0 0 0-2.18-2.639c-3.212-4.129-6.538-5.047-11.126-5.964Zm36.59 10.438c-3.096 2.409-5.62 6.424-16.287 6.08 3.211-2.868 4.473-7.686 16.288-6.08Zm-.458-11.7c-2.18 1.835-4.13 4.359-11.585 4.13.459-.23 3.441-5.162 11.585-4.13ZM50.127 3.671c-.344.573-1.032.917-2.18 1.72.115-.459.345-1.147.574-1.835.688-1.835 2.524-1.147 1.606.115ZM26.268 46.456c-2.867-1.606-5.62-4.359-8.144-8.144 1.262.344 2.524.573 2.868.688 6.423 1.262 9.061 2.409 13.764 9.062-2.523.344-5.735-.115-8.488-1.606Zm12.388-1.491c.574.23 1.148.344 1.721.573-.574.574-1.147 1.147-1.72 1.606v-2.18Zm.345 26.267c-.115-11.814-.918-5.735-.689-21.68 1.606-1.26 2.983-2.523 4.015-3.784.574.114 2.065.688 4.818.803C44.85 55.288 42.098 63.89 39 71.232Zm15.944-53.338c.803-2.867 2.982-.459 1.376 2.065-.917 1.491-1.376 1.491-1.491 1.491-.344-.344-.344-1.95.115-3.556Zm-7.227 26.727c-1.376 0-2.867 0-4.244-.23.574-.803 1.032-1.72 1.491-2.638.574 1.147 1.606 2.523 2.753 2.868Zm-3.326-8.374c-.344 2.638-.23 4.474-2.639 7.685a12.209 12.209 0 0 1-2.867-1.032c.688-2.982 2.982-4.932 5.506-6.653ZM20.418 9.406c-.114-.574.23-1.147.688-1.377.46-.114 1.033.115 1.377.574.688.803.688 2.18.688 3.326-.573-.229-1.147-.573-1.491-.917-.688-.46-1.147-1.033-1.262-1.606Zm16.288 34.641c0 1.147-.114 2.409-.114 3.67-.23-1.376-.574-2.752-.803-4.129.344.115.344.23.917.46Zm-.458 19.844c-2.41.344-5.621-.23-8.374-1.606-3.67-1.95-6.423-5.39-8.259-8.144.689.23 1.377.344 2.41.574 5.734 1.147 9.405 2.064 13.764 8.603.114 0 .344.344.459.573Z"/></svg>