<svg xmlns="http://www.w3.org/2000/svg" width="114" height="114" fill="none"><path fill="#F5F5F5" d="M94.382 75.682c.4-.092.856-.436 1.529-1.182 2.72-3.014 5.069-7.033 6.506-10.815 2.301-6.054 2.01-13.307-2.89-17.45v-1.832c0-2.897-2.273-5.318-5.171-5.512a180.364 180.364 0 0 0-5.475-.282c-1.453-2.016-3.058-3.641-5.4-4.992a8.418 8.418 0 0 0-1.816-4.419c3.093-3.952 4.074-9.463 2.562-14.25.034-.085.078-.164.091-.259.334-2.505-1.404-4.673-3.181-4.937-1.421-.216-2.788.213-4.048.707-8.901 3.49-16.143 10.335-22.539 16.406-1.715-.872-3.875-1.185-6.194-.715C39.083 14.72 35.349 8.187 29.029 6.717c-1.351-.314-3.34-.427-4.734.027-1.023.333-2.128 1.257-2.867 2.278a1.127 1.127 0 0 0-.527.433c-1.779 2.8-3.741 6.577-3.12 10.952.427 3.086 1.984 5.97 4.282 8.046-2.95 1.957-4.001 6.382-1.004 10.258a312.868 312.868 0 0 1-6.324-.314c-2.437-.153-4.542 1.727-4.542 4.22V54.05a4.261 4.261 0 0 0 4.257 4.256h.202c-.116.477-.02-2.59-.054 38.117 0 4.461 3.071 8.59 10.812 9.694 4.061.58 8.162.79 12.256.992 4.008.198 8.037.69 12.05.309 1.495-.142 2.981-.409 4.486-.439 1.48-.03 2.865.438 4.34.53 3.077.191 6.125-.463 9.178-.734 8.44-.748 7.587.899 23.443-1.735 1.44-.239 2.954-.51 4.083-1.435 2.193-1.798.989-5.047-1.049-5.391.327-1.568.12-.695.185-22.532ZM57.795 36.023c.19.071.377.146.567.218-.12.22-.186.472-.142.738 3.211 19.448 5.048 46.147 3.381 66.945-.021.381-.075.615-.303.88-1.513.798-3.236-.684-5.5-.958-2.047-.218-3.883.594-5.584.98-1.042.229-2.462.178-3.288-.622.443-7.887 3.789-30.89-2.08-65.006 4.173 3.257 10.81 2.331 12.95-3.175Zm22.756 4.72c2.36.017 4.715.07 7.026.158.517.84.978 1.747 1.395 2.706-3.677 1.466-5.59 4.93-5.682 8.557-3.975-2.265-9.52-.897-12.365 3.793H63.01a274.044 274.044 0 0 0-1.75-14.679c4.794.624 7.901.663 11.04.47 2.857.796 5.896.779 8.252-1.005Zm9.288 5.039c.38 1.118.704 2.32.986 3.624-1.309 1.585.355 3.775 2.25 3.148 1.954-.654 2.054-3.581-.069-4.134a34.63 34.63 0 0 0-.863-3.14c4.828-.255 9.578 4.74 7.576 14.287A30.257 30.257 0 0 1 93.513 72.5c-.916-.106-3.252-.573-4.217-.763-9.283-1.826-11.116-1.474-13.65-3.035-2.098-1.293-3.6-3.602-3.92-6.029-.88-6.588 5.976-11.358 10.689-8.3 1.424.901 3.25-.112 3.216-1.797-.056-2.758 1.272-5.625 4.208-6.793Zm-25.825 57.187c.946-12.73.715-26.725-.719-43.718 1.907.696 4.431.548 6.184.517-.783 4.49 1.386 8.739 4.939 10.927 3.025 1.865 5.13 1.515 14.426 3.34 1.207.237 2.288.448 3.195.605v21.785a6.432 6.432 0 0 1-6.43 6.424l-21.595.12Zm-3.13-64.098c-.091-.588-.177-1.177-.273-1.763 1.578.64 2.017.84 5.54 2.302-1.635-.1-3.36-.276-5.266-.54Zm-33.47 20.315 17.687.622a233.256 233.256 0 0 1-.4 43.037H23.363a6.43 6.43 0 0 1-6.424-6.422V58.606c2.67.755 6.943.456 10.474.58ZM97.17 44.258c-1.73-1.07-3.655-1.546-5.904-1.238a24.954 24.954 0 0 0-.918-1.99c1.287.06 2.582.108 3.847.198a3.195 3.195 0 0 1 2.975 3.03ZM85.8 38.501a235.581 235.581 0 0 0-3.303-.073c.47-.884.66-1.473.816-2.155.899.63 1.733 1.383 2.486 2.228Zm-6.016-10.752a1.163 1.163 0 0 0-.872.116 1.563 1.563 0 0 1-1.51-.012 1.17 1.17 0 1 0-1.196 2.013c.935.557 2.028.691 3.177.313 3.799 3.69 1.683 12.308-7.481 8.984-4.464-1.62-8.728-3.657-13.563-5.44.14-1.673-.24-3.116-1.011-4.348a106.098 106.098 0 0 0 24.805-13.252c1.082 3.958.188 8.398-2.35 11.626ZM77.943 12.64c1.108-.433 2.015-.692 2.85-.572.327.05.895.56 1.123 1.328a103.76 103.76 0 0 1-23.503 13.04c5.68-5.329 12.06-10.866 19.53-13.796Zm-21.9 20.547a5.731 5.731 0 0 1-.237 1.507c-1.863 6.352-11.317 4.52-11.674-.963-.792-6.509 11.895-7.811 11.91-.544ZM25.02 8.972c.91-.297 2.472-.208 3.477.026 5.23 1.216 8.74 7.056 17.487 17.944-.043.02-.088.039-.13.06-4.531-2.284-8.852-5.244-12.562-7.867-3.57-2.51-7.237-5.264-9.862-8.894.451-.562 1.102-1.11 1.59-1.27Zm-.496 20.987c2.237 1.86 5.59.067 4.362-1.513a1.17 1.17 0 0 0-1.644-.203c-.377.293-1.113.177-1.38-.237a1.165 1.165 0 0 0-1.225-.508C22.2 25.78 20.51 23.054 20.1 20.082c-.415-2.925.634-5.634 1.876-7.864 2.772 3.62 6.567 6.44 9.968 8.831 3.475 2.458 7.495 5.193 11.755 7.455-2.281 2.235-2.49 5.534-.98 8.225-.949.548-1.916.962-2.93 1.388-2.852 1.198-5.17 2.61-9.01 2.885-2.59.16-3.592-.4-5.683-1.724-.185-.103-.215-.19-.428-.307-1.788-1.303-2.898-3.037-3.052-4.773-.16-1.786 1.049-3.956 2.909-4.24Zm-11.99 12.657c0-1.116.94-1.953 2.05-1.882 2.851.173 5.83.308 9.116.418 2.875 1.948 4.58 2.358 7.236 2.187 4.381-.313 7.166-1.973 9.76-3.062.598-.252 1.207-.51 1.82-.8a230.483 230.483 0 0 1 2.242 16.487h-30.31a1.916 1.916 0 0 1-1.913-1.914V42.616Z"/><path fill="#F5F5F5" d="M53.517 83.052a1.17 1.17 0 1 0 2.337.16 127.98 127.98 0 0 0-.398-22.061 1.183 1.183 0 0 0-1.287-1.042 1.173 1.173 0 0 0-1.043 1.288 125.42 125.42 0 0 1 .392 21.655ZM52.85 35.914c2.468-1.974 1.576-6.325-.406-5.414-.587.27-.845.965-.575 1.553.305.664.088 1.575-.482 2.03a1.172 1.172 0 0 0 1.464 1.83Z"/></svg>
