<svg width="401" height="401" viewBox="0 0 401 401" fill="none" xmlns="http://www.w3.org/2000/svg">
<g clip-path="url(#clip0_227_1910)">
<path d="M160.798 320.681C157.109 320.681 154.117 323.673 154.117 327.365V334.046C154.069 345.192 160.973 355.186 171.41 359.089C181.85 362.992 193.618 359.979 200.895 351.54C208.172 359.979 219.937 362.992 230.377 359.089C240.817 355.186 247.718 345.192 247.669 334.046V327.365C247.669 323.673 244.677 320.681 240.988 320.681C237.296 320.681 234.305 323.673 234.305 327.365V334.046C234.305 341.427 228.321 347.41 220.94 347.41C213.559 347.41 207.575 341.427 207.575 334.046V312.743C209.928 311.877 212.054 310.486 213.791 308.678L223.794 297.984C227.581 294.105 228.658 288.327 226.516 283.344C223.653 277.376 217.526 273.668 210.91 273.904H190.877C184.26 273.668 178.136 277.376 175.273 283.344C173.135 288.324 174.206 294.102 177.989 297.984L188.004 308.678C189.739 310.486 191.862 311.877 194.211 312.743V334.046C194.211 341.427 188.228 347.41 180.846 347.41C173.465 347.41 167.482 341.427 167.482 334.046V327.365C167.482 323.673 164.49 320.681 160.798 320.681ZM187.521 288.691C187.601 288.379 188.601 287.268 190.877 287.268H210.91C213.189 287.268 214.186 288.379 214.036 288.85L204.033 299.541C202.161 300.893 199.634 300.893 197.762 299.541L187.521 288.691Z" fill="#A89C81"/>
<path d="M116.459 251.102C128.352 246.453 137.816 245.902 144.61 249.493C149.349 252.222 152.823 256.709 154.273 261.983C155.115 265.525 158.635 267.743 162.193 266.969C165.751 266.198 168.036 262.717 167.332 259.147C165.05 250.111 159.18 242.396 151.077 237.796C140.679 232.201 127.401 232.489 111.589 238.652C108.151 239.998 106.453 243.874 107.796 247.312C109.142 250.75 113.017 252.448 116.459 251.102Z" fill="#A89C81"/>
<path d="M232.91 267.076C234.642 267.443 236.453 267.11 237.939 266.146C239.426 265.18 240.469 263.662 240.839 261.931C242.268 256.715 245.691 252.274 250.365 249.561C257.159 245.899 266.675 246.425 278.648 251.096C282.086 252.442 285.965 250.744 287.307 247.306C288.653 243.868 286.956 239.989 283.517 238.646C267.712 232.479 254.43 232.192 244.03 237.787C235.926 242.39 230.053 250.105 227.774 259.141C227.401 260.873 227.735 262.683 228.695 264.173C229.659 265.66 231.176 266.706 232.91 267.076Z" fill="#A89C81"/>
<path d="M27.153 260.539C33.2341 260.545 39.3123 260.928 45.3475 261.68C42.206 272.151 40.5787 283.019 40.5175 293.952V294.01C34.4944 295.787 28.7497 298.397 23.4455 301.755C21.4358 303.071 20.2856 305.362 20.4325 307.76C20.5793 310.158 22.0017 312.29 24.1583 313.349C26.3148 314.407 28.8721 314.227 30.8604 312.878C34.2191 310.73 37.8256 308.993 41.6003 307.702C42.7719 315.817 45.0967 323.725 48.5074 331.182C36.134 339.295 28.2419 352.702 27.153 367.458C27.153 388.067 47.6356 400.868 80.611 400.868C95.4836 401.783 110.258 397.889 122.748 389.764C148.088 397.393 174.435 401.137 200.895 400.868C227.355 401.137 253.701 397.393 279.038 389.764C291.528 397.889 306.303 401.783 321.175 400.868C354.151 400.868 374.633 388.067 374.633 367.458C373.547 352.702 365.652 339.295 353.279 331.182C356.69 323.725 359.014 315.817 360.186 307.702C363.961 308.993 367.567 310.73 370.929 312.878C372.914 314.227 375.472 314.407 377.628 313.349C379.785 312.29 381.207 310.158 381.357 307.76C381.504 305.362 380.354 303.071 378.341 301.755C373.037 298.397 367.292 295.787 361.269 294.01V293.952C361.211 283.019 359.583 272.151 356.439 261.68C362.474 260.928 368.552 260.548 374.633 260.539C378.326 260.539 381.317 257.548 381.317 253.859C381.317 250.166 378.326 247.175 374.633 247.175C367.007 247.178 359.391 247.716 351.838 248.784C349.03 241.898 345.705 235.233 341.897 228.846C346.292 214.576 363.514 154.538 348.669 134.064C345.515 129.497 340.291 126.809 334.742 126.894C324.791 127.653 315.116 130.522 306.361 135.312C289.264 111.147 259.119 94.1696 224.757 88.7155C224.644 79.6121 223.5 70.5515 221.35 61.702C219.851 54.2871 222.601 46.652 228.483 41.8923C236.819 36.2761 250.431 44.9665 255.891 48.9585C261.673 53.2502 269.308 54.1128 275.9 51.219C282.492 48.3283 287.028 42.1217 287.781 34.9607C288.536 27.8028 285.392 20.7887 279.549 16.5857C242.873 -10.2565 216.006 2.00677 206.113 8.55291C186.279 22.6975 176.931 47.4106 182.44 71.1419C183.768 76.5623 184.539 82.1021 184.734 87.6785C147.18 91.6613 113.77 109.324 95.4408 135.266C86.7411 130.513 77.1299 127.659 67.2465 126.894C61.6884 126.809 56.4515 129.503 53.2886 134.073C38.5016 154.461 55.6378 214.325 60.0213 228.573C56.1548 235.043 52.7838 241.797 49.939 248.778C42.3895 247.713 34.7758 247.178 27.153 247.175C23.4608 247.175 20.4692 250.166 20.4692 253.859C20.4692 257.548 23.4608 260.539 27.153 260.539ZM40.5175 367.458C40.5175 352.418 59.018 334.046 80.611 334.046C102.204 334.046 120.705 352.418 120.705 367.458C120.705 377.186 111.717 382.772 100.06 385.47C100.442 383.949 100.644 382.389 100.659 380.823V367.458C100.659 363.766 97.6677 360.775 93.9755 360.775C90.2864 360.775 87.2948 363.766 87.2948 367.458V380.823C87.2948 384.512 84.3032 387.504 80.611 387.504C76.9219 387.504 73.9272 384.512 73.9272 380.823V367.458C73.9272 363.766 70.9356 360.775 67.2465 360.775C63.5544 360.775 60.5627 363.766 60.5627 367.458V380.823C60.578 382.389 60.7799 383.949 61.1623 385.47C49.5046 382.772 40.5175 377.186 40.5175 367.458ZM361.269 367.458C361.269 377.186 352.282 382.772 340.627 385.47C341.006 383.949 341.208 382.389 341.224 380.823V367.458C341.224 363.766 338.232 360.775 334.54 360.775C330.851 360.775 327.859 363.766 327.859 367.458V380.823C327.859 384.512 324.867 387.504 321.175 387.504C317.486 387.504 314.495 384.512 314.495 380.823V367.458C314.495 363.766 311.503 360.775 307.811 360.775C304.122 360.775 301.13 363.766 301.13 367.458V380.823C301.145 382.389 301.344 383.949 301.727 385.47C290.069 382.772 281.082 377.186 281.082 367.458C281.082 352.418 299.582 334.046 321.175 334.046C342.768 334.046 361.269 352.424 361.269 367.458ZM195.419 67.9606C191.127 49.6804 198.279 30.614 213.534 19.6691C222.873 13.4931 242.827 6.27094 271.66 27.3746C273.587 28.7847 274.618 31.1126 274.361 33.4894C274.107 35.8631 272.602 37.9187 270.418 38.8854C268.237 39.852 265.701 39.5767 263.774 38.1696C247.18 26.0348 232.001 23.4194 221.044 30.7884C210.503 38.6774 205.544 52.0021 208.365 64.8619C210.16 72.1819 211.179 79.6702 211.411 87.2013C207.927 86.9627 204.428 86.7976 200.895 86.7976C199.946 86.7976 199.01 86.8618 198.065 86.8802C197.824 80.4992 196.936 74.1611 195.419 67.9606ZM200.895 100.162C239.85 100.162 275.677 116.249 294.455 141.626C285.499 146.695 275.615 152.972 264.671 160.643C224.146 142.467 177.794 142.446 137.253 160.585C126.253 152.91 116.333 146.634 107.361 141.571C126.091 116.228 161.902 100.162 200.895 100.162ZM73.6611 227.396C61.4131 189.89 57.1245 151.552 64.105 141.923C64.7626 140.825 65.9709 140.185 67.2465 140.259C76.7812 141.317 85.9611 144.483 94.1193 149.524C94.1774 149.561 94.205 149.619 94.2631 149.656C94.4803 149.763 94.7036 149.858 94.9299 149.94C108.016 157.037 120.625 164.978 132.677 173.711C134.644 175.106 137.208 175.332 139.386 174.302C178.326 155.703 223.592 155.725 262.514 174.36C264.701 175.403 267.283 175.18 269.256 173.769C299.185 152.473 323.057 140.259 334.742 140.259C336.002 140.188 337.198 140.825 337.847 141.907C344.864 151.586 340.557 190.052 328.254 227.656C327.636 229.54 327.887 231.599 328.939 233.278C332.53 239.038 335.687 245.055 338.391 251.277C323.659 254.354 309.649 260.221 297.12 268.56C294.241 270.793 293.685 274.919 295.866 277.838C298.047 280.756 302.164 281.389 305.119 279.26C316.728 271.812 329.633 266.614 343.163 263.938C345.864 272.588 347.412 281.56 347.767 290.618C336.791 288.547 325.66 287.427 314.495 287.268C310.802 287.268 307.811 290.26 307.811 293.952C307.811 297.641 310.802 300.633 314.495 300.633C325.501 300.829 336.47 302 347.268 304.132C346.384 311.232 344.466 318.164 341.575 324.71C335.1 322.061 328.171 320.693 321.175 320.681C291.066 320.681 267.717 345.826 267.717 367.458C267.693 371.285 268.479 375.075 270.021 378.581C247.498 384.714 224.237 387.718 200.895 387.504C177.552 387.718 154.292 384.714 131.766 378.581C133.307 375.075 134.094 371.285 134.069 367.458C134.069 345.826 110.72 320.681 80.611 320.681C73.6152 320.693 66.6867 322.061 60.2109 324.71C57.3202 318.164 55.4023 311.232 54.5182 304.132C65.3194 302 76.2857 300.829 87.2948 300.633C90.9839 300.633 93.9755 297.641 93.9755 293.952C93.9755 290.26 90.9839 287.268 87.2948 287.268C76.1266 287.427 64.9921 288.547 54.0196 290.618C54.3714 281.563 55.9192 272.592 58.6203 263.941C72.15 266.614 85.0557 271.812 96.6643 279.26C99.6193 281.386 103.737 280.756 105.918 277.838C108.102 274.922 107.545 270.793 104.667 268.56C92.134 260.218 78.1241 254.351 63.3861 251.274C66.1239 244.957 69.3296 238.851 72.979 233.015C74.0282 231.336 74.279 229.277 73.6611 227.396Z" fill="#A89C81"/>
</g>
<defs>
<clipPath id="clip0_227_1910">
<rect width="401" height="401" fill="white"/>
</clipPath>
</defs>
</svg>
