<svg xmlns="http://www.w3.org/2000/svg" width="186" height="133" fill="none"><path fill="#939880" d="M4.194 87.33c2.407-1.516 5.688-3.287 8.213-4.572.792-.404.51.004 1.06-.266 1.08-.53 1.993-1.178 3.065-1.686.357-.167.102.368.473.186 2.029-1.003 3.826-2.142 5.843-3.226C32.764 72.44 42.4 67.027 52.365 61.498c3.294-1.828 7.39-3.816 10.708-5.857.385-.237.005-.36.068-.423.987-.99.888-.249 1.7-.619 3.204-1.461 6.593-3.35 9.483-5.109 1.22-.744-.317-.55 1.1-.97.1-.031-.066.421.295.256.82-.376 2.267-1.253 2.877-1.566 1.184-.608 1.384-.724 2.483-1.335 1.49-.825 3.383-1.704 4.945-2.654.34-.208-.276-.232.252-.588.53-.357 1.998-1.142 2.52-1.344.524-.204.44.132.554.134.962.025 2.32-1.497 2.526-1.63 3.826-2.435 7.418-3.958 11.152-5.975 2.816-1.521 5.829-3.273 8.545-4.681a184.504 184.504 0 0 1 4.616-2.293c1.568-.761 2.998-1.45 4.635-2.292.336-.172-.229-.31.181-.521 4.334-2.227 8.72-4.304 13.235-6.097.449-.177.023.382.479.224 2.827-1.006 7.393-2.284 8.452-4.287 1.897-.74 4.169-1.602 5.977-1.998 1.136-.243.217.502 1.51-.164.29-.148-.216-.293.226-.492 1.866-.839 3.975-1.502 5.848-2.323.37-.164.173-.396.264-.48.82-.722 2.578-.584 2.928-.643 2.668-.474 4.556-1.185 6.974-1.844.571-.154-.201-.337.34-.497 1.961-.588 4.123-1.077 5.832-1.618.859-.292 1.7-.52 2.531-.714.638-.144.152.333.459.281 1.348-.22 1.487-.885 2.789-1.06.275-.037.187.269.242.287.863.29 1.385-.51 1.581-.565 1.055-.303 1.97-.394 2.928-.4.069-.005.147-.01.253-.004.061.012.345-.02.759.24.219.114.589.592.611.976a1.336 1.336 0 0 1-.008.414c-.015.087-.036.16-.058.223-.043.125-.09.21-.132.28-.033.052-.053.079-.077.112-.097.126-.158.18-.208.226a2.296 2.296 0 0 1-.14.117c-.173.132-.301.21-.437.296-.266.164-.538.325-.79.478-.523.32-1.047.666-1.581 1.104-.22.182.506.074-.128.57a524.733 524.733 0 0 1-11.822 8.96c-.432.318-.864.63-1.296.936-.683.484-.377-.093-.439-.086-.986.13-1.003 1.005-1.203 1.193-1.584 1.464-3.527 2.214-4.199 3.737a184.813 184.813 0 0 0-8.84 6.638c-4.068 3.315-8.101 6.826-12.353 10.002-.092.07-.159-.318-.342-.177-2.175 1.676-1.429 1.712-2.365 3.401-.222.412-1.791.786-1.91.817-.468.142-.459-.536-.597-.467-1.127.589.11 1.693-1.121 2.805-.04.033-.081-.34-.205-.267-.387.222-.637.61-1.016.813-.878.47-1.693.128-2.472 1.47-.098.171.741.67-.391 1.645-.448.385-2.377 2.178-2.968 2.643-.582.456-.416-.109-.463-.082-1.723 1.049-1.287.421-2.424.67-1.124.242.03 1.084-.16 1.474-.193.392-1.488 1.15-1.824 1.308-.34.16-.144-.284-.421-.114-1.84 1.142-.208 1.147-.561 1.783-.832 1.502-2.473 1.62-3.641 2.585-.317.261.087.205-.16.47-.972 1.036-1.837 1.41-2.804 2.743-.159.219-.686 1.587-1.614 1.841-.134.036-.065-.389-.546-.008-.262.207-.591.485-.937.792-.609.542-1.236 1.157-1.638 1.641-.458.555.427.264-.305.821-.325.25.019-.463-.575.02-.586.468-1.902 1.9-2.376 2.454-.482.556.029.469.006.528-.141.343-.932 1.505-1.012 1.604-4.089 4.706-7.066 9.573-11.055 14.5-.332.371.142.366.094.426-.237.29-.418.44-.556.504-.487.213-.467-.648-1.288-.2.597.389.017.77-.794 1.612-.392.406.015.399-.004.454-.349.864-1.138.856-1.32.874-.675.067-.821.813-1.28.857-.454.045-.056-.81-.897-.083-.077.392.975.347.396.978-2.179 2.4-7.199 5.699-9.251 7.22-.69.516-1.221.922-1.662 1.263-.269.209-.425.329-.604.471l-.025.02-.007.005.02-.018c.02-.031.011.029.142-.2.018-.072.146-.222-.01-.595a.696.696 0 0 0-.394-.339c-.129-.04-.211-.036-.269-.032-.21.028-.21.056-.246.067-.049.026-.054.03-.063.036-.014.01-.007.005-.01.006l.036-.024.142-.102.278-.202c.143-.102.34-.243.528-.374.164-.112.352-.24.58-.392 2.228-1.47 1.16-1.27 2.382-2.457 1.193-1.163 1.262.261 1.604.324.346.06.408-.313.716-.367.314-.06-.085.452.493.09.6-.382 1.837-1.856 1.883-2.219.08-.759-.97-.722.645-1.649.094-.053-.002.403.347.186 2.709-1.686 5.417-3.624 8.144-5.3.377-.232.255.279.477.147C98.137 85.4 97.03 85.47 97.85 84.1c.229.894 1.187.863 2.847-.285.997-.688.612-.879 1.109-1.545.148-.199 1.001-.471 1.03-.706.097-.767-.94-.847.931-1.809.083-.041.02.385.292.223 1.762-1.04 1.627-1.681 3.43-2.967 1.41-1.006 4.209-2.382 5.909-3.376.49.837 1.924-.322 2.237-1.295 1.104-.644 2.282-1.394 3.396-1.933.39-.19.285.196.347.195.811-.004 1.041-.6 1.23-.877a.475.475 0 0 1 .105-.116c2.525-1.692 4.945-2.307 7.418-3.852.089-.054-.015-.744.891-.573.058.015-.718.647.556.175 1.275-.475 3.791-.967 5.506-1.774.411-.199 1.393-1.037 2.398-.84.134.027.049.247.247.31.626.202.792-.536 1.568-.111.778.427 2.196.568 3.972-.077.061-.02.424-.615 1.017-.672.938-.09 2.298-.083 3.27-.05.475.024.194-.326.277-.328h.03c.868-.001 1.772.452 2.17 1.192.41.72.458 1.5.431 2.205-.081 1.44-.497 2.811-1.022 4.425-.193.612-.311 2.446-1.084 3.467-.841 1.092-1.872-.748-2.622 2.171-.316 1.183 1.001 3.425-.896 5.011-1.507 4.006-3.718 7.328-5.237 11.359-.07.183.19.985-.013 1.387-.303.598-.71.814-.937 1.242-.948 1.768-1.543 3.533-2.419 5.266-.331.656-.473.302-.869 1.088-.397.793-.311 1.47-.988 2.471-.512.757-1.579 1.235-2.172 2.283.656.362.293 1.092-.146 2.497-.084.27.279.108.252.242-.108.546-.512.905-.595 1.43-.021.128.209.241.205.351-.022.942-1.137 1.996-1.329 2.177-.489.464-.598.857-.744 1.244a2.26 2.26 0 0 1-.277.586c-.415.613-.175-.456-.58.285-.837 1.528-1.694 3.592-2.494 5.151-.318.623.201.352.162.445-.585 1.348-1.644 2.408-1.534 3.457-2.027-.161-.322.854-1.948 2.284l-.01.007.01-.013c-.115.073-.641-.106-.688-.494l.032-.041a.515.515 0 0 1 .069-.284c.297-.545 1.072-1.121 1.392-1.933.086-.195.035-1.567.063-1.718.285-1.208 1.441-.78 1.537-.804 1.012-.315.897-1.989.999-2.349.491-1.668 1.225-2.953 1.605-4.362.103-.38.041-.663-.043-.923l.023-.054c-.109-.379-.274-.69-.076-1.09 1.115-2.248 2.51-2.559 2.619-5.112.026-.547-.994-.47.412-1.812.089-.086 1.242-1.026 1.21-1.899-.004-.11-.239-.219-.203-.344.246-.842.679-1.27.995-2.157.321-.896.672-1.965 1.22-2.898.329-.56 1.122-1.093 1.362-1.317.688-.64.593-1.725 1.197-2.027.609-.309.709.928 1.576-.248-.583-.34-1.151-.751-1.722-1.122 1.382-2.803 2.913-5.474 4.215-8.313.161-.353-.334-.148-.171-.53.683-1.592 1.567-2.892 2.203-4.564.504-1.324.756-2.864 1.214-4.229 1.05-.516 1.606-2.616 2.155-4.012.2-.51.381-.407.562-.744.661-1.274-.19-.848-.182-1.24-.033-1.644 1.562-1.453 1.714-3.244.003-.048-.184-.385-.406-.615-.221-.263-.47-.39-.5-.41-.208-.156-.125-.09-.017-.157.112-.044.271-.108.277-.164.009-.043.095-.015.108-.054.012-.034-.058-.1-.251-.12-.295-.029-.778 0-1.31.116-.419.087-1.388.674-2.27.386-.119-.038-.089-.315-.179-.32-1.655-.048-1.581.821-2.435 1.262-.855.444-2.369.177-2.707.086-.849-.25.539-.32.57-.367.371-.605-.651-.295-1.458-.137-.314-.786-1.428-.444-.831.17.069.064.66-.168.831-.17-.498.967-1.649 1.376-3.197 1.051-.725-.146-.271-.748-2.115.03-.827.36-.319.792-1 1.204-1.564.947-3.928 1.353-5.578 2.235-.597.319.133.319-.27.547-1.055.605-2.125.892-3.14 1.587-.091.063.304.221-.026.409l-.409.233c-2.367 1.352-4.56 2.458-7.034 4.005-1.261.786-3.413 2.39-4.723 3.213-2.278 1.422-5.288 2.882-7.117 4.284-1.195.914-.736 1-1.136 1.55-.769 1.062-3.008 1.68-3.326 1.757-.008 0 1.005-.806.345-.55-.534-.055-.334.54-.345.55-.205.048-2.357 1.479-2.735 1.828-.206.188.102.353-.009.446a96.42 96.42 0 0 1-8.298 6.278c-.056.033-.186-.305-.312-.225-1.723 1.076-2.53 2.208-3.71 3.405-1.188 1.202-2.29 1.925-3.454 2.05a9.11 9.11 0 0 1-.885.659 2.204 2.204 0 0 1-.156.1c-.053.029-.093.062-.307.157-.13.043-.234.136-.813.197-.29.005-.833.068-1.619-.448-.826-.522-1.15-1.718-1.066-2.226.05-.559.184-.79.263-.963.085-.167.147-.256.197-.327.098-.137.151-.192.193-.239.08-.087.114-.116.142-.144.054-.05.075-.066.095-.084.032-.027.077-.063.07-.056l.046-.034c.057-.04.162-.118.229-.164l.422-.282c.71-.46 1.44-.873 1.957-1.161.923-.516.619-1.14.683-1.208 1.988-2.1 3.514-2.801 5.826-4.615 1.102-.86 3.143-2.717 4.205-3.769.842-.83 1.473-1.191 2.192-2.006.096-.11-.219-.229-.194-.268.2-.348.342-.49.455-.523.215-.049.344.343.51.306.893-.215 1.462-.433 2.184-1.742.173-.308-.108-1.739.197-2.298.404-.733.543-.257.963-1.052.038-.07-.17-.18.148-.642 1.466-2.143 3.24-4.539 4.942-6.787.234-.309-.368-.14-.03-.594 1.57-2.105 3.479-4.296 5.349-6.02.466-.428.384.04.535-.006.903-.271 1.245-1.59 1.372-1.735a28.923 28.923 0 0 1 1.526-1.63c2.497-2.477 4.964-4.288 7.578-7.09.163-.178 1.075-2.042 2.123-2.162.073-.01 1.137-.126 1.381-.955.015-.052-.594.064.098-.536.706-.612 1.626-1.77 2.817-2.377.375-.19 1.497-.356 2.039-1.549.03-.077.613-2.183 1.638-2.04.171.022.643.733 1.418-.56.145-.247-.348-.052.105-.624.682-.868 1.919-1.686 2.68-2.88.133-.212.485-1.301 1.386-1.527.14-.034.15.336.488.075 1.61-1.245 3.065-2.796 4.734-4.013.6-.44.621.15 1.271-.261.642-.404 1.873-1.33 2.34-2.015.461-.678-.685-.642.192-1.484 2.704-2.59 5.593-4.869 8.636-7.165 1.186-.884 2.376-1.75 3.551-2.63.619-.461-.047-.28.855-.973 3.248-2.491 8.589-6.753 11.687-8.645.09-.055.179-.108.265-.158 2.533-1.467-.094 1.073 1.746-.172.884-.598 1.264-1.977 1.457-2.164 1.816-1.781 3.432-2.566 5.171-4.047.355-.302-.214-.297.087-.548 1.059-.887 2.294-1.63 3.315-2.432.463-.365.217-.507.651-.809.393-.275.769-.527 1.118-.748.166-.105.345-.218.457-.278.05-.023.11-.065.026.04l-.134.167a3.313 3.313 0 0 0-.162.226c-.036.056-.058.09-.119.194a3.458 3.458 0 0 0-.426 1.265c-.053.273-.069 1.238.324 1.987 1.025 1.739 1.892 1.681 2.36 1.86.543.104.608.07.771.074.139-.004.235-.015.309-.026-.218-.02-.491-.033-.774-.05-.108-.004.53-.438-.322-.31-1.399.221-3.269.384-4.828 1.053-.461.202-.323.776-1.442.674-.23-.018-.192-.793-1.149.168-.064.066-.379.344-.761.64-.871.548-1.888.993-2.62.866-.313-.06-1.182-.435-1.773-.182-.077.035.33.259-.156.42-1.758.576-3.558 1.034-5.307 1.66-.472.17.34.273-.371.518-1.901.657-4.314 1.354-6.223 1.908-.696.201-.314-.223-.373-.234-.972-.176-1.238.617-1.483.746-1.606.821-2.958.998-4.447 1.66-.418.184-.003.36-.077.418-.786.598-.333-.181-.899-.027-1.59.433-3.313 1.157-4.825 1.83-.559.25.217.32-.288.54-2.984 1.317-6.099 2.65-9.099 3.803-.555.212-.332-.198-.471-.204-.96-.052-1.88 1.047-2.118 1.223-1.066.791-1.64.789-2.698 1.343-4.013 2.11-8.828 4.438-13.078 6.54-1.1.543-2.219 1.098-3.222 1.6-6.327 3.17-11.272 5.542-17.188 8.857-.375.21.182.329-.136.513-4.15 2.377-8.338 4.532-12.467 6.961-.342.2.329.23-.215.562a36.885 36.885 0 0 1-3.742 2.006c-.58.263.014-.417-.566-.147a41.39 41.39 0 0 0-4.082 2.202c-.557.342.478.173-.259.593-5.03 2.878-9.95 5.743-15.27 8.24-.365.172-1.035-.29-1.71.257.045.209.167.415.25.618-7.265 4.283-14.647 8.232-21.997 12.424-.31.177.419.205-.181.55-3.47 1.994-6.777 4.028-10.516 5.743-.37.17-.532-.525-1.516.163-.173.122-1.69 1.104-2.019 1.466-.043.051.4.163-.097.461a145.982 145.982 0 0 1-9.007 4.96c-.487.246-.156-.339-.504-.167-2.469 1.222-4.924 2.943-7.352 3.993-1.624.701-1.356-.133-2.453-.165-.155-.004-1.104.53-1.32.268-.55-.66-.558-1.725-1.197-2.396-.137-.145-1.293.767-.781-.072.036-.057.872-.722 1.018-.99.101-.186-.353-.318-.103-.625s.744-.263 1.192-.713c.446-.453.018-.654 1.053-1.307Zm79.009 6.383c.958-.344.322-1.367-.313-.496-.03.043.264.514.313.496Zm57.261-6.24c1.026-.924.689-2.03-.058-1.403-.751.631-.252 1.68.058 1.403Zm-5.35 11.973c1.015-1.147-.412-2.093-.789-.522-.022.091.73.59.789.522ZM7.997 90.85a6.972 6.972 0 0 0-.713.395c-.17.538 1.2-.22.713-.395Zm121.941 20.56c.4-.324.716-1.644.217-1.241-.403.324-.715 1.646-.217 1.241ZM118.2 57.963c.023.003.444-.373.367-.439-.25-.21-.759.397-.367.44Zm1.313 72.853c1.529-2.911 3.699-3.959 1.927-.917-.318.557.234-1.432-.251-.766-.892 1.232-.545 2.514-1.654 3.675-.199.207-.113-1.828-.021-1.998l-.001.006ZM84.532 94.492c.024.002.642-.472.646-.496.09-.558-1.15.393-.646.496Zm58.323-58.058c.049 0 1.432-1.17 1.45-1.226.298-1.087-2.482 1.262-1.45 1.226ZM113.438 73.64c.526-.782 1.352-1.347 2.194-1.3-.749.43-1.452.862-2.194 1.3Z"/></svg>