<svg xmlns="http://www.w3.org/2000/svg" width="106" height="106" fill="none"><path fill="#A89C81" d="M2.65 91.035c3.897 2.65 8.573 3.274 13.094 3.274 3.897 0 8.885-.468 12.782-.935 10.289-1.248 12.627-.936 18.394 0 8.106 1.247 10.289 1.09 17.46-.936 4.208-1.247 8.26-2.338 12.002-1.091 2.027.624 3.897 1.87 6.235 2.338 7.015 1.403 13.718-5.767 19.486-2.962.779.468 1.87-.311 1.559-1.403-.312-2.494-5.456-8.573-12.627-10.132-.312-1.715-.156-3.43.468-4.988 1.403-.312 2.806-.624 4.053-1.091 1.87-.468 3.74-1.091 6.235-2.494.935-.468.779-1.715-.156-2.183-.935-1.09-4.832-6.858-5.612-8.106 2.65.78 3.274 1.56 4.053.78.312-.312.468-.78.312-1.247-1.559-4.209-4.677-9.197-6.235-11.38l2.026.312c.936.156 1.715-.935 1.091-1.87-2.338-3.742-5.611-7.483-7.95-9.821-.467-.468-1.403-.468-1.714 0-2.962 3.741-5.456 6.391-8.574 10.132-.78.936.156 2.183 1.247 1.87.624-.31 1.403-.31 2.338-.31-2.806 3.896-6.235 8.26-8.729 12.158-.156.312-.156.623-.156.935-.156.468-.156.936.312 1.247.623.468 1.247.156 4.52-.78-3.74 4.21-2.805 3.119-6.235 6.86-1.559 1.714-1.247 2.806.78 3.585 3.429 1.247 6.858 2.026 10.6 2.182.156 1.56.311 2.806.155 4.21-1.558.311-3.117.779-4.676 1.402-5.144-5.456-11.38-10.444-19.641-11.38-.624-1.558-.78-3.117-.78-4.676 2.339-.467 4.521-1.247 6.703-2.338 2.183-.78 4.365-1.559 7.483-3.43.935-.467.78-1.87-.312-2.182-1.403-1.247-7.794-9.82-9.197-11.69.467 0 .78.155 1.247.31 2.806.624 3.585 2.807 4.832 1.716.468-.312.624-.936.312-1.403-2.494-5.924-5.768-11.38-9.509-16.368.935.312 1.87.935 2.65 1.559.935.78 2.183-.312 1.715-1.403-3.43-7.95-7.95-12.315-11.068-16.524-.467-.623-1.403-.78-1.87-.156-3.586 4.677-8.106 10.756-12.627 17.615-.935 1.403.156 3.118 2.494 1.87 5.3-2.805 4.52-2.337 4.833-2.493-1.092 2.805-.78.623-11.847 18.394-.156.156-.156.467-.156.623-.156.624-.156 1.247.935 1.715.624.312.78 0 6.859-2.338-1.091 1.247-7.17 8.885-8.418 10.444-1.559-1.87-3.117-3.897-3.585-4.365a17.46 17.46 0 0 1 3.585.935c.935.312 1.87-.779 1.403-1.558-2.182-4.521-6.547-9.977-8.262-12.003.78 0 1.715 0 2.495.156.935 0 1.558-1.092.935-1.871-2.806-3.43-6.235-6.859-9.041-9.353-.312-1.403-2.495-1.247-2.65 0v.623c-1.091 1.715-5.456 7.327-8.106 10.912-.624.936.312 2.183 1.403 1.715.78-.312 1.714-.468 2.806-.623-2.494 4.676-6.08 9.82-8.418 14.497a.994.994 0 0 0 0 .935c.312.467 1.403.78 2.338.467 1.091-.311 2.183-.623 3.274-1.09-.468.467-5.3 7.014-6.391 9.04-.156.312-.156.624-.156.936-.156.312-.156.78-.156 1.091.312.78 1.247.935 2.182 1.091 3.897.312 7.794.468 11.535.156.468 1.715.468 3.585.468 5.456-7.326 2.026-12.315 7.482-17.303 13.094-.312.468-.312.935-.156 1.403.156.312.312.624.624.935Zm83.553-43.023c.467-.78-.156-1.87-1.091-1.715h-2.027c2.027-2.338 3.741-4.209 5.768-6.703 1.559 1.87 3.585 4.053 5.3 6.391-.156 0-3.118-.467-2.962-.467-.624-.156-1.247.311-1.247.935-.156.623.312 1.247.935 1.247 1.403.468 5.924 8.418 6.703 10.288-1.091-.312-2.338-.623-3.585-.78-.936 0-1.559 1.092-.936 1.871.468.624 4.677 7.171 6.703 9.665-8.261 3.741-16.055 3.118-24.473.78.468-.624 8.418-9.51 8.573-9.51 1.403-.467.624-2.65-.779-2.182-1.247.468-3.273.936-4.832 1.403 2.338-3.585 5.611-7.638 7.95-11.223Zm.156 26.656c.935 0 1.87-.156 2.806-.312-.312 1.403-.468 2.806-.312 4.209-.936 0-.936-.156-2.494 0 .156-1.247.156-2.494 0-3.897Zm-28.994-5.924c-.624 0-1.715 0-3.742.312.156-1.559.156-2.806 0-4.209.156 0 .936 0 2.962-.312 0 1.403.312 2.806.78 4.21ZM35.697 79.812c-2.494-2.338-5.144-3.897-8.262-4.52-.623-1.871-1.091-3.898-.935-6.08a26.532 26.532 0 0 0 7.014-2.338c2.339-1.092 4.521-2.495 4.833-2.65.312-.156.312-.468.468-.78 4.052.78 8.417 1.403 12.47 1.403.312 3.43 0 4.053-.156 4.677-6.235 2.026-11.691 6.235-15.432 10.288ZM45.206 47.7c.467-.624 1.403-2.027 1.87-2.182.624-.312.935-.936.624-1.56-.312-.623-.936-.934-1.56-.623-1.714.78-4.987 1.715-7.637 2.65 5.144-8.417 9.82-13.717 10.756-16.835.623-2.026-.624-3.118-2.183-2.65-.156 0-3.43 1.403-3.585 1.403 2.962-4.52 6.235-8.885 9.509-13.094C56.74 19.64 58.456 21.2 61.26 26.5c-2.182-.78-2.65-.624-3.273-.78-1.091-.623-2.182.78-1.403 1.871 1.247 1.715 5.612 6.235 9.82 15.12-2.338-.779-4.676-.779-4.832-.779-1.09-.467-2.182.936-1.403 1.87.624.78 7.483 10.29 10.289 13.25-1.403.78-2.806 1.404-4.21 2.027-7.482 2.962-15.743 3.742-23.382 2.339-2.65-.468-5.3-.936-7.326-1.403 2.026-2.65 8.574-10.756 9.665-12.315Zm-26.968-6.08a1.177 1.177 0 0 0-1.247-1.714c-.624.156-1.403.156-2.338.312 2.338-3.118 4.832-6.392 6.08-8.106 2.026 1.87 4.364 4.053 6.39 6.547-1.09 0-3.273-.156-3.74-.156-.624 0-1.092.468-1.092 1.091 0 .624.468 1.247 1.091 1.247 1.559.156 7.638 8.885 8.73 10.912a19.346 19.346 0 0 0-4.21-.468c-.935 0-1.558 1.247-.779 2.027.312.312 3.274 4.053 5.612 6.858-.156.156-.156.312-.156.624-.468.935.78 1.715 1.715 2.027.312.155.623.155 1.091.311.156.156.156.312.312.312-6.703 3.897-14.497 5.3-21.668 4.209-1.87-.312-3.897-.468-5.456-.78.312-.467 8.262-11.379 8.418-11.535.623-.312.78-.935.623-1.559-.311-.623-.935-.779-1.558-.623-1.56.623-3.274 1.247-5.612 2.182 2.338-4.52 5.768-9.509 7.794-13.717Zm3.274 28.371c.779 0 .467 0 2.65-.312 0 2.027.311 3.742.779 5.3-.935 0-1.87 0-2.962.156a28.7 28.7 0 0 0-.467-5.144ZM14.964 80.28c4.521-2.805 9.51-3.585 13.562-2.338 2.494.78 4.52 2.338 6.391 4.209a62.393 62.393 0 0 1 4.677 5.768c.312.467 1.091.623 1.559.311.467-.311.623-1.09.312-1.558a74.61 74.61 0 0 0-4.21-5.145c4.677-4.832 11.692-10.288 19.954-10.288 11.223-.156 18.706 8.574 24.94 15.588.936 1.092 2.807-.467 1.715-1.558-.935-1.092-1.87-2.027-2.805-3.118 7.794-2.806 15.432-.156 19.329 5.612-3.43-.312-6.391 1.09-8.73 1.87-9.04 3.43-9.04.936-14.34-.78-7.015-2.181-14.03 2.027-20.733 2.65-4.676.469-9.509-.934-14.497-1.402-11.691-.78-28.059 4.676-37.412-.624 3.118-3.429 6.391-6.858 10.288-9.197Z"/></svg>