<svg xmlns="http://www.w3.org/2000/svg" width="683" height="683" fill="none"><g fill="#A89C81" clip-path="url(#a)"><path d="M32.528 460.714a33.583 33.583 0 0 0 25.39 5.13 25.626 25.626 0 0 1 14.385 1.635 17.995 17.995 0 0 1 1.916 10.375c0 14.713-9.754 27.322-21.431 42.416-16.77 21.77-42.13 54.665-20.49 97.956a67.31 67.31 0 0 0 46.166 37.531 69.082 69.082 0 0 0 14.984 1.635 99.396 99.396 0 0 0 40.505-9.755 83.49 83.49 0 0 0 68.493 35.015h312.425c43.192.817 79.473-32.302 82.587-75.389 2.052-38.01-23.187-72.118-60.139-81.274a213.488 213.488 0 0 1-19.521-61.327c-1.323-8.141-2.682-15.406-4.036-22.307 95.545-34.025 152.09-102.138 152.09-192.048a181.19 181.19 0 0 0-45.868-124.206 309.222 309.222 0 0 0-15.021-118.95A11.38 11.38 0 0 0 594.401 0c-31.796 0-71.233 27.385-100.3 52.035a481.908 481.908 0 0 0-135.445-17.9 480.8 480.8 0 0 0-137.851 18.551C191.503 27.723 151.754 0 119.729 0a11.372 11.372 0 0 0-10.562 7.15 311.796 311.796 0 0 0-14.932 122.462 182.011 182.011 0 0 0-42.77 120.695c0 89.91 56.545 158.023 152.09 192.053-1.354 6.896-2.713 14.151-4.031 22.265a205.029 205.029 0 0 1-19.765 61.244 79.265 79.265 0 0 0-53.921 47.342 30.325 30.325 0 0 0-4.682 3.167 63.248 63.248 0 0 1-27.088 12.661 16.186 16.186 0 0 1-.682-1.245c-1.75-3.489-2.547-5.083 13.588-26.041 14.989-19.244 35.51-45.603 35.51-83.899a77.182 77.182 0 0 0-26.927-63.186 90.548 90.548 0 0 0-70.78-15.77 34.098 34.098 0 0 0-26.775 26.817 34.114 34.114 0 0 0 14.526 35.004v-.005Zm41.691-210.407a159.737 159.737 0 0 1 40.151-109.195 11.355 11.355 0 0 0 2.838-8.245 323.112 323.112 0 0 1 10.469-109.31c20.65 3.885 50.238 21.78 82.967 50.426 3 2.625 7.156 3.49 10.953 2.276a452.36 452.36 0 0 1 137.059-19.37 453.538 453.538 0 0 1 134.737 18.708 11.384 11.384 0 0 0 10.864-2.28c32.416-28.24 61.712-45.896 82.186-49.755a321.088 321.088 0 0 1 10.593 106.102 11.372 11.372 0 0 0 3.047 8.38 159.076 159.076 0 0 1 43.015 112.263c0 142.763-153.226 193.418-284.442 193.418-131.211 0-284.437-50.655-284.437-193.418Zm111.342 297.566a22.892 22.892 0 0 0 14.755-11.65 236.357 236.357 0 0 0 21.666-67.926 641.899 641.899 0 0 1 3.39-19.005 486.418 486.418 0 0 0 133.284 17.187 486.398 486.398 0 0 0 133.284-17.192c1.14 5.932 2.286 12.172 3.401 19.047a236.354 236.354 0 0 0 21.64 67.857 23.097 23.097 0 0 0 15.02 11.745c26.291 6.687 44.187 31.025 42.734 58.113-2.823 30.833-28.906 54.296-59.864 53.848h-14.51a32.568 32.568 0 0 0-1.901-27.239 55.626 55.626 0 0 0-21.916-21.046 45.482 45.482 0 0 1-7.213-5.021c-5.714-7.469-14.693-55.65-19.739-96.014a11.38 11.38 0 0 0-18.214-7.775 11.367 11.367 0 0 0-4.364 10.598c4.427 35.437 13.698 96.733 25.999 109.029a60.762 60.762 0 0 0 11.573 8.542 34.721 34.721 0 0 1 13.974 12.713 10.352 10.352 0 0 1-.266 10.39 11.62 11.62 0 0 1-10.073 5.823h-46.009a11.262 11.262 0 0 1-11.083-8.817 685.8 685.8 0 0 1-18.338-127.711c0-6.287-5.094-11.38-11.38-11.38-6.281 0-11.375 5.093-11.375 11.38a706.782 706.782 0 0 0 18.885 132.684 34.276 34.276 0 0 0 1.213 3.844h-62.956c.479-1.26.885-2.547 1.213-3.849a707.148 707.148 0 0 0 18.89-132.679c0-6.287-5.093-11.38-11.38-11.38-6.281 0-11.374 5.093-11.374 11.38a686.287 686.287 0 0 1-18.339 127.705 11.272 11.272 0 0 1-11.088 8.823h-46.009a11.61 11.61 0 0 1-10.063-5.823 10.364 10.364 0 0 1-.265-10.395 34.64 34.64 0 0 1 13.973-12.708 60.73 60.73 0 0 0 11.573-8.542c12.302-12.296 21.573-73.592 26-109.029a11.377 11.377 0 1 0-22.578-2.823c-5.052 40.359-14.026 88.545-19.51 95.764a43.197 43.197 0 0 1-7.443 5.271 55.56 55.56 0 0 0-21.916 21.046 32.554 32.554 0 0 0-1.906 27.239h-14.51c-30.968.448-57.051-23.025-59.869-53.869-1.421-27.166 16.594-51.545 42.984-58.155ZM41.949 426.09a11.53 11.53 0 0 1 7.5-4.927 67.546 67.546 0 0 1 51.723 11.135 55.294 55.294 0 0 1 18.557 45.556c0 30.479-16.317 51.426-30.75 69.973-14.973 19.452-24.869 32.306-15.947 50.139a21.626 21.626 0 0 0 15.245 13.312 51.404 51.404 0 0 0 31.697-7.421c.015 1.135-.177 2.244-.115 3.39a76.83 76.83 0 0 0 3.833 20.005 67.154 67.154 0 0 1-40.358 6.281 44.48 44.48 0 0 1-30.677-25.489c-15.26-30.52 2.495-53.556 18.51-74.342 12.688-16.396 25.807-33.359 25.807-55.848a34.216 34.216 0 0 0-10.224-27.952 46.262 46.262 0 0 0-33.124-6.406 11.15 11.15 0 0 1-8.432-1.683 11.473 11.473 0 0 1-4.88-7.307 11.097 11.097 0 0 1 1.635-8.416Z"/><path d="M295.584 199.761c-5.562-2.838-12.375-.692-15.302 4.823-.796 1.505-20.463 36.661-89.159 17.031-6.042-1.724-12.338 1.771-14.067 7.812-1.73 6.042 1.765 12.339 7.807 14.068a162.659 162.659 0 0 0 44.634 6.864c52.587 0 70.181-33.697 71.071-35.468 2.771-5.557.547-12.307-4.984-15.13ZM487.815 250.359a162.637 162.637 0 0 0 44.635-6.864c6.041-1.729 9.536-8.026 7.807-14.068-1.724-6.041-8.026-9.536-14.067-7.812-68.369 19.541-88.186-15.234-89.15-17.015a11.377 11.377 0 0 0-9.525-6.219 11.388 11.388 0 0 0-10.151 5.146 11.376 11.376 0 0 0-.62 11.364c.891 1.771 18.484 35.468 71.071 35.468ZM396.123 406.257c4.464 4.312 11.563 4.25 15.948-.136 4.39-4.39 4.453-11.489.141-15.952l-42.177-42.176v-20.182c4-1.474 7.615-3.844 10.568-6.922l17.052-18.208a22.821 22.821 0 0 0 4.624-24.932 28.377 28.377 0 0 0-26.572-16.067h-34.098a28.372 28.372 0 0 0-26.572 16.067 22.821 22.821 0 0 0 4.619 24.932l17.057 18.203a28.117 28.117 0 0 0 10.568 6.932v20.182l-42.176 42.171c-4.313 4.463-4.25 11.562.135 15.952 4.39 4.386 11.489 4.448 15.953.136l37.462-37.463 37.468 37.463ZM335.89 286.858c.141-.531 1.834-2.421 5.719-2.421h34.098c3.88 0 5.573 1.89 5.339 2.692l-17.057 18.208a9.117 9.117 0 0 1-10.667 0l-17.432-18.479Z"/></g><defs><clipPath id="a"><path fill="#fff" d="M0 0h682.667v682.667H0z"/></clipPath></defs></svg>