<svg xmlns="http://www.w3.org/2000/svg" width="128" height="128" fill="none"><path fill="#939880" d="M112.267 116.587c.426-2.027.8-8.214 1.12-16.534.373-10.186.64-23.413.64-35.68 0-7.146-.107-14.666-.214-21.706 0-1.067-.853-1.814-1.813-1.814C98.347 31.36 81.227 19.627 65.173 8.96a2.102 2.102 0 0 0-2.293 0c-16 10.72-33.173 22.4-46.773 31.893-.96 0-1.814.747-1.814 1.76-.16 7.094-.213 14.614-.213 21.707 0 12.213.267 25.493.64 35.68.32 8.32.693 14.56 1.12 16.587-3.2.266-5.067.48-5.067.746 0 1.014 28.747 2.027 53.334 2.027 24.586 0 53.333-1.013 53.333-2.027 0-.266-1.867-.533-5.067-.746h-.106ZM94.347 53.76c-1.494.64-3.627 1.867-5.814 2.347-2.506.96-5.546.96-6.986 1.333a5.343 5.343 0 0 0-.427-1.707c-.853-2.026-2.187-3.146-3.093-3.733-.96-.587-1.547-.747-1.6-.64-.267.267 2.186 1.387 3.306 4.853.534 1.654 0 3.947-2.133 4.747-2.027.853-5.013.213-7.2-1.653-.267-.267-.693-.374-1.067-.32-.746.106-1.28.8-1.12 1.546.427 2.934-1.226 6.88-3.893 7.147-2.56.373-4.8-3.68-4.053-7.093.106-.534 0-1.12-.374-1.547-.64-.747-1.813-.853-2.56-.213-2.4 2.08-6.72 2.186-7.68.16-1.173-1.92 1.12-5.44 4.054-6.454.48-.16.906-.533 1.173-1.013a2.01 2.01 0 0 0-.907-2.667l-.213-.106-1.013-.48c-2.614-1.387-4.16-4.747-2.774-6.24 1.28-1.707 5.174-1.387 7.467.48h.053c.427.373.96.533 1.547.426a1.835 1.835 0 0 0 1.44-2.186c-.693-3.36 1.493-7.307 4-6.987 2.613.213 4.32 4.16 3.84 7.093-.053.427 0 .854.32 1.174.533.586 1.44.693 2.027.16 1.866-1.6 4.426-2.294 6.4-1.814 2.026.427 3.093 2.134 2.88 3.84-.48 3.574-3.467 5.44-4.747 6.134h-.053s-.107.16-.16.213c-.054.16 0 .373.213.427.853.266 1.333.373 1.387.32 0-.054-.16-.267-.534-.48 1.707-.64 4.694-2.134 5.76-6.347a3.52 3.52 0 0 0 0-1.493c1.974.373 6.88.693 13.44.96-.426 1.066-.853 2.773-1.013 4.96-.107 1.44 0 3.093.213 4.8l-.106.053Zm-47.734-.533a8.687 8.687 0 0 0-1.333 4c-.32 0-.64-.054-1.013-.107-1.547-.053-3.147-.533-4.854-1.013-2.186-.48-4.32-1.707-5.813-2.347.213-1.707.373-3.36.213-4.8-.16-2.187-.586-3.893-1.013-4.96 5.6-.213 9.973-.533 12.427-.8-.107 1.333.16 2.667.693 3.68.693 1.547 1.813 2.72 2.987 3.68-.907.747-1.707 1.6-2.4 2.667h.106ZM18.027 72.16v-7.84c0-6.56-.054-13.387-.214-19.893 4.96-.107 9.654-.267 13.76-.427-.106 1.12-.213 2.773-.48 4.8-.426 3.467-1.706 7.787-3.68 11.36-2.4 4.96-6.826 9.333-9.386 11.947v.053Zm92.16-27.733c-.107 6.506-.214 13.333-.214 19.893v7.84c-2.56-2.613-6.986-6.987-9.386-11.947-1.974-3.573-3.254-7.893-3.68-11.36-.267-2.08-.374-3.733-.48-4.853 4.106.16 8.8.32 13.76.427Zm-8.374 24.106a27.315 27.315 0 0 0 4.214 3.574c1.546 1.066 2.933 1.76 4 2.186.106 9.12.32 18.24.586 25.654.32 8.266.694 14.453 1.12 16.533-3.68-.267-8.853-.533-14.933-.693 1.173-3.894 2.933-14.774 3.893-24.48.854-8.374 1.28-17.814 1.12-22.827v.053ZM64 13.12c14.347 9.547 29.653 19.573 42.667 27.84-12.16.32-22.08.8-25.014 1.387-.426-1.867-1.866-3.787-4.053-4.32-2.08-.64-4.32-.374-6.4.48-.107-1.227-.32-2.4-.8-3.574-.853-2.026-2.72-4.213-5.6-4.586-2.88-.427-5.547 1.493-6.72 3.68a10.826 10.826 0 0 0-1.333 3.733c-.96-.373-2.027-.693-3.147-.8-2.24-.213-4.96.32-6.827 2.507-.693.8-1.013 1.76-1.226 2.773-3.787-.48-13.014-.907-24.107-1.227 12.96-8.32 28.32-18.293 42.667-27.84L64 13.12ZM17.387 100c.266-7.467.48-16.533.586-25.653 1.067-.427 2.454-1.12 4-2.187 1.387-.907 2.827-2.187 4.214-3.573-.16 5.013.32 14.4 1.12 22.826.96 9.654 2.72 20.534 3.893 24.48-6.08.214-11.307.427-14.933.694.426-2.08.8-8.267 1.12-16.534V100ZM64 115.307c-10.613 0-22.027.213-31.573.48.373-4 0-15.094-1.014-24.854-.906-9.333-2.56-19.733-3.733-24 1.28-1.493 2.453-3.04 3.307-4.8.96-1.706 1.6-3.626 2.133-5.546 1.12 1.44 3.093 2.826 5.173 3.466 2.027.64 4.8.64 6.454-.106.32-.107.533-.267.8-.374.16.48.266 1.014.533 1.44 1.547 2.614 4.587 3.52 6.933 3.36 1.28-.053 2.454-.373 3.574-.8.213 1.334.64 2.667 1.386 3.84 1.227 2.187 3.894 4.054 6.774 3.574 2.826-.48 4.586-2.614 5.44-4.587.533-1.173.746-2.4.8-3.573 2.506 1.066 5.28 1.226 7.52.106 1.493-.693 2.56-2.08 2.88-3.466v-.48c.426.373 1.013.693 1.813 1.013 1.707.693 4.373.747 6.453.107 2.08-.587 4.107-2.027 5.227-3.467.48 1.92 1.173 3.84 2.133 5.547.907 1.706 2.08 3.306 3.307 4.8-1.173 4.266-2.827 14.666-3.733 24-.96 9.706-1.44 20.8-1.014 24.853-9.546-.32-20.906-.48-31.573-.48v-.053Z"/><path fill="#939880" d="M62.026 46.773c1.333-.853 3.146-.853 4.426-.213 2.827 1.28 3.254 4.213 3.734 4.107.213 0 .586-.694.48-1.974-.107-1.28-.854-3.2-2.72-4.533-1.814-1.387-4.907-1.973-7.574-.693-2.72 1.173-4.64 4.213-4.64 7.2 0 3.04 1.92 6.026 4.64 7.2 2.72 1.28 5.76.693 7.574-.694 1.92-1.386 2.613-3.306 2.72-4.533.106-1.28-.214-1.973-.48-1.973-.534-.054-.907 2.88-3.734 4.106-1.333.587-3.093.587-4.426-.213-1.387-.8-2.24-2.347-2.24-3.893 0-1.494.853-3.094 2.24-3.894Z"/></svg>