<svg xmlns="http://www.w3.org/2000/svg" width="295" height="295" fill="none"><path fill="#A89C81" d="M65.258 221.205c-12.171 7.617-3.315 30.991 10.7 28.291 9.629-3.484 15.15-19.328 7.546-27.126-2.708-2.698-7.832-4.938-11.236-2.427a8.105 8.105 0 0 0-7.01 1.262Zm5.61 2.372c.638 3.788 5.046 2.971 7.27 5.17 5.76 3.712 2.585 14.394-4.07 16.052-9.934-.878-12.15-16.932-3.2-21.222ZM207.209 223.262a1.995 1.995 0 0 0 .681-2.706 1.995 1.995 0 0 0-2.692-.734c-9.331 4.172-8.517 18.406-.08 23.109 12.653 7.249 28.435-12.97 17.572-23.218-6.535-6.624-17.134.652-6.702 6.319 4.314 3.833-.623 10.466-5.272 11.356a7.786 7.786 0 0 1-3.507-14.126Zm8.732 10.654c-.102.121-.073.089 0 0Zm-5.379 3.487c-.045.003-.039.003 0 0Z"/><path fill="#A89C81" d="M215.586 225.74a.817.817 0 0 0 .227.187 2.031 2.031 0 0 0-.227-.187ZM31.095 178.38c4.207-.286 41.517 4.307 34.092-4.704-10.983-2.64-22.883.092-34.092.827a1.943 1.943 0 0 0-1.868 1.939 1.94 1.94 0 0 0 1.868 1.938Z"/><path fill="#A89C81" d="M13.16 218.38a11.254 11.254 0 0 0 8.948 1.284c-.098 9.517 11.406 13.608 19.356 10.855-.63 29.31 34.735 45.835 57.106 26.975 18.259-14.552 16.334-44.821-1.585-58.828-6.455-5.243-16.746-9.01-24-3.301a3.642 3.642 0 0 0 1.82 6.722c43.184 2.758 31.78 63.782-8.534 54.681-26.327-10.098-22.51-43.431 3.407-51.325a2.323 2.323 0 0 0 1.619-2.535 2.328 2.328 0 0 0-2.234-2.013 29.724 29.724 0 0 0-26.233 21.273c-3.27-1.56-8.66.914-11.21-2.486a52.296 52.296 0 0 1-.785-12.765l-.248-14.576c-.076-4.462.882-10.563-2.572-13.972-4.804-3.042-5.981 5.584-5.72 8.78-6.77-3.232-10.528 4.604-11.009 10.227-.875 6.863-5.123 16.057 1.873 21.004Zm3.555-7.87c.666-3.999-.426-20.958 5.54-19.577-.083 7.147-.098 14.295-.15 21.442-1.865.493-5.265-.008-5.39-1.865ZM151.698 188.312c12.159-.996 27.74-4.685 34.104-16.075a3.18 3.18 0 0 0-.57-3.353c1.884-4.123-3.599-7.231-6.579-9.007a45.064 45.064 0 0 0-8.638-4.757c.756-1.815 1.87-4.191-.119-5.623-2.284-1.746-4.653.751-6.729 1.703a48.03 48.03 0 0 0-9.101 10.9 4.007 4.007 0 0 0 1.04 5.209c4.795 3.195 8.717-4.243 11.796-7.036a55.644 55.644 0 0 0 13.284 9.155c-19.694 13.632-41.83 15.662-62.534 2.554a1.567 1.567 0 0 0-1.892 2.453 48.488 48.488 0 0 0 35.938 13.877Z"/><path fill="#A89C81" d="M71.359 168.748c-8.919 7.112 43.848 4.201 46.828 2.396 2.882-.763 3.234-5.661 0-6.193a82.026 82.026 0 0 0-19.16-.095c-.11-6.909-2.346-17.214-3.014-24.208-1.043-17.952-5.665-24.761-24.666-23.283-9.192 1.52-8.857 11.233-9.069 18.479-.28 9.581.135 19.143.804 28.695a2.962 2.962 0 0 0 5.921 0c.67-8.483.951-16.893 1.064-25.402.67-4.999-3.141-15.587 4.95-15.238 6.331-.024 12.36 1.03 12.73 8.607 1.622 10.973 2.045 21.84 3.615 32.852a74.552 74.552 0 0 0-20.003 3.39ZM171.719 122.153a3.98 3.98 0 0 0-3.051 7.236 43.382 43.382 0 0 1 13.851 15.201c3.795 6.735 4.122 14.558 7.254 21.541-.476.017-.949.024-1.426.042-1.838.071-2.463 3.064-.458 3.384 20.99 4.416 42.663 3.428 63.641 6.924 12.757 2.681 20.974 13.832 23.882 26.011a38.375 38.375 0 0 0 3.16 11.487 25.674 25.674 0 0 1-3.592 4.664c-9.218 1.423-18.268 4.469-27.451 6.054.926-18.841-18.578-37.201-37.542-31.559a4.27 4.27 0 0 0-1.6 7.257 4.27 4.27 0 0 0 2.73 1.096c24.423-1.255 37.375 24.179 19.336 41.694-34.955 33.207-70.866-17.344-27.72-35.77a1.566 1.566 0 0 0 .587-2.663 1.56 1.56 0 0 0-1.001-.403 26.775 26.775 0 0 0-25.821 24.276c-18.497 1.03-37.069 1.754-55.539 3.401-11.287 6.651 52.47 6.51 55.784 4.92 9.077 40.928 64.739 26.809 70.422-8.137a41.678 41.678 0 0 0 29.397-2.822c4.766.874 13.944-10.46 8.157-13.839 1.83-7.394-2.386-17.222-5.649-23.454-14.518-29.212-53.577-21.284-80.658-22.813.305-15.134-10.1-40.615-26.693-43.728ZM114.975 95.283a54.523 54.523 0 0 0 10.25 7.134 3.73 3.73 0 0 0 3.841-.062c26.752 11.909 71.421-9.622 54.661-42.571a25.672 25.672 0 0 0-34.798-10.149 25.67 25.67 0 0 0-9.6 9.15c-9.639-19.565-38.651-13.135-41.69 7.064.05 11.863 9.674 21.374 17.336 29.434Zm-6.67-31.557a14.84 14.84 0 0 1 15.295-7.76 12.823 12.823 0 0 1 6.109 4.656c2.17 3.178 6.209 10.927 10.402 5.82a3.644 3.644 0 0 0 4.709-1.49c6.879-10.194 22.938-11.51 29.695-.608 7.814 11.794-2.684 25.518-14.725 28.548-9.676 3.321-20.036 1.09-29.852 3.154a107.823 107.823 0 0 1-20.201-24.285 9.2 9.2 0 0 1-1.432-8.035ZM202.928 38.001c-.022.006-.023.018-.041.033l.041-.033Z"/><path fill="#A89C81" d="M197.577 52.787c2.402 3.087 10.181 11.618 13.956 7.306a3.45 3.45 0 0 0-.265-4.453c-3.483-5.265-8.261-10.963-8.574-17.436 4.762-2.494 7.317 6.292 12.029 4.86a3.246 3.246 0 0 0 5.196-2.578c.22-.423.987-1.023.56-.726 1.599-1.265 3.888.201 4.664 1.783 1.656 8.554-9.548 11.896-12.271 18.991a2.388 2.388 0 0 0 3.241 3.24c8.465-4.253 17.89-12.383 15.928-22.877a9.604 9.604 0 0 0-6.461-8.248 9.613 9.613 0 0 0-10.16 2.559 14.335 14.335 0 0 0-18.104-4.938c-8.423 5.047-4.669 16.253.261 22.517Zm9.898-13.693.066.057c-.093-.068-.422-.353-.066-.057ZM65.595 57.275c2.93.878 7.091 4.925 9.585 1.462a3.014 3.014 0 0 0-1.062-4.052c-5.018-2.404-11.077-9.84-8.63-13.356a3.786 3.786 0 0 1 5.82-.607c.172.12 1.253.953.445.261 1.395 1.35 4.022 2.561 5.736 1.315 2.53.558 3.148-2.948 5.38-3.196a5.443 5.443 0 0 1 5.653 2.137 9.956 9.956 0 0 1-2.525 12.332c-2.6 3.048-6.865 3.879-9.214 7.13-2.763 4.883 5.262 4.244 7.76 2.286 9.223-4.112 16.255-15.749 10.222-25.183a10.96 10.96 0 0 0-17.153-2.433 12.028 12.028 0 0 0-15.667-2.91c-10.426 5.884-6.388 20.964 3.65 24.814Zm9.465-14.652-.397-.055a.689.689 0 0 1 .397.055Z"/></svg>