<svg xmlns="http://www.w3.org/2000/svg" width="100" height="100" fill="none"><path fill="#C2B18E" d="M12.445 71.977c2.044 2.352 4.701 4.24 7.61 5.335 4.937 2.479 10.414 2.596 15.856 1.636.166-.028.307-.103.432-.198 1.76-.287 3.562-.923 5.42-1.896 10.752 13.338 24.745 16.941 35.523 13.305 7.638-1.918 12.746-6.985 15.928-15.762.057-.156.063-.315.044-.47 1.595-4.226 1.155-9.004.47-13.005-1.76-10.326-7.644-19.81-17.486-28.191-2.802-2.387-8.098-5.691-13.964-7.365-.33-.98-.707-1.898-1.12-2.768.015-.148.006-.3-.047-.45-.876-2.445-3.82-8.525-12.217-12.153-2.78-1.2-6.087-1.657-9.545-1.43-8.337-.144-15.677 4.236-21.397 10.377-15.602 16.75-15.114 41.98-5.507 53.035Zm16.035 3.27c3.339-.29 6.469-2.364 9.073-4.392a58.634 58.634 0 0 0 2.935 4.347c-4.01 2.01-8.274 2.435-12.008.044Zm45.628 13.446c-6.258.885-12.599-.77-18.838-4.895-4.67-3.092-8.373-6.238-11.325-9.625-8.112-9.142-11.67-21.549-10.586-29.125.694-4.793 3.11-11.165 7.807-14.67a23.516 23.516 0 0 1 3.511-2.165c-3.076 2.875-4.702 6.462-4.949 10.968-.578 10.273 4.861 20.75 11.518 28.582 12.81 15.084 29.39 17 36.61 12.727-3.274 4.706-7.756 7.364-13.748 8.203ZM50.092 27.237a33.44 33.44 0 0 1 1.032 5.003 25.718 25.718 0 0 0-7.388.337c1.451-2.4 3.591-4.295 6.356-5.34ZM41.78 39.295a15.88 15.88 0 0 1 .645-3.731c.28-.042 2.635-.633 8.928-.419.401 11.599-5.252 18.847-5.84 20.19-2.832-5.695-4.025-10.85-3.733-16.04Zm21.765 4.143c.185-.987.319-2.077.406-3.222 4.942 2.179 13.51 10.56 17.643 20.609a41.407 41.407 0 0 1 2.38 7.96c.808 4.225.809 8.675-2.378 11.548a19.647 19.647 0 0 1-3.592.03c-9.147-.743-17.647-5.346-24.638-13.303 5.037-6.201 8.383-13.93 10.18-23.622Zm-1.533-6.23c0 8.21-3.477 20.099-9.978 28.267-1.58-1.954-2.907-3.83-4.384-6.292 2.971-5.162 4.97-11.04 5.925-17.498C55 32.102 53.78 22.49 47.51 15.204c10.614.285 14.54 11.44 14.502 22.004ZM44.123 15.573a33.522 33.522 0 0 1 5.043 8.86c-2.607.57-5.853 1.782-9.228 4.297-1.932 1.442-3.616 3.421-5.002 5.731a23.068 23.068 0 0 0-1.494 2.417c-1.728 3.234-2.721 6.866-2.922 10.526-.39 7.093 1.89 14.08 5.26 20.364-5.352 4.293-7.425 4.295-10.916 3.92-6.12-8.675-7.494-24.666 2.221-41.146 3.865-6.546 8.302-11.025 13.563-13.692a15.972 15.972 0 0 1 3.475-1.277Zm47.58 45.696c1.202 7.017.934 14.455-5.417 17.737 1.101-2.354 1.168-5.216 1.047-7.094C86.335 56.665 77.21 46.416 69.73 40.5c-1.938-1.527-3.797-2.795-5.668-3.882-.024-2.368-.256-5.558-1.082-8.892 5.035 1.667 9.488 4.488 11.93 6.568 9.467 8.06 15.116 17.134 16.794 26.974ZM51.757 13.857c-10.755-3.33-20.702 5.92-26.442 15.64-13.102 22.229-6.368 42.774 2.67 47.847-5.729-.485-10.278-3.041-13.997-7.82-3.883-4.99-5.618-11.303-5.158-18.76.761-12.33 4.14-21.181 11.3-29.593 2.62-3.08 6.979-6.992 11.348-8.735 4.494-1.795 11.213-2.883 16.6-.555a24.03 24.03 0 0 1 3.679 1.976Z" opacity=".8"/></svg>