<svg xmlns="http://www.w3.org/2000/svg" width="166" height="166" fill="none"><path fill="#A89C81" d="M106.497 31.982c2.297-.415 3.584-2.342 4.722-4.048 1.103-1.65 1.615-4.106 1.384-6.196 1.944-1.003 2.133-2.48 2.105-3.16-.064-1.483-1.36-3.11-2.215-3.744-2.859-2.126-2.736-2.05-5.363-3.833-.992-.67-4.628-1.956-6.056-1.99-1.587.023-3.384 1.016-3.75 2.865-.092.458-.072.845-.06 1.189-.14.039-.81.183-.898.202-2.283.54-4.156 2.351-4.772 4.616-.35 1.286-.847 3.125.192 4.83C83.454 41.472 74.243 49.1 58.76 61.948c-22.704 18.83-33.457 28.995-40.55 55-1.09 3.999-1.85 14.005.185 18.354 2.368 5.067 6.679 9.187 13.175 12.597l.379.2c4.258 2.236 9.491 4.962 14.564 5.786 5.28 2.809 39.857 2.307 39.857-.532 0-1.334-9.036-2.416-20.182-2.416-1.98 0-3.889.036-5.697.1 7.264-3.958 14.911-11.467 20.403-22.671 12.386-25.265 7.348-55.758 16.564-82.416 2.392-5.52 5.407-10.204 9.039-13.968Zm-77.2 65.742c3.004 3.296 10.035 6.239 14.057 6.364 3.693.113 7.539-.202 10.644 1.246 3.783 1.762 6.085 5.886 8.59 9.502 2.295 3.324 8.602 9.527 13.964 10.62-2.416 5.19-5.283 9.634-8.83 13.511-3.572-3.754-10.531-5.952-15.247-5.975-4.23.054-9.098.263-12.315-2.256-2.52-1.971-3.737-5.354-5.426-8.556-1.488-2.821-6.91-8.915-11.418-10.409 1.782-5.475 3.722-10.012 5.98-14.047Zm71.802-85.301c.711.037 3.559 1.039 4.116 1.4 5.097 3.462 5.65 3.977 6.033 4.767-.161.11-.491.28-1.06.43-.133.035-.243.117-.361.182-3.74-.408-7.066-2.286-9.232-5.204a4.727 4.727 0 0 0 .051-1.398c.044-.06.247-.175.453-.177Zm-6.214 6.355c.283-1.041 1.216-1.943 2.265-2.192.432-.093.683-.145.972-.223 2.688 3.43 6.661 5.651 11.11 6.195.034 1.212-.293 2.651-.951 3.633-.972 1.458-1.631 2.352-2.556 2.436-.149-.047-.296-.1-.459-.104-4.006-.096-7.991-2.587-9.69-6.058-.033-.07-.094-.116-.136-.179-.174-1.697-1.402-.388-.555-3.508Zm-.95 7.394c2.042 2.623 5.09 4.563 8.391 5.35-5.351 6.256-9.3 14.465-11.787 24.446-4.74-.505-9.147-3.58-11.258-7.851 6.08-6.495 10.609-13.295 14.654-21.945Zm-17.144 24.5c2.73 4.64 7.687 7.935 13.028 8.628-1.89 9.997-1.38 21.086-3.134 30.202-2.58 13.392-5.17 24.023-8.72 32.714-3.79-.137-10.035-5.645-12.57-9.317-2.827-4.11-5.34-8.505-9.957-10.657-3.851-1.792-8.056-1.441-11.98-1.565-3.367-.102-10.039-2.95-11.994-5.61-.104-.14-.24-.24-.373-.338 11.041-17.343 31.996-30.49 45.7-44.057ZM33.156 144.88c-5.813-3.051-9.63-6.655-11.672-11.021-1.49-3.187-1.05-12.103.018-16.013.266-.976.537-1.906.809-2.829 2.957.979 7.948 5.991 9.405 8.754 1.777 3.361 3.114 7.125 6.34 9.653 4.072 3.183 9.391 3.043 14.458 2.98 3.898-.034 10.119 2.063 12.822 4.988-3.29 3.11-7.09 5.863-11.619 8.334-5.562 3.031-14.012-1.406-20.181-4.646l-.38-.2Z"/><path fill="#A89C81" d="M59.003 95.468a1.707 1.707 0 0 0 2.502.57c13.673-5.801 14.74-6.047 16.471-7.777 5.097-5.092 1.336-15.677-8.124-12-1.082-2.891-3.481-6.156-6.644-5.876-5.489.488-9.92 6.525-7.58 14.807.82 3 2.072 7.86 3.375 10.276Zm4.575-21.688c1.244 0 3.196 2.878 3.476 5.166.072.586.442 1.094.98 1.341.538.253 1.162.2 1.654-.124 2.023-1.34 4.984-1.788 6.18-.325 1.368 1.675 1.226 4.484-.303 6.012-.902.901-2.24 1.468-3.535 2.016l-10.673 4.53c-.861-2.223-1.734-5.527-2.446-8.132-1.83-6.477 1.673-10.484 4.667-10.484ZM145.772 155.404c3.82-.741 4.15-2.908.817-4.413a38.054 38.054 0 0 0-7.194-2.391c-2.251-1.462-6.354-2.137-9.939-2.443-1.123-14.723-1.866-23.789.374-30.273.173-.5.369-.988.574-1.473 7.154-7.583 11.415-17.662 11.394-27.054-.02-9.376-1.56-17.186-4.848-24.58-.985-2.217-3.249-3.553-5.397-3.196-7.787 1.332-15.981 1.532-23.075.557-2.22-.304-4.482 1.202-5.34 3.589-6.824 19.03-2.871 36.881 11.114 50.304.068.197.166.388.309.556 3.803 4.455 3.752 8.789 3.762 14.594.013 4.925.418 11.137.712 16.861-5.581.348-13.189 1.489-13.189 5.137 0 3.169 5.696 4.433 10.821 4.934 9.637 1.366 19.577 1.139 29.105-.709Zm-28.981-43.655c-6.87-6.528-11.131-14.215-12.738-22.605 3.686-3.163 8.66-4.863 13.506-4.576 6.199.396 13.958 4.319 20.774.427.025.783.052 1.564.054 2.371.019 8.643-3.977 17.974-10.69 24.965-2.021 2.105-8.442 1.759-10.906-.582Zm-10.442-46.872c.252-.7.974-1.47 1.665-1.359 7.429 1.017 15.991.813 24.114-.575.593-.113 1.361.447 1.705 1.22 2.325 5.226 3.718 10.698 4.273 16.873-.07.047-.151.07-.215.128-2.642 2.396-6.832 2.247-9.096 1.947-3.627-.48-7.136-1.701-11.022-1.947-5.024-.307-10.147 1.209-14.269 4.098-.596-6.494.322-13.348 2.845-20.385Zm12.842 84.576.018.412a1.706 1.706 0 0 0 1.703 1.641c.021 0 .044 0 .065-.002a1.705 1.705 0 0 0 1.641-1.768c-.232-6.165-.868-14.502-.884-20.563-.021-4.369.022-8.334-1.768-12.357 2.106.432 3.769.42 5.532.107-1.272 3.621-1.697 7.689-1.298 12.503.45 5.399.56 16.2.735 19.888a1.704 1.704 0 0 0 1.702 1.623c.725 0 1.339-.451 1.587-1.092.258-.078.505-.168.739-.302 4.321.364 6.972 1.088 8.155 1.632-5.403 2.461-21.901 2.456-27.293.002 1.296-.592 4.328-1.395 9.366-1.724ZM106.155 46.33a1.706 1.706 0 0 0-.626 2.33l3.053 5.294c.316.546.889.852 1.479.852 1.29 0 2.138-1.407 1.477-2.558l-3.054-5.294a1.705 1.705 0 0 0-2.329-.624ZM116.118 52.976c.856 0 1.594-.644 1.692-1.514l1.112-9.856a1.704 1.704 0 0 0-1.503-1.885 1.712 1.712 0 0 0-1.885 1.504l-1.113 9.855a1.706 1.706 0 0 0 1.697 1.896ZM123.745 54.878l4.563-6.056a1.703 1.703 0 0 0-.336-2.387 1.697 1.697 0 0 0-2.388.335l-4.562 6.052c-.853 1.132-.029 2.733 1.361 2.733.516 0 1.027-.233 1.362-.677Z"/></svg>