<svg xmlns="http://www.w3.org/2000/svg" viewBox="0 0 32 32" fill="none"><path fill="currentColor" d="M16 28.5c6.627 0 12-5.373 12-12s-5.373-12-12-12-12 5.373-12 12 5.373 12 12 12Z"/><path fill="currentColor" d="M24.485 8.015A11.964 11.964 0 0 0 16 4.5c-6.627 0-12 5.373-12 12 0 3.313 1.343 6.313 3.515 8.485 0 0 2.828-1.666 8.49-8.49 5.662-6.824 8.48-8.48 8.48-8.48Z"/><path fill="currentColor" d="M16.255 3.83c-11.3-.216-17.259 13.973-8.767 21.468 2.135 2.787 6.48 4.08 9.99 3.598C33.016 26.564 31.893 4.794 16.255 3.83Zm8.484 20.046C20.982 28.28 13.9 29.488 9.087 26.014c-.653-.437-1.195-.841-1.475-.943C.984 17.133 5.526 5.188 16.2 5.123c9.701.62 14.443 11.063 8.539 18.753Z"/></svg>
