<svg xmlns="http://www.w3.org/2000/svg" viewBox="0 0 27 28" fill="none"><path fill="currentColor" d="M1.124 18.22c-.47-1.375-.63-2.804-.651-4.311l-.205.167c-.011-.022-.029-.041-.03-.063-.018-.181-.028-.364-.048-.546-.054-.478-.11-.956-.168-1.433-.04-.332-.042-.655.147-.976.248.175.118.427.192.65.023-.063.038-.099.05-.135.26-.762.5-1.531.784-2.284.213-.565.464-1.119.732-1.66.083-.168.282-.277.424-.417.115-.115.257-.218.33-.357.464-.88 1.064-1.658 1.74-2.39-.125-.165-.269-.096-.362-.002-.262.263-.532.526-.746.827-.45.634-.867 1.293-1.3 1.94-.038.058-.089.108-.134.162l-.059-.04c.329-.532.636-1.079.99-1.594.972-1.417 2.251-2.51 3.674-3.445.014-.01.027-.022.042-.027 1.006-.357 1.936-.924 3.02-1.074.487-.068.964-.219 1.445-.332l.646-.153-.152.153 2.186-.236c.012-.231.212-.273.397-.268.577.015 1.154.045 1.729.09.42.034.842.074 1.253.158.347.072.68.211 1.02.32l-.02.102-.322.013 1.786.732c.165-.298.361.042.555-.012l-.47-.336c.585-.052 1.064.215 1.565.43l-.397-.282.024-.058 1.047.45.036-.065-.614-.432c.175-.104.338-.211.512-.298.064-.032.175-.05.225-.016.195.133.416.259.548.445.261.367.531.715.883 1 .195.159.36.355.537.534l-.055.082-.327-.103.312.732-.553-.201-.027.35-1.9-1.498-.04.05c.096.098.194.194.289.293.069.071.168.136.194.222.115.387.423.597.7.847.858.773 1.636 1.621 2.262 2.6.013.02.034.035.072.073l-.02-.262c.052.041.091.056.105.084.222.471.46.936.658 1.417.303.73.58 1.473.917 2.194-.303-.923-.538-1.878-.93-2.761-.389-.875-.936-1.679-1.413-2.512-.002.001.017-.012.023-.007.47.376.934.74 1.165 1.348.195.515.493.992.758 1.479.186.342.294.69.287 1.09-.003.2.125.401.197.6.1.28.21.555.3.836.013.044-.055.112-.082.17-.025.054-.069.111-.066.164.026.506.039 1.013.098 1.515.117.986.133 1.97.087 2.961-.038.83-.268 1.615-.436 2.415-.023.11-.025.228-.02.34.014.255.038.508.056.743l.21-.174c-.037.202-.038.345-.09.466-.276.656-.52 1.331-.86 1.953-.452.828-.943 1.64-1.49 2.407-.468.658-.997 1.286-1.767 1.637-.17.078-.313.215-.471.32-.07.046-.148.08-.222.12a13 13 0 0 0-.044-.059l.662-.666-.04-.047c-.417.275-.715.723-1.235.898l.48-.913c-.45.35-.875.687-1.308 1.013-.864.653-1.837 1.086-2.877 1.346-1.033.258-2.072.532-3.126.652-1.087.125-2.195.1-3.286-.092-.092-.016-.18-.059-.277-.092l4.385-.199-.003-.076c-.475.012-.952.041-1.427.031-.478-.01-.958-.039-1.433-.095-.483-.056-.961-.155-1.42-.233l-.059.182.288.126-.006.044c-.38-.057-.765-.092-1.138-.178-.417-.096-.823-.24-1.235-.36-.394-.116-.805-.192-1.181-.352-1.072-.455-2.028-1.108-2.933-1.838-.063-.051-.115-.118-.172-.178-.101-.107-.118-.2.061-.247l-.216-.343.419.322.054-.057c-.49-.543-1.005-1.068-1.466-1.636-.457-.562-.86-1.167-1.317-1.735l1.429 2.136c-.297-.21-.631-.437-.956-.678-.561-.417-.745-1.044-.894-1.687l.832 1.341.077-.047c-.1-.162-.208-.319-.296-.486a37.963 37.963 0 0 1-.984-2c-.15-.332-.343-.656-.422-1.006-.195-.856-.335-1.726-.496-2.59-.005-.028.005-.058.033-.09.236.994.298 2.03.765 2.968Zm22.203 5.312c1.023-1.04 1.802-2.254 2.482-3.559l.099.22c.14-.323.353-.58.276-1.002-.157.176-.25.328-.383.422-.368.256-.526.666-.659 1.04-.22.621-.54 1.144-1.012 1.59-.376.356-.61.811-.803 1.29ZM6.93 25.186l.033-.054-1.452-.924-.049.079c.408.43.886.748 1.468.899Zm2.453 1.171c-.367-.393-.873-.491-1.349-.658.402.318.816.61 1.35.658ZM8.87.608 5.168 2.929C6.2 1.774 7.475 1.093 8.838.556l.032.052ZM17.3 27.084c-1.197.627-2.637.529-4.062.54l4.062-.54Z"/><path fill="currentColor" d="M19.96 25.883c-.2.298-.467.54-.8.652-.452.154-.927.241-1.408.315l2.165-1.032.042.065ZM11.691.364C12.828.094 13.981 0 15.141 0l.01.125-3.46.239ZM2.439 5.972c-.045-.136-.117-.239-.09-.292.196-.395.482-.715.836-.97l.08.054c-.121.192-.236.387-.364.575-.129.19-.27.371-.462.633ZM1.407 8.006c-.19-.364-.016-.803.4-.983l-.4.983ZM21.03 25.869l-1.005.644-.063-.099 1.004-.632.063.087ZM16.22 27.827l-.96.173-.021-.104.956-.191.024.122Z"/></svg>
