<svg xmlns="http://www.w3.org/2000/svg" fill="none" viewBox="0 0 73 75"><path fill="currentColor" d="M54.683 60.272c12.415-.499 17.933-6.15 17.933-13.064 0-6.007-4.168-11.06-13.4-12.613.04-2.234.043-4.389.043-6.4H.383c0 13.154.015 32.261 11.833 41.387-7.172.55-11.833 1.423-11.833 2.406C.383 73.653 13.563 75 29.822 75s29.437-1.347 29.437-3.012c0-.983-4.66-1.858-11.831-2.406 3.207-2.475 5.553-5.68 7.255-9.31Zm4.313-19.957c5.18 1.201 6.106 3.74 6.046 7.03-.065 3.734-1.147 6.262-8.22 7.132 1.28-4.545 1.885-9.426 2.174-14.162ZM7.49 32.76h9.203c-4.125 12.174 2.834 31.437 2.834 31.437C4.479 52.663 7.49 32.76 7.49 32.76ZM34.638 20.26c1.17-10.604 24.582-5.3 19.703-19.065-.746-2.105-4.117-1.198-3.363.926 2.14 6.036-5.99 6.77-10.13 8.154-4.97 1.662-9.086 4.44-9.698 9.985-.246 2.234 3.245 2.21 3.488 0Z"/><path fill="currentColor" d="M51.256 12.84c-4.565 1.075-8.738 3.03-10.16 7.83-.641 2.163 2.725 3.08 3.363.927 1.57-5.3 8.532-5.388 12.977-6.679 4.774-1.386 7.506-4.693 6.85-9.77-.286-2.199-3.774-2.226-3.488 0 .793 6.14-4.856 6.585-9.542 7.691Z"/></svg>