<svg xmlns="http://www.w3.org/2000/svg" xml:space="preserve" viewBox="0 0 682.667 682.667"><defs><clipPath id="a" clipPathUnits="userSpaceOnUse"><path d="M0 512h512V0H0Z"/></clipPath></defs><g clip-path="url(#a)" transform="matrix(1.33333 0 0 -1.33333 0 682.667)"><path d="M0 0c0-22.091-17.909-40-40-40h-120c-22.091 0-40 17.909-40 40v160c0 22.091 17.909 40 40 40h120c22.091 0 40-17.909 40-40z" style="fill:none;stroke:currentColor;stroke-width:40;stroke-linecap:butt;stroke-linejoin:miter;stroke-miterlimit:10;stroke-dasharray:none;stroke-opacity:1" transform="translate(220 292)"/><path d="M0 0c0-22.091-17.909-40-40-40h-120c-22.091 0-40 17.909-40 40v160c0 22.091 17.909 40 40 40h120c22.091 0 40-17.909 40-40z" style="fill:none;stroke:currentColor;stroke-width:40;stroke-linecap:butt;stroke-linejoin:miter;stroke-miterlimit:10;stroke-dasharray:none;stroke-opacity:1" transform="translate(492 60)"/><path d="M0 0c0-22.091-17.909-40-40-40h-120c-22.091 0-40 17.909-40 40v80c0 22.091 17.909 40 40 40h120c22.091 0 40-17.909 40-40z" style="fill:none;stroke:currentColor;stroke-width:40;stroke-linecap:butt;stroke-linejoin:miter;stroke-miterlimit:10;stroke-dasharray:none;stroke-opacity:1" transform="translate(220 60)"/><path d="M0 0c0-22.091-17.909-40-40-40h-120c-22.091 0-40 17.909-40 40v80c0 22.091 17.909 40 40 40h120c22.091 0 40-17.909 40-40z" style="fill:none;stroke:currentColor;stroke-width:40;stroke-linecap:butt;stroke-linejoin:miter;stroke-miterlimit:10;stroke-dasharray:none;stroke-opacity:1" transform="translate(492 372)"/></g></svg>
