<svg width="30" height="31" viewBox="0 0 30 31" fill="none" xmlns="http://www.w3.org/2000/svg">
<path d="M0 23.3305C0.00611835 23.5018 0 23.6548 0.0305918 23.8934C0.238616 25.888 1.58465 27.6317 3.43851 28.4026C3.89739 28.6045 4.38686 28.7146 4.88245 28.7942C5.00481 28.8064 5.1333 28.8125 5.25567 28.8248C5.38415 28.837 5.51264 28.8431 5.60441 28.8431L6.22237 28.8615L8.69418 28.9166C11.9859 28.9839 15.2898 28.9961 18.5998 28.8982C19.4197 28.9227 20.2334 28.941 21.0533 28.9655L22.9989 29.0022L23.9717 29.0144H24.0941H24.1247H24.2164H24.2776L24.5224 29.0022C24.657 29.0022 24.9262 28.9655 25.1342 28.9349C25.9785 28.7942 26.7311 28.4944 27.4225 28.0355C28.1016 27.5766 28.6828 26.977 29.1172 26.2795C29.5516 25.5882 29.8392 24.7928 29.9432 23.9852C29.9799 23.7833 29.9861 23.5813 29.9922 23.3794C29.9922 23.2815 30.0044 23.1653 29.9983 23.0858L29.9922 22.841L29.9738 21.8682C29.9432 20.5711 29.9004 19.2801 29.8331 17.9892C29.7597 16.5208 29.4782 15.2971 28.9276 15.4072C28.4198 15.5051 28.0465 16.5514 27.9915 18.0565C27.9425 19.4086 27.8936 20.773 27.8446 22.1313L27.814 23.1469C27.8018 23.2815 27.7957 23.4162 27.7773 23.5508C27.7467 23.6792 27.7406 23.8138 27.6978 23.9423C27.5693 24.4624 27.3307 24.9457 27.0064 25.3679C26.4864 26.047 25.7277 26.5426 24.8833 26.7384L24.608 26.7874C24.5713 26.7996 24.4979 26.8057 24.4306 26.8057L24.2287 26.818L24.1247 26.8241H24.1002H24.088H24.0696L23.8677 26.8302L23.4578 26.8363L21.818 26.8669L15.2592 27.0015C13.3013 26.8241 11.3312 26.7201 9.35496 26.6589C8.36379 26.6283 7.37873 26.6038 6.38756 26.5916L5.64112 26.5855H5.45757L5.31685 26.5732C5.22507 26.561 5.1333 26.5732 5.04152 26.5487C4.67442 26.512 4.32568 26.3897 3.99529 26.2367C3.32838 25.9308 2.77773 25.3863 2.42287 24.7438L2.3005 24.4991C2.26379 24.4134 2.23932 24.3278 2.20261 24.2421C2.1659 24.1565 2.14754 24.0647 2.12307 23.979L2.08636 23.8444C2.07412 23.8016 2.07412 23.7649 2.068 23.7282L2.04965 23.6181C2.04353 23.5813 2.03129 23.5508 2.03129 23.4773L2.01294 23.1041L2.00682 22.4189C2.0007 20.4304 2.0007 18.4419 2.03741 16.4657C2.04353 16.1108 1.82939 15.5602 1.68255 15.3828C1.38275 15.0401 1.1319 15.4868 0.942226 16.1598C0.642427 17.2733 0.416048 18.497 0.256971 19.788C0.177432 20.4304 0.116249 21.0912 0.0734202 21.7642C0.0489468 22.1007 0.0305918 22.4372 0.0122367 22.7737L0 23.0307V23.0919V23.1225V23.1959L0 23.3305Z" fill="currentColor"/>
<path d="M10.6955 18.3685C11.7662 19.6411 12.7941 20.9565 13.9933 22.1129L14.0239 22.1435C14.4766 22.5779 15.1986 22.5656 15.633 22.1129C15.9083 21.8253 16.1775 21.5255 16.4345 21.2135C16.6303 21.0483 16.8322 20.8892 17.0219 20.7179C18.2394 19.6411 19.4141 18.5153 20.3747 17.1937C20.65 16.8205 20.7174 16.3494 20.3013 15.9823C19.922 15.6458 19.4264 15.6152 19.0532 15.9028C18.3801 16.4289 17.6949 16.949 17.1014 17.5608C16.6058 18.0687 16.1347 18.5948 15.6697 19.1332C15.7554 18.2767 15.8349 17.414 15.8227 16.5574C15.7982 14.8871 15.6758 13.2168 15.5963 11.5404C16.2999 8.54238 15.8961 5.47708 16.0429 2.4485C16.049 2.31389 15.8349 2.09975 15.6881 2.03245C15.3883 1.89785 15.1374 2.06916 14.9477 2.32613C14.3176 3.17046 14.0422 4.19835 13.9688 5.24459C13.7914 7.75923 13.5222 10.2739 13.7241 12.8069C13.6996 13.1189 13.6751 13.4309 13.6568 13.743C13.5772 15.3032 13.5405 16.8572 13.6507 18.4113C12.6411 17.3406 11.5215 16.3678 10.5486 15.2726C10.4752 15.193 10.1999 15.2175 10.0592 15.2848C9.77162 15.4194 9.69208 15.7009 9.70432 15.9823C9.74103 16.9245 10.1448 17.7138 10.6955 18.3685Z" fill="currentColor"/>
</svg>
