<svg xmlns="http://www.w3.org/2000/svg" viewbox="0 0 292 292" fill="none"><path fill="currentColor" d="M273.844 55.516A17.216 17.216 0 0 0 256.7 39.332c-10.148 0 54.34-.76-218.328 3.04a17.2 17.2 0 0 0-16.9 16.22c-.172 3.184-.38 6.4-.608 9.596-.408 1.624-.356 3.324.04 4.996.008-.116.032-.228.04-.344.056.404.824 3.972-.04.344-.32 7.748 5.48 15.208 12.672 18.696 7.992 3.88 17.232 4.02 26.124 4.088 55.368.416 105.416.112 160.784.524 8.08.06 21.708-.8 29.572-2.648 7.86-1.844 15.38-4.176 20.08-10.712 3.016-4.188 4.544-9.536 4.12-14.616.212-2.976-.128-8.576-.412-13ZM257.26 78.508c-29.584.188-59.708.936-88.84 1.656-42.88 1.056-87.232 2.16-130.7 1.508-6.416-.1-11.416-5.62-10.932-12.08.26-3.552.488-7.14.676-10.68a11.184 11.184 0 0 1 10.992-10.544c278.08-3.872 206.12-3.04 218.244-3.04a11.218 11.218 0 0 1 11.16 10.564c.232 3.68.424 7.4.52 11.08a11.181 11.181 0 0 1-3.128 8.113 11.18 11.18 0 0 1-7.992 3.423Zm13.464 130.584a17.214 17.214 0 0 0-17.144-16.184h-.24l-218.084 3.04a17.201 17.201 0 0 0-16.904 16.22c-.56 10.244-1.7 14.184 1.384 19.972.944 6.728 6.172 12.9 12.516 15.976 13.12 6.364 19.388 3.36 186.908 4.612 8.08.06 21.708-.8 29.572-2.648 7.86-1.848 14.24-3.892 18.944-10.432 2.988-4.16 3.812-11.14 3.488-17.976.02-.428.104-.84.092-1.276a311.319 311.319 0 0 0-.532-11.304Zm-16.58 22.992c-72.736.472-147.092 4.26-219.544 3.164-6.368-.096-11.42-5.58-10.936-12.08.264-3.548.488-7.136.68-10.68a11.18 11.18 0 0 1 10.992-10.54l218.088-3.04a11.215 11.215 0 0 1 11.316 10.56c.232 3.68.42 7.4.516 11.084a11.184 11.184 0 0 1-11.112 11.532Zm17.976-89.888c.032-3.16-.304-8.972-.492-11.88a17.202 17.202 0 0 0-17.384-16.184l-218.088 3.04a17.201 17.201 0 0 0-16.9 16.22c-.48 8.976-1.036 12.628-.34 15.048-1.524 8.432 4.648 16.892 12.452 20.676 13.12 6.36 19.388 3.36 186.908 4.612 8.08.06 21.708-.8 29.572-2.648 7.864-1.848 15.38-4.176 20.08-10.712 3.212-4.464 4.84-11.8 4.192-18.172Zm-17.076 11.112c-72.736.468-147.104 4.264-219.544 3.16-6.368-.092-11.412-5.576-10.928-12.08.26-3.544.488-7.136.676-10.676a11.185 11.185 0 0 1 10.992-10.54c278.08-3.876 206.12-3.04 218.244-3.04a11.216 11.216 0 0 1 7.672 3.072 11.216 11.216 0 0 1 3.488 7.492c.232 3.68.42 7.4.52 11.08a11.188 11.188 0 0 1-11.12 11.532Z"/></svg>
