<svg viewBox="0 0 34 34" xmlns="http://www.w3.org/2000/svg" fill="none"><path fill="currentColor" d="m4.079 6.293 1.667 2.918c.057.098.15.17.26.197l1.556.39 5.335 5.334.59-.589-5.419-5.418a.416.416 0 0 0-.193-.11L6.38 8.64 4.96 6.154l1.218-1.217 2.486 1.421.375 1.495c.019.073.057.14.11.194l5.419 5.418.589-.59-5.335-5.334-.39-1.555a.417.417 0 0 0-.197-.26L6.318 4.057a.417.417 0 0 0-.5.067L4.15 5.792a.417.417 0 0 0-.071.501ZM21.408 12.215l-9.17 9.17-.59-.59 9.17-9.17.59.59ZM10.633 21.709a.417.417 0 0 0-.357-.202h-2.5a.416.416 0 0 0-.358.202l-1.25 2.084a.417.417 0 0 0 0 .43l1.25 2.083c.075.125.21.202.357.202h2.501a.417.417 0 0 0 .357-.202l1.25-2.084a.417.417 0 0 0 0-.43l-1.25-2.083Zm-.593 3.966H8.011l-1-1.668 1-1.667h2.03l1 1.667-1 1.668Z"/><path fill="currentColor" d="M24.03 14.004a4.985 4.985 0 0 0 4.849-6.21.417.417 0 0 0-.7-.194l-2.594 2.592-2.058-.686-.687-2.058 2.595-2.595a.417.417 0 0 0-.196-.7A4.986 4.986 0 0 0 19.13 9.98l-9.128 9.128a4.92 4.92 0 0 0-.976-.101 5.002 5.002 0 1 0 5.001 5.001 4.906 4.906 0 0 0-.101-.976l2.185-2.185.956.955a.417.417 0 0 0 .59 0l.208-.208a.467.467 0 0 1 .662.66h-.001l-.209.21a.417.417 0 0 0 0 .588l4.972 4.973a3.364 3.364 0 0 0 4.78-4.736l-.022-.022-4.972-4.972a.417.417 0 0 0-.59 0l-.208.209a.467.467 0 1 1-.662-.66l.001-.001.209-.209a.417.417 0 0 0 0-.59l-.956-.955 2.185-2.185c.321.066.649.1.977.101Zm1.638 14.171c-.303 0-.603-.055-.886-.161l3.255-3.256a2.528 2.528 0 0 1-2.369 3.418Zm-4.722-10.832a1.3 1.3 0 0 0 1.834 1.831l4.677 4.682c.051.05.099.104.145.159l-3.564 3.563a2.43 2.43 0 0 1-.16-.144l-4.68-4.681a1.3 1.3 0 0 0-1.834-1.832l-.667-.666 3.582-3.578.667.666Zm1.683-4.192-9.455 9.453a.418.418 0 0 0-.11.396 4.196 4.196 0 1 1-3.031-3.031.42.42 0 0 0 .396-.11l9.453-9.454a.416.416 0 0 0 .11-.395 4.148 4.148 0 0 1 4.275-5.169l-2.198 2.2a.416.416 0 0 0-.101.426l.833 2.5c.042.125.14.223.264.264l2.501.834c.15.05.315.01.426-.1l2.199-2.2a4.147 4.147 0 0 1-5.168 4.275.417.417 0 0 0-.396.11h.002Z"/><path fill="currentColor" d="m25.576 24.963-.59.59-4.167-4.168.589-.59 4.168 4.168Z"/></svg>