<svg xmlns="http://www.w3.org/2000/svg" width="118" height="117" fill="none"><path fill="#A89C81" fill-rule="evenodd" d="M21.606 67.788c5.914 3.712 9.173 5.182 15.41 7.482 6.685 2.468 10.643 7.106 9.108 16.019-.862 4.968-.959 3.964-5.687 2.908-10.533-2.364-23.624-7.306-30.16-18.085C2.892 63.921-.068 52.391 3.806 37.822l-.026.124c9.367-27.912 46.671-16.13 47.48 10.876.506 16.68-13.712 23.02-25.734 20.151l-2.883-.835 2.902.693c9.749 1.84 22.127-2.203 24.032-15.404C52.414 33.8 30.06 19.407 16.172 27.9c-5.837 3.563-8.175 8.557-9.477 15.721-2.086 11.498.745 20.878 6.108 30.523 6.102 10.98 20.761 16.563 31.346 18.953 2.383-8.952.414-13.778-7.346-17.055-6.173-2.611-9.4-4.25-15.197-8.253Zm59.29-5.59c-11.53 3.634-26.753 6.53-38.51 7.753-6.918.72-13.402.512-19.16-1.353 6.011 2.358 12.806 3.316 19.692 3.413 17.638.26 35.905-5.117 43.296-7.008 6.07 1.755 23.397 2.228 26.072 7.455 2.093 4.081-5.156 9.419-7.754 10.591l-1.489.59c-17.84 5.674-38.244 7.3-56.854 10.694 18.688-1.425 39.921-2.753 57.482-7.721 6.225-1.762 16.149-10.06 10.604-17.639-3.485-4.76-15.216-6.847-23.274-7.954 9.949-11.161 6.995-38.004-11.2-38.115l-46.917.337c4.949.797 46.91 1.788 46.91 1.788 11.44.661 16.357 13.467 12.975 25.315-1.969 6.911-5.81 9.95-11.873 11.854Zm-59.393 5.538c-9.16-5.668-12.269-13.13-10.384-25.392 2.287-14.892 12.65-15.935 22.503-9.412 6.49 4.295 10.669 13.143 8.22 22.076-2.675 9.736-20.475 10.817-24.802 3.083-3.505-6.27-3.544-22.71 3.886-22.199 6.297.434 13.305 4.697 12.334 13.409-1.18 10.636-14.95 4.981-11.537-3.699.972-2.474 3.006-.44 4.023.914-.94-1.127-3-3.123-3.79-.79-2.559 7.513 8.265 11.866 9.891 4.793 1.866-8.13-5.506-12.016-11.018-12.036-4.58-.02-3.453 13.953-.654 18.39 3.103 4.936 16.53 3.148 18.208-1.904 2.766-8.324-1.178-15.436-6.166-19.161-8.512-6.355-17.172-6.167-19.776 6.866-2.358 11.796.453 19.032 9.062 25.062Z" clip-rule="evenodd"/></svg>