<svg xmlns="http://www.w3.org/2000/svg" width="92" height="93" fill="none"><path fill="#A89C81" d="M86.145 9.56c-.279-4.042-3.624-7.108-7.527-7.108H32.06c-3.903 0-7.248 3.066-7.527 7.109L23 32.84H10.175c-2.23 0-4.181 1.672-4.32 3.903L1.393 85.809c-.14 1.255.278 2.37 1.115 3.346.836.836 1.951 1.394 3.206 1.394h75.412c5.297 0 9.479-4.322 9.479-9.48 0-.139-4.46-71.369-4.46-71.508Zm-58.963.14c.139-2.509 2.23-4.46 4.878-4.46h46.558c2.509 0 4.74 1.951 4.879 4.6l4.042 64.26c-1.673-1.533-3.903-2.509-6.273-2.509H25.51c-.837 0-1.673.279-2.37.558L27.182 9.7ZM4.6 87.203c-.419-.279-.558-.697-.419-1.254L8.642 37.02c.14-.836.836-1.533 1.673-1.533h1.951L7.388 87.761H5.715c-.418 0-.837-.14-1.115-.558Zm76.527.558H8.642l4.74-52.273h9.339l-2.649 41.26c0 2.928 2.37 5.437 5.437 5.437h51.715c.697 0 1.394-.558 1.394-1.394 0-.697-.558-1.394-1.394-1.394H25.509c-1.534 0-2.649-1.254-2.649-2.648v-.14c0-1.394 1.255-2.648 2.649-2.648h55.618c3.764 0 6.69 3.066 6.83 6.69v.14c-.14 4.043-3.066 6.97-6.83 6.97Z"/><path fill="#A89C81" d="M27.879 61.833c.418 0 .697-.278.697-.557v-.14c0-.418-.279-.697-.558-.697-.418 0-.697.28-.697.558v.14c-.139.278.14.696.558.696ZM28.158 57.373c.418 0 .697-.279.697-.697l2.509-37.915c0-.418-.279-.697-.697-.697-.279 0-.697.279-.697.697l-2.51 37.915c0 .418.42.697.698.697ZM36.66 9.979l42.097.14 1.115 18.26c0 .418.279.697.697.697.418 0 .697-.279.697-.697l-1.115-18.4c0-.697-.697-1.394-1.394-1.394H36.66c-.418 0-.697.279-.697.697 0 .418.279.697.697.697ZM32.06 9.979h.418c.419 0 .697-.279.697-.697 0-.418-.278-.697-.697-.697h-.418c-.418 0-.697.279-.697.697 0 .418.28.697.697.697ZM78.06 66.712h-1.115c-.418 0-.697.28-.697.697 0 .419.279.697.697.697h1.115c.418 0 .697-.278.697-.697 0-.418-.418-.697-.697-.697ZM35.824 68.106H73.32c.418 0 .697-.278.697-.697 0-.418-.279-.697-.697-.697H35.824c-.418 0-.697.28-.697.697 0 .419.279.697.697.697Z"/></svg>