<svg xmlns="http://www.w3.org/2000/svg" width="114" height="115" fill="none"><path fill="#A89C81" d="M106.954 50.245c-.415-3.109-.829-6.218-2.073-9.12-1.244-2.901-3.524-4.974-5.597-6.632-1.865-1.451-3.316-2.28-11.4-7.877-1.658-1.036-3.109-2.28-4.56-2.901-3.109-1.451-5.803-1.037-7.461-.83-1.659.208-2.488.622-2.488.622 0 .208.83 0 2.488 0s4.145-.207 7.047 1.244c1.244.622 2.695 1.865 4.353 3.11 1.658 1.243 3.316 2.486 5.181 3.73 1.866 1.45 3.939 2.694 5.804 4.353 1.866 1.658 3.731 3.316 4.767 5.803-4.352.415-17.41 4.768-21.97 7.462-5.597-7.047-11.815-11.814-16.168-15.338-2.902-2.487-5.182-4.146-6.425-4.975 1.865-.621 3.523-1.036 5.182-1.658 3.109-1.243 5.596-2.072 7.254-2.694 1.658-.622 2.487-.83 2.487-.83 0-.207-3.73.415-10.156 2.488-3.109 1.036-7.255 1.865-11.815 3.109-4.767 1.244-9.949 2.487-15.752 3.938-2.902.83-6.011 1.658-9.12 2.073-3.731.622-7.255 1.243-10.778 2.487-1.659.622-3.524 1.451-5.182 2.902-.83.622-1.451 1.865-1.866 2.695-.414.829-.621 1.658-.829 2.694-1.036 3.731-1.45 7.876-1.658 11.815 0 2.072-.207 4.145 0 6.218.207 2.073.207 4.145 1.036 6.633.208.621.415 1.243 1.037 1.865.414.415.622.415.829.622 7.876 6.01 11.193 8.498 18.862 14.509 1.865 1.45 3.938 2.694 6.218 3.523 2.28.83 4.974 1.037 7.462.83a27.14 27.14 0 0 0 5.596-1.244h.207c2.488-.415 4.56-1.036 6.633-1.658 8.084-2.28 3.731-1.037 18.655-5.39 8.083-2.487 15.752-4.766 23.007-7.461 1.865-.622 3.523-1.244 5.389-1.865 1.865-.83 3.731-1.659 5.182-3.317.829-.829 1.243-1.865 1.658-2.902-.207-.414-.207-1.036-.207-1.45 0-.415.207-2.695 0-6.633-.208-3.524-.415-6.84-.829-9.95ZM82.91 62.267c4.56-.622 16.996-5.389 21.971-8.498.207 2.073.414 4.146.414 6.426v1.243c-2.072.415-6.84 1.866-12.021 3.938-4.975 1.866-9.328 3.731-11.193 4.975.414-2.28.622-4.975.829-8.084Zm20.313-19.276c1.036 3.11 1.243 6.425 1.658 9.327-4.975.83-17.204 5.597-21.764 8.498 0-1.658.207-3.316.207-5.181-.207-2.28-.621-3.731-1.45-5.182 5.596-.83 17.825-5.182 21.349-7.462Zm-86.64-2.902c3.316-1.036 6.632-1.658 9.742-2.487 3.316-.622 6.425-1.658 9.327-2.28.207 0 .207 0 .414-.207 1.244.829 3.731 2.072 6.84 4.352 2.28 1.659 4.975 3.731 7.877 6.426 1.45 1.243 2.901 2.694 4.352 4.145 1.451 1.451 3.11 2.902 4.56 4.353.622.622.83 1.45 1.244 2.28-4.974 1.036-13.265 3.524-18.033 4.974-.829.208-1.865.622-2.694.83-.83.207-1.451.207-2.073-.208-.622-.207-1.45-.829-2.487-1.45-11.4-8.084-21.142-14.302-24.666-15.96.415-1.037.83-1.866 1.451-2.488 1.037-1.036 2.695-1.865 4.146-2.28Zm-7.67 23.63V61.23c.415.622.83 1.036 1.451 1.45 1.866 1.245 3.731 1.452 4.146.623.415-.83-.83-2.073-2.487-3.11-1.244-.829-2.28-1.243-3.11-1.243v-.83c0-1.035.208-2.072.208-3.108 3.109 2.694 12.436 9.742 24.043 17.618a9.89 9.89 0 0 0 3.317 1.658c1.45.415 2.902.207 3.73-.207 1.866-.622 3.939-1.036 5.597-1.451a167.896 167.896 0 0 1 9.535-2.487c3.316-1.037 5.803-1.866 7.254-2.488.415 2.902.622 5.597.83 8.084-1.452.207-4.146.83-8.084 1.658-7.462 1.658-11.4 2.902-15.546 4.146-1.865.621-2.902.414-4.767-.83C22.594 71.803 12.023 65.17 8.914 63.719Zm.83-13.68c.207.206.414.621.621.828a31.513 31.513 0 0 0 4.56 3.731c3.731 2.695 7.255 4.353 7.67 3.524.414-.622-2.28-3.316-6.011-6.011-1.866-1.244-3.731-2.487-5.182-3.11-.83-.414-1.244-.62-1.658-.828.207-1.244.207-1.451.621-2.695 3.11 2.695 12.23 9.535 23.422 17.204.83.622 1.658 1.243 2.902 1.865 1.244.622 2.695.622 3.731.415 1.244-.207 2.073-.622 2.902-.83 4.56-1.45 12.644-4.352 17.41-6.425.415 2.073.83 5.597 1.037 7.877 0 .414 0 .621.207 1.036-1.45.207-4.145.83-7.669 1.451-4.974 1.036-10.57 2.073-15.545 3.316-.83.208-1.658.415-2.28.208-.622-.208-1.451-.622-2.28-1.244-11.4-8.498-21.764-14.924-25.08-16.375.207-1.45.414-2.694.622-3.938Zm43.32 36.48c-2.073.621-4.353 1.243-6.219 1.657h-.414c-1.658.622-3.316.83-4.975 1.037-4.352.414-8.29-1.037-11.607-3.731-9.12-7.047-11.607-8.706-18.862-14.302l-.622-.622c-.207-.207-.414-.414-.414-.829-.415-1.45-.83-3.109-.83-4.974 3.11 2.694 12.645 9.949 24.252 17.825.829.622 2.072 1.451 3.523 1.658 1.451.207 2.695 0 3.731-.414 1.866-.622 3.939-1.244 5.597-1.866 3.523-1.036 6.84-2.073 9.534-3.109 3.731-1.243 6.218-2.28 7.67-2.902.207 2.695.414 4.768.621 6.426v.829c-5.803 1.865-3.523 1.243-10.985 3.316Zm12.022-3.524v-.415c.207-1.658.207-3.938.414-7.047 0-4.767-.414-10.571-1.036-16.375-.208-1.036-.208-1.865-.415-2.902v-.207c-.207-1.243-.829-2.487-1.658-3.523-.83-1.037-1.658-1.659-2.487-2.488-2.073-2.072-4.146-3.938-6.84-6.218-2.902-2.487-6.011-4.56-8.498-6.01-2.695-1.452-4.975-2.488-6.426-2.903 4.975-1.45 9.742-2.694 13.68-3.938 2.073-.622 4.145-1.244 6.011-1.658.622 1.036 2.695 3.316 5.804 6.218 3.938 3.938 9.949 9.12 15.13 15.546 1.244 1.658 1.866 3.109 1.866 4.974v5.804c-.207 8.29-.83 13.68-.83 16.996-8.29 2.28-8.705 2.487-14.715 4.146Zm40.418-17.619v1.244c0 .415 0 .83-.208 1.036-.207.622-.621 1.244-1.036 1.866-2.073 2.28-6.01 3.109-9.534 4.353-4.56 1.45-9.12 2.901-14.095 4.56.415-1.451 1.036-3.731 1.45-6.633 2.074 0 6.84-1.451 12.437-3.524 4.975-1.865 9.12-3.938 10.986-5.389v2.487Z"/></svg>