<svg xmlns="http://www.w3.org/2000/svg" width="88" height="88" fill="none"><path fill="#A89C81" d="M28.546 58.037a119.419 119.419 0 0 0-3.517-.327c-1.107-8.202-4.17-12.207-9.363-12.207-10.156 0-13.238 19.624-10.27 29.928 1.521 5.284 4.83 10.279 10.3 10.498 4.11.165 7.768-2.996 9.483-6.734 1.488-3.247 1.818-6.866 1.977-10.454 2.678-1.37 7.58-1.365 10.556-1.171 1.37.092 2.56-.183 2.954-1.504.477-.306.977-.599 1.489-.869 1.262-.667 2.119-1.907 2.244-3.33.47-5.342.904-11.112 1.385-16.317 5.031.086 9.752.263 14.266.543.208.061.385.127.7.014 2.617-.059 4.588-1.887 4.786-2.647 1.198-.12 2.356-.475 3.39-1.1 4.712-2.843 6.519-9.774 6.696-15.276a41.708 41.708 0 0 0 3.94-.598c2.418-.49 4.15-2.67 4.118-5.182-.027-2.23-.13-4.49-.303-6.72C82.625 4.94 76.965 1.263 70.94 2.22 58.667 4.106 30.585 7.743 28.664 7.857c-3.634.216-7.392.439-10.167 3.938-2.97 3.746-6.554 9.579-6.756 16.096a.97.97 0 0 0 .785.983c1.214.235 2.324.283 3.548.27-.096 8.446 3.544 12.535 7.22 13.565.04.703.133 1.365.11 1.973a.972.972 0 0 0 .996 1.005c.478-.012.93-.02 1.402-.03l.98 7.735c.055.424.38.764.803.835.453.075.91.168 1.364.266-.117 1.068-.286 2.485-.403 3.544Zm-12.88 23.075c-4.9 0-9.04-7.712-9.04-16.84 0-9.121 4.14-16.828 9.04-16.828 2.57 0 6.07 1.1 7.382 10.124-3.641-.235-7.61-.35-12.122-.35-.476.007-.904.301-1.004.766-1.063 4.926-1.197 10.335-.377 15.23.07.42.802 1.244 1.464 1.141 2.567-.36 10.26.46 9.746.397a.97.97 0 0 0 .848-.5c.48-.865 1.041-1.64 1.644-2.355-1.204 6.303-4.584 9.215-7.58 9.215Zm4.543-8.328c-1.52-.084-3.444-.326-5.415-.443 2.704-1.385 5.561-2.464 8.494-3.265a16.05 16.05 0 0 0-3.079 3.708Zm40.185-28.62c-4.59-1.462-8.217-6.415-9.455-10.657-1.282-4.392-1.114-9.136-.754-14.02.956-.198 1.996-.185 3.27-.276-.7 3.332-.806 7.165-.237 10.95.965 6.423 3.408 12.092 9.823 13.207a4.145 4.145 0 0 1-2.647.795Zm7.528-3.465c-3.61 2.18-10.97 1.247-12.784-10.826-.575-3.828-.448-7.713.347-10.966 2.54-.674 3.49-2.421 4.537-4.771.12-.239.838-2.082 2.332-4.145 4.3.054 8.218 3.223 10.026 8.168 2.54 6.945 1.39 19.01-4.458 22.54ZM70.917 4.21c4.717-.792 9.806 1.311 10.525 10.525.17 2.188.27 4.407.297 6.593a3.295 3.295 0 0 1-1.35 2.708c.166-.55.052-1.138-.1-1.882-.965-4.749-6.622-12.742-10.582-14.571-1.392-.643-3.358-.63-5.102-.125 1.875-1.728 4.022-2.862 6.312-3.248ZM13.729 27.1c.457-5.65 3.633-10.749 6.288-14.098 3.046-3.838 7.594-2.787 12.58-3.554C45.234 7.516 46.811 7.748 64.251 5.19c-4.1 3.238-5.869 7.927-6.003 8.157-1.491 3.348-2.141 3.803-5.912 3.985-2.021.098-4.048.269-5.389 1.796-.632.72-.958 1.594-1.245 2.367-.735 1.971-1.108 2.708-4.735 3.035-19.502 1.756-22.607 3.129-27.238 2.57Zm11.59 16.623c-.049-.69-.118-1.216-.098-1.768a.97.97 0 0 0-.838-.997c-4.952-.676-6.431-6.895-6.366-11.899 2.433-.18 10.62-1.468 23.125-2.595 4.376-.393 5.376-1.6 6.38-4.292a7.99 7.99 0 0 1 .623-1.345c-.29 4.55-.306 8.986.93 13.225 1.013 3.469 3.49 7.37 6.797 9.873-8.997-.425-18.848-.49-30.554-.202Zm3.3 8.72-.866-6.829c1.948-.04 3.854-.072 5.704-.093-.107 2.316-.494 5.428-.663 7.855-.7-.145-3.486-.8-4.175-.934Zm.676 7.635a.971.971 0 0 0 1.08-.873c.083-.873.336-2.99.48-4.276a42.81 42.81 0 0 0 2.684.564c.334.056.683-.043.941-.416a9.65 9.65 0 0 0 1.75-.848c.073-.666.584-8.599.563-8.731 1.337-.006 2.653-.007 3.943-.001-.526 5.22-1.834 19.877-1.939 20.057-.466.446-13.341-1.935-27.456 6.506-.598-4.18-.49-8.697.321-12.898 5.14.014 10.773.104 17.633.916Z"/><path fill="#A89C81" d="M63.7 18.148c-3.336.91-4.28 4.517-4.236 8.003.049 3.875 1.386 8.006 5.23 8.006 2.956 0 6.578-3.197 4.82-10.598-.76-3.204-2.636-6.273-5.813-5.41Zm.547 14.02c-2.325-.498-2.812-3.673-2.841-6.043-.031-2.457.402-5.447 2.804-6.104 1.915-.516 2.955 2.047 3.415 3.986 1.387 5.833-1.173 8.646-3.378 8.16Z"/></svg>