<svg xmlns="http://www.w3.org/2000/svg" width="110" height="111" fill="none"><path fill="#A89C81" d="m40.386 35.252-.004.036c-.727 5.971-2.227 11.803-4.176 17.448-1.987 5.688-4.518 10.956-7.431 16.387-2.804 5.76-3.55 12.503-2.056 18.8 1.466 6.298 5.126 12.046 10.185 16.08.33.262.746.421 1.199.424h.01c11.31.066 22.619.071 33.928.002a1.97 1.97 0 0 0 1.212-.426c5.06-4.035 8.664-9.827 10.067-16.118 1.428-6.277.717-13.006-2.092-18.756-2.819-5.4-5.242-10.758-7.192-16.434-1.908-5.652-3.41-11.468-4.232-17.416l-.006-.04a.554.554 0 0 0-.566-.476c-1.694.054-3.387.142-5.081.205.588-2.29-.11-4.966-1.772-6.955-1.737-2.116-4.55-3.43-7.381-3.414-2.833-.022-5.648 1.294-7.386 3.41-1.666 1.988-2.362 4.67-1.768 6.96-1.633-.06-3.266-.145-4.899-.196a.548.548 0 0 0-.559.48ZM79.83 87.057c-1.304 5.27-4.373 10.027-8.508 13.492a2837.57 2837.57 0 0 0-32.49.002c-4.157-3.475-7.292-8.212-8.639-13.48a25.443 25.443 0 0 1-.765-5.76c1.939.035 3.962-.434 5.709-1.448 2.272-1.3 4.098-2.883 6.086-3.507 1.938-.666 4.223-.683 6.257-.258 2.045.373 3.639 1.471 5.504 3.043 1.864 1.523 4.478 3.312 7.34 3.647 1.41.232 2.767.175 4.135.043 1.365-.154 2.76-.508 4.01-1.16 2.603-1.22 4.229-3.307 5.975-4.755 1.453-1.34 3.281-2.156 5.313-2.654a26.336 26.336 0 0 1 .073 12.795Zm-.177-13.15c-2.12-.16-4.38.267-6.314 1.385-2.275 1.299-4.1 2.882-6.088 3.506-1.936.664-4.22.69-6.253.263-2.049-.362-3.639-1.467-5.506-3.033-1.867-1.517-4.474-3.314-7.336-3.646-1.41-.233-2.767-.178-4.135-.046-1.365.15-2.759.51-4.01 1.157-2.603 1.22-4.227 3.306-5.974 4.756-1.291 1.19-2.87 1.98-4.63 2.491.002-3.533.72-7.083 2.147-10.341 1.226-2.596 2.66-5.473 3.786-8.282.169-.418.314-.845.477-1.266 1.493.474 2.787 1.187 3.733 2.281.643.67 1.243 1.459 2.008 2.261a9.346 9.346 0 0 0 2.876 2.038c1.12.482 2.31.745 3.45.803a13.25 13.25 0 0 0 3.504-.195c1.194-.238 2.345-.752 3.365-1.347 1.023-.618 1.845-1.324 2.615-1.917 1.508-1.248 2.762-1.966 4.408-2.27.814-.176 1.694-.205 2.556-.193.83.098 1.664.169 2.448.466 1.58.527 3.114 1.798 5.051 2.844 1.512.822 3.249 1.154 4.885 1.056.558 1.26 1.13 2.51 1.722 3.734.497 1.133.89 2.305 1.215 3.494ZM54.998 28.597c3.512.002 7.024 2.099 8.891 6.38-2.964.112-5.928.21-8.892.36 4.57.232 9.141.406 13.711.553.448 5.901 1.472 11.784 3.139 17.492 1.21 4.3 2.797 8.557 4.583 12.65-1.343-.46-2.54-1.1-3.515-2.035-1.4-1.195-2.707-2.93-4.847-4.05-2.136-1.162-4.528-1.4-6.837-1.18-1.186.084-2.386.497-3.49.995-1.112.529-2.03 1.244-2.857 1.878-1.63 1.351-2.843 2.273-4.396 2.719-1.538.475-3.447.468-4.974.142-1.538-.369-2.894-1.619-4.727-2.895-1.44-.961-3.157-1.36-4.769-1.292.864-2.267 1.67-4.556 2.355-6.881 1.715-5.715 2.727-11.627 3.093-17.552 4.51-.144 9.021-.317 13.532-.544-2.964-.15-5.928-.247-8.892-.358 1.877-4.28 5.378-6.371 8.892-6.382ZM52.111 10.329c-.526 1.72-.187 3.688.302 5.072.48 1.45 1.053 2.553 1.34 3.6.262 1.122.59 2.266-.176 3.755.861.019 1.706-.541 2.28-1.265a5.627 5.627 0 0 0 1.041-2.521c.272-1.883-.272-3.537-.69-4.831-.453-1.347-.823-2.28-.981-3.468-.18-1.195-.169-2.501.072-4.149-1.574.623-2.692 2.117-3.188 3.807ZM42.002 13.916c-.527 1.72-.187 3.688.302 5.072.48 1.45 1.052 2.553 1.34 3.6.262 1.123.59 2.266-.177 3.756.862.018 1.706-.542 2.28-1.266.552-.743.911-1.623 1.042-2.52.272-1.884-.272-3.538-.69-4.832-.453-1.347-.823-2.28-.982-3.467-.178-1.196-.168-2.502.073-4.15-1.574.624-2.692 2.117-3.188 3.807ZM64.619 13.916c-.527 1.72-.187 3.688.302 5.072.48 1.45 1.052 2.553 1.34 3.6.262 1.123.59 2.266-.177 3.756.862.018 1.706-.542 2.28-1.266a5.627 5.627 0 0 0 1.042-2.52c.272-1.884-.272-3.538-.69-4.832-.453-1.347-.823-2.28-.981-3.467-.18-1.196-.169-2.502.072-4.15-1.574.624-2.692 2.117-3.188 3.807Z"/><path fill="#A89C81" d="m54.987 85.45-.296.044-.022.004a.729.729 0 0 0-.59.71 4.834 4.834 0 0 0-3.163.956c-1.23.894-2.115 2.424-2.239 4.079-.43 3.367 2.635 6.898 6.332 6.842a6.669 6.669 0 0 0 4.839-2.017c1.253-1.278 1.937-3.096 1.83-4.846-.055-1.755-.913-3.432-2.206-4.483-1.264-1.093-2.983-1.515-4.485-1.29Zm3.082 5.772c-.18 1.613-1.54 2.877-3.072 2.908a3.3 3.3 0 0 1-2.173-.712 3.648 3.648 0 0 1-1.25-2.184c-.318-1.577.566-3.582 2.569-4.547.229 1.21.48 2.419.844 3.628.285-.944.494-1.889.685-2.833 1.69.672 2.551 2.34 2.397 3.74Z"/></svg>