<svg xmlns="http://www.w3.org/2000/svg" width="112" height="113" fill="none"><path fill="#A89C81" d="M100.681 29.858H34.584c-1.188-5.346-4.294-11.93-13.152-12.694-4.124-.356-7.568.645-10.233 2.987-3.75 3.275-5.837 9.028-6.194 17.089-.407 8.807-.356 21.738-.305 32.123.017 3.19.034 6.177.034 8.808 0 .033.017.05.017.067 0 2.936.696 5.838 2.155 8.417 4.904 8.604 10.81 9.215 19.956 9.215h73.819a6.634 6.634 0 0 0 6.635-6.635V36.493c0-3.649-2.97-6.635-6.635-6.635ZM7.5 37.358c.238-5.057 1.358-11.827 5.362-15.34 2.139-1.867 4.955-2.665 8.383-2.376 7.28.628 10.861 5.566 11.642 16.002.526 7.162.322 14.526.135 21.654-.067 2.29-.118 4.615-.152 6.957a16.6 16.6 0 0 0-.917-.984c-2.749-2.613-6.194-3.954-9.91-3.818-4.344.119-8.688 2.172-11.947 5.634a20.248 20.248 0 0 0-2.885 3.97c-.05-10.317-.118-23.044.289-31.699Zm97.338 51.91c0 2.292-1.867 4.141-4.14 4.141H26.879c-8.468 0-13.474-.373-17.8-7.959-3.276-5.735-2.105-13.406 2.816-18.65 2.8-2.969 6.517-4.734 10.199-4.836 3.054-.067 5.871 1.002 8.128 3.14 3.92 3.716 4.786 10.233 1.952 14.797-1.493 2.427-3.852 4.107-6.296 4.48-1.951.289-4.107-.373-5.787-1.798-1.646-1.392-2.596-3.275-2.613-5.142 0-.679-.56-1.239-1.239-1.239h-.017c-.678 0-1.238.577-1.238 1.256.034 2.596 1.29 5.159 3.478 7.025 2.257 1.918 5.091 2.766 7.773 2.359 3.156-.475 6.16-2.596 8.026-5.634 2.325-3.784 2.58-8.654 1.001-12.795 0-3.665.102-7.399.204-11.03.187-7.179.39-14.611-.153-21.891-.05-.78-.136-1.884-.305-3.123h65.656a4.146 4.146 0 0 1 4.14 4.14v52.76h.034Z"/><path fill="#A89C81" d="M85.102 60.743c0 13.932.39 25.217.882 25.217s.882-11.285.882-25.217c0-13.932-.39-25.217-.882-25.217s-.882 11.285-.882 25.217ZM65.69 79.41c.486 0 .882-8.29.882-18.515 0-10.225-.396-18.514-.883-18.514s-.882 8.29-.882 18.514c0 10.225.395 18.514.882 18.514ZM50.466 82.379c.488 0 .883-9.019.883-20.143 0-11.125-.395-20.143-.883-20.143-.487 0-.882 9.018-.882 20.143s.395 20.143.882 20.143ZM11.98 35.526c.254-.085.1-1.086.322-2.614.203-1.493.882-3.563 2.443-5.175 1.578-1.595 3.632-2.308 5.125-2.529 1.51-.237 2.528-.102 2.596-.356.068-.204-.882-.815-2.664-.883-1.73-.085-4.344.543-6.33 2.546-1.968 2.02-2.562 4.633-2.426 6.363.102 1.765.73 2.716.933 2.648Z"/></svg>