<svg xmlns="http://www.w3.org/2000/svg" width="88" height="89" fill="none"><path fill="#A89C81" d="M8.315 82.592c0 .354 0 .885.177 1.239.177.885.531 1.77.885 2.477.885 1.592 2.3 2.654 3.892 3.361.885.354 1.593.531 2.477.531h2.3c12.208-.354 16.277-.354 27.777-.708-11.5-.353-15.57-.353-27.777-.707h-2.3c-.707 0-1.415-.177-1.946-.531-1.238-.53-2.3-1.592-3.008-2.83-.177-.532-.354-1.24-.53-1.77v-2.3c.707-53.785.53-41.223.707-58.03 0-.885 0-1.24.177-1.947.354-1.238 1.062-2.123 2.123-2.83.177-.178 14.862-11.324 14.685-11.324.884-.707 2.123-1.061 3.361-1.061h18.577c.177 0 25.831-.177 25.477-.177h1.062c.354 0 .53 0 .885.177 2.3.53 4.069 2.83 3.892 5.307 0 12.385 0 24.77.177 37.154 0 1.062.53 34.854.353 32.554v2.3a8.62 8.62 0 0 1-.707 1.946c-.708 1.239-1.593 2.123-3.008 2.831-.708.354-1.238.53-1.946.53h-2.3c-12.03.355-16.454.355-27.777.708 11.323.354 15.746.354 27.777.708h2.3c.885 0 1.77-.177 2.477-.53 1.592-.708 3.008-1.77 3.892-3.362.354-.708.708-1.593.885-2.477 0-.354.177-.885.177-1.239v-5.838c0-2.477.354-20.877.354-27.777.177-12.385.177-24.77.177-37.154.177-3.715-2.477-7.607-6.37-8.492-.53-.177-.884-.177-1.415-.354H30.785c-1.947 0-3.893.53-5.308 1.77-.177.176-14.862 11.5-14.685 11.5-1.415 1.06-2.653 2.83-3.184 4.6-.177.884-.354 1.945-.354 2.653v2.3c.53 16.1.354-2.477 1.061 56.792Z"/><path fill="#A89C81" d="M67.23 80.47h1.239c.53 0 1.061-.177 1.592-.354 2.123-.708 3.715-2.831 3.538-5.131l-.177-9.377-.177-9.377c0-2.123-1.415-3.892-3.361-4.6-.53-.177-.885-.177-1.415-.177H64.93c-6.192.354-12.562.53-18.754.885 6.192.354 12.562.53 18.754.884H68.469c.353 0 .53 0 .884.177 1.062.354 1.77 1.593 1.77 2.654l-.355 9.554-.176 9.377c0 .885-.708 1.77-1.593 2.123-.177 0-.354.177-.707.177H64.753L46 77.108l-18.754.177h-3.538c-.177 0-.53 0-.708-.177-.884-.177-1.592-1.062-1.592-2.123l-.177-9.377-.177-9.377c0-1.062.708-2.3 1.77-2.654.353-.177.53-.177.884-.177.177 0 3.715-.177 3.538-.177 6.193-.353 12.562-.53 18.754-.884-6.192-.354-12.561-.531-18.754-.885h-3.538c-.53 0-1.062 0-1.415.177-1.947.53-3.362 2.477-3.362 4.6l-.177 9.377-.177 9.377c0 2.3 1.416 4.423 3.539 5.13.53.178 1.061.355 1.592.355h3.538L46 80.645l18.754-.177h2.477ZM44.23 17.662c.177 2.123.177 4.423.354 6.546s.354 4.423.531 6.546l.177.885c0 .177 0 .707.177 1.061.354.708 1.062 1.239 1.946 1.062l3.185-.531-3.185-.53c-.354 0-.53-.355-.708-.709 0-.177 0-.884.177-1.415.177-2.123.354-4.423.531-6.546.177-2.123.177-4.423.354-6.546v-.708H53.784v.708c.177 2.123.177 4.423.354 6.546s.354 4.423.53 6.546c0 .53.178 1.238.178 1.415 0 .354-.354.531-.708.708l-3.184.53 3.184.532c.708 0 1.593-.354 1.946-1.062.177-.354.177-.885.177-1.061l.177-.885c.177-2.123.354-4.423.53-6.546.178-2.123.178-4.423.355-6.546v-.885c0-.177 0-.885-.177-1.415-.53-1.062-1.593-1.947-2.83-1.947h-6.724c-1.239 0-2.3.885-2.83 1.947-.532.53-.532 1.238-.532 1.415v.885ZM64.047 34.823H70.77c1.238 0 2.3-.885 2.83-1.946.178-.53.178-1.416.178-1.416v-.884c-.177-2.123-.177-4.423-.354-6.546s-.354-4.423-.531-6.546l-.177-.885c0-.177 0-.708-.177-1.062-.354-.53-1.061-1.061-1.77-.884l-3.184.53c1.062.178 2.123.355 3.185.531.354 0 .53.354.708.708 0 .177 0 .885-.177 1.416-.177 2.123-.354 4.423-.531 6.546-.177 2.123-.177 4.423-.354 6.546v.707H64.401v-.707c-.177-2.123-.177-4.423-.354-6.546s-.354-4.424-.531-6.547c0-.53-.177-1.238-.177-1.415 0-.354.354-.53.708-.708l3.184-.53-3.184-.531c-.708 0-1.593.354-1.946 1.061-.177.354-.177.885-.177 1.062v.884c-.177 2.124-.354 4.424-.531 6.547-.177 2.123-.177 4.423-.354 6.546v.884c0 .177 0 .885.177 1.416.53.884 1.77 1.77 2.83 1.77ZM30.431 34.823h6.724c1.238 0 2.3-.884 2.83-1.946.177-.53.177-1.415.177-1.415v-.885c-.177-2.123-.177-4.423-.354-6.546-.176-2.123-.353-4.423-.53-6.546L39.1 16.6c0-.177 0-.708-.177-1.061-.354-.708-1.062-1.239-1.946-1.062l-3.185.53 3.185.532c.353 0 .53.354.707.707 0 .177 0 .885-.177 1.416-.177 2.123-.353 4.423-.53 6.546-.177 2.123-.177 4.423-.354 6.546v.708h-6.016v-.708c-.177-2.123-.177-4.423-.353-6.546-.177-2.123-.354-4.423-.531-6.546 0-.531-.177-1.239-.177-1.416 0-.353.354-.53.708-.707l3.184-.531-3.184-.53c-.708 0-1.593.353-1.947 1.06.177.532 0 1.062 0 1.24v.884c-.177 2.123-.353 4.423-.53 6.546-.177 2.123-.177 4.423-.354 6.546v.885c0 .177 0 .884.177 1.415.53.885 1.592 1.77 2.83 1.77Z"/></svg>
