<svg xmlns="http://www.w3.org/2000/svg" width="122" height="123" fill="none"><path fill="#A89C81" fill-rule="evenodd" d="M24.183 45.158c.055.38-.26 1.025-.243 1.159.017.135-.077.088-.06.138l-.308 1.449c-.16.625-.402 1.223-.375 1.876.006.144-.06.047-.046.276l-.167 1.146-.008.565c-.02.71-.186 1.931-.378 2.636l-.087.29c-.024.35-.239 1.22-.53 1.421-.173.12-.405.514-.877.814-.333.212-.642.17-.933.304l-.228-.138c-.002-.086-.184-.043-.215-.166-.06-.23-.39-.194-.304-.524.041-.157-.15-.284-.13-.497.036-.393-.13-.45-.128-.524.004-.137-.046-.152-.045-.152.041-.097-.06-.18-.117-.276v-.234c-.145-.422-.025-.75-.03-.966a.977.977 0 0 1 .06-.345c.074-.326.313-2.988.47-3.201.104-.14.05-1.017.425-1.877l.736-1.697.313-.814.674-1.366c.002-.15.18-.088.2-.125.077-.12.472-.652.63-.73.164-.081.015-.424.225-.36.097.03.214-.137.214-.138 0-.315.49-.207.54-.207l.056.221c.127 0 .091.08.208.138.105.052.222-.1.25.4l.208 1.504Zm-.915 21.912c-.087.53.027.177-.067.607-.003 0-.004.014-.004.014-.024.24-.286.32-.427.483-.2.23-1.24.83-1.329.855l-.476.014c-.086-.09-.416.04-.39-.166.009-.073-.2-.093-.22-.193l-.09-.152c-.146 0-.115-.102-.2-.11h-.007c.023-.055-.094-.07-.166-.097l-.044-.11c-.262-.21-.14-.24-.225-.414a.268.268 0 0 1-.013-.18c.006-.027-.024-.04-.031-.069l-.129-.703c-.051-.207-.067-.053-.122-.566-.005-.041-.04-.083-.006-.124.057-.07-.048-.11-.033-.18.035-.168-.224-.102-.036-.91.124-.622.135-1.04.18-1.67-.063-.057.11-.046.123-.096.013-.028.007-.056.045-.083.022-.014-.005-.042.002-.055.196-.436.272-.198.124-.456-.034-.06.1.045.181-.11.013-.024-.134-.195.306-.248.16-.02.17.082.245.082l.226.028c.083.015.117-.116.418.11.271.205.94.42 1.066.732l.112.33c.072.054-.03.044 0 .07.133.111.286 1.15.32 1.255l.15.29.29.814c.002 0 .005.014.006.014.143.399.23.58.221.994Zm13.263 26.188c.394.134.222.152.663.318l2.585-2.87.535-.635c.919-1.26.883-2.282.732-3.642-1.103-9.927-1.044-16.998-.008-26.755.238-2.252.757-3.758-.873-5.699l-2.888-3.256c-1.943-2.18-1.038-5.497 1.553-6.596.727-.308 1.887-.435 2.685-.151l2.34.758 3.63 1.187c1.624.516 2.986.786 4.752.428 1.8-.365 3.561-.68 5.387-.91.642-.07 1.282-.125 1.923-.194 1.268-.128 2.813-.356 3.994-.276.196.014.452.014.684 0 4.857-.248 10.833-.422 15.56-.083 1.09.079 2.78.07 3.987.11-.083-.317-.167-.634-.252-.965.05.66-.02.308-.104.166-.053-.07-.105-.125-.158-.207-.028.148.18 1.512-.065.662-.332-1.049-.633-2.18-.977-3.284-.416-1.326-.74-2.186-.524-3.698.358-2.502 1.746-4.008 3.233-5.864l2.441-3.036c.78-1.027.639-2.388-.342-3.242-1.043-.908-1.837-.575-2.854-.235l-6.454 2.125c-1.797.59-3.236 1.056-5.226 1.09-.937.016-2.406-.018-3.262-.234l-2.329-.4a107.511 107.511 0 0 0-11.079-1.573c-.636-.056-1.273-.083-1.912-.125-3.693-.269-8.423-.158-12.252.194-4.06.372-8.608 1.17-12.586 2.042-2.856.625-5.366.568-8.221-.318-1.11-.345-2.229-.676-3.342-1.007-1.644-.484-3.32-1.088-4.988-1.56-1.467-.413-2.555 1.14-2.055 2.277.16.361.869 1.052 1.11 1.325l2.155 2.415c1.401 1.571 2.571 2.807 3.264 4.967.763 2.38.287 3.72-.256 5.92-.809 3.278-1.404 7.565-1.637 10.859-.343 4.848-.378 8.897.082 13.853.333 3.584.849 6.981 1.88 10.46.681 2.368.674 4.144-.53 6.457-.889 1.706-1.745 2.498-2.963 3.808l-2.74 3.09c-.912 1.042-.025 2.551 1.101 2.65.497.043 1.78-.429 2.233-.566l6.214-1.78c3.193-.873 6.216-.817 9.358.138 1.574.479 3.446.927 5.043 1.353.608.165 1.172.344 1.753.51Zm78.451 2.001c-.299-.85-.689-1.27-1.244-1.876-.465-.507-2.509-2.776-2.864-3.298-1.063-1.565-.812-2.747-.596-4.47.639-5.094.769-9.89.649-15.027-.03-.924-.015-1.849-.097-2.76-.116-1.545-.331-3.035-.417-4.636a1.944 1.944 0 0 0-.027-.234c-.243-1.354-.237-2.715-.562-4.236-.404-1.891-.311-3.48 1.031-5.009.441-.503 2.815-3.187 3.069-3.587.762-1.205.894-2.485.2-3.795-.829-1.564-2.58-2.413-4.285-1.89-.642.197-2.249.718-2.834.98-.893.398-2.878 1.221-3.909 1.49-.513.138-1.009.248-1.386.358-.824.25-1.614.08-1.863.138-.403.083-1.02.028-1.65-.055l1.53.51c.593.206 1.519.266 1.806.4.047.028.182.028.291.028a9.286 9.286 0 0 0 2.364-.262l6.187-1.573c1.14-.308 2.305 1.037 1.655 2.111-.259.43-2.778 2.77-3.53 3.63-1.413 1.614-1.989 3.739-1.782 5.85.524 5.348.775 8.562.748 14.101-.029 5.805-.299 8.525-.971 14.157-.318 2.66.233 4.763 2.061 6.844l2.686 3.036c.18.209.291.335.184.634-.1.28-.373.519-.69.428l-6.56-2.07c-1.85-.546-3.89-.593-5.76-.248-2.847.525-4.826.801-7.646 1.118-9.655 1.083-26.664 1.165-36.368-.621-1.206-.223-1.884-.407-3.17-.483-2.067-.122-3.421.257-5.27.869l-5.426 1.766c-.58.191-1.57-.742-.863-1.545l2.979-3.422a7.668 7.668 0 0 0 1.8-5.92c-.845-6.915-1.162-12.51-.844-19.648.133-2.979.347-5.583.697-8.5.153-1.273.2-2.314-.203-3.643-.608-2.007-1.868-3.166-3.194-4.636l-1.543-1.766c-.479-.884.431-1.815 1.067-1.738l.778.206c.74.235 1.478.47 2.222.663.183.055.39.124.563.18 1.694.602 4.216 1.423 6.007 1.517 1.653.087 2.894-.25 4.44-.552 4.633-.906 9.693-1.258 14.392-1.587 6.827-.478 14.865-.682 21.639-.345l5.802.455c1.09.092-.629-.26-.755-.317.463-.122 1.024-.047.142-.234.718.045 1.97.29 2.601.29-2.06-.793-5.446-1.304-7.663-1.436-.541-.032-3.448-.303-3.729-.4-.47-.163-2.217-.193-2.835-.193-.131-1.904-.42-3.277-.965-5.092-.174-.58-.125-1.968.177-2.387.448-.622.257-1.57 2.798-4.194l2.928-3.105a4.563 4.563 0 0 0 .744-5.091c-.314-.644-.827-1.245-1.36-1.711-1.207-1.052-2.69-1.18-4.179-.897-.914.173-1.105.222-2.086.565l-2.436.76c-4.355 1.345-6.041 2.393-10.747 1.407-8.647-1.814-16.688-2.782-25.397-2.263-1.597.095-2.916.175-4.506.358-3.294.38-7.7 1.113-10.921 1.794-1.955.414-4.002.28-5.909-.317l-8.319-2.663c-1.052-.334-1.957-.447-3.105-.152-3.452.888-5.345 5.356-2.805 8.431l.886.98 3.008 3.422c1.321 1.477 2.236 3.075 1.723 5.078-.39 1.524-.851 3.222-1.127 4.774-1.31 7.378-1.648 14.499-1.066 22.035.325 4.22.967 7.7 2.06 11.715.179.625.397 1.2.4 1.835.01 1.928-1.429 3.449-2.68 4.87l-2.945 3.437c-.88 1.067-1.33 2.318-1.208 3.711.28 3.177 3.341 5.232 6.433 4.306l.843-.318c.703-.222 1.717-.543 2.344-.828l5.28-1.78c1.17-.359 2.334-.58 3.544-.648 1.451-.088 2.648.158 4.043.455.537.114 1.73.347 2.27.373 1.08.041 2.22.179 3.394.344.99.145.845.056 1.493.056-2.242 3.474 1.148 8 5.206 6.637l2.906-.925 3.516-1.131c1.412-.426 2.923-.42 4.399-.124l3.266.565c2.416.4 4.813.51 7.224.773a89.41 89.41 0 0 0 4.329.262c9.806.411 21.367.223 31.09-1.628 2.931-.558 4.016-.1 6.391.662l4.772 1.518c3.288.949 6.372-2.427 5.24-5.616Z" clip-rule="evenodd"/></svg>