<svg xmlns="http://www.w3.org/2000/svg" width="98" height="97" fill="none"><path fill="#A89C81" d="M93.839 31.662c-.549-1.28-1.464-2.379-2.745-3.294-1.281-.732-2.563-1.281-4.027-1.281H75.903c0-3.111 0-6.406-.183-9.517l-.183-11.347c0-.55-.549-1.098-1.098-1.098l-12.628.549-6.406.183c-2.196 0-4.21.183-6.406.366 2.197.183 4.21.366 6.406.366l6.406.366c3.843.183 7.687.366 11.53.366l-.183 10.066c0 3.111-.183 6.405-.183 9.517H25.39c-.183-9.883-.183-8.785-.366-19.583 8.236-.183 9.883-.366 17.753-.732 2.196 0 4.21-.183 6.405-.366-2.196-.183-4.209-.366-6.405-.366L36.37 5.49c-4.21 0-8.419-.183-12.628-.366-.55 0-1.098.549-1.098 1.098-.366 11.713-.366 10.615-.55 20.68H11.299c-3.295 0-6.406 2.197-7.504 5.308-.183.732-.366 1.648-.366 2.38v13.36c0 .366.183.915.549 1.098.183 6.955.183 14.093.366 21.047l.183 3.478c0 1.28.549 2.562 1.098 3.66 1.464 2.196 4.026 3.294 6.406 3.111 4.026-.183 8.052-.183 12.079-.366 0 3.478 0 6.772.183 10.25a1.64 1.64 0 0 0 1.647 1.647c2.013 0 3.843 0 5.857-.184 5.856.184 11.53.184 17.386.367 16.838 0 21.963-.367 23.427-.367.732 0 1.281-.732 1.281-1.464-.183-3.477-.366-6.771-.55-10.249 4.21.183 8.603.366 12.812.366 2.38.183 5.125-.915 6.406-2.928a6.6 6.6 0 0 0 1.098-3.66l.183-3.478c.55-20.132.55-25.256.55-34.407V33.858c0-.732-.184-1.464-.55-2.196Zm-86.75 4.942v-1.83c0-.367.182-.916.182-1.282.55-1.647 2.38-2.928 4.026-2.928h37.885l27.636-.183H87.25c.915 0 1.647.366 2.38.732.732.55 1.28 1.098 1.647 1.83.183.366.366.733.366 1.282v1.647l.183 6.954v5.308l-21.047-.55-21.963-.548-21.779-.366c-6.588 0-13.177-.183-19.949-.183v-9.883ZM18.8 79.614c.366-3.661.55-5.491.732-7.139.183-1.28 1.098-2.379 2.563-2.562h2.013v9.883c-1.83-.183-3.478-.183-5.308-.183Zm30.381-8.969c6.59 0 13.178-.183 19.95-.366l2.379-.183c0 2.196.183 4.393.366 6.589-.366 4.026-.55 7.87-.732 11.896-7.321-.366-14.642-.366-21.963-.366-5.856 0-11.713.183-17.57.366h-4.026c.183-6.04.183-11.896.183-17.936h12.446a73.257 73.257 0 0 1 8.967 0Zm23.976 6.223c.183-2.196.183-4.576.366-6.955h.549c.732 0 1.83-.183 2.196 0 .55 0 1.098.366 1.647.732.366.366.733 1.098.916 1.647l.183 2.38c.183 1.647.366 3.111.549 4.758-2.014 0-4.027.183-6.223.183-.183-.732-.183-1.83-.183-2.745Zm12.994 2.38c-2.196 0-4.392.182-6.771.182.183-1.647.366-3.111.549-4.758 0-.915.183-1.647.183-2.563 0-.915-.366-2.013-.915-2.745-.55-.732-1.465-1.464-2.563-1.647-1.098-.183-1.83-.183-2.745-.183l-4.942-.183c-6.588-.366-13.177-.366-19.949-.366h-8.602c-3.843 0-10.066 0-14.641-.183-.549 0-.915.183-1.281.549h-.183c-.915 0-1.464 0-2.745.183-1.099.183-2.014.915-2.563 1.647-.549.732-.915 1.83-.915 2.745s.183 1.648.183 2.563c.183 1.647.366 3.111.55 4.758-2.197 0-4.393-.183-6.772-.183-3.295.366-6.04-2.196-6.04-5.49 0-.183.183-7.504.549-23.976 6.955 0 13.91-.183 21.047-.183l22.145-.366 21.963-.549 20.132-.55c.183 7.322.183 14.825.366 22.146l.183 3.478c0 3.294-2.745 5.856-6.223 5.673Z"/><path fill="#A89C81" d="M81.394 39.715c.366.183.732.366 1.098.366.366 0 .732-.183 1.098-.366.366-.366.732-.732 1.098-1.464-.366-.732-.732-1.098-1.098-1.464-.732-.55-1.281-.55-2.013 0-.366.366-.732.732-1.099 1.464.184.915.55 1.281.916 1.464ZM71.327 39.715c.366.183.732.366 1.098.366.366 0 .732-.183 1.098-.366.367-.366.733-.732 1.099-1.464-.367-.732-.733-1.098-1.099-1.464-.549-.55-1.28-.55-2.013 0-.366.366-.732.732-1.098 1.464.366.915.55 1.281.915 1.464ZM61.444 39.715c.366.183.732.366 1.098.366.366 0 .733-.183 1.099-.366.366-.366.732-.732 1.098-1.464-.366-.732-.732-1.098-1.098-1.464-.733-.55-1.282-.55-2.014 0-.366.366-.732.732-1.098 1.464.183.915.55 1.281.915 1.464Z"/></svg>