<svg xmlns="http://www.w3.org/2000/svg" width="102" height="101" fill="none"><path fill="#A89C81" d="M47.094 52.188c2.4.058 4.799.108 7.198.174 1.955.054 3.91.113 5.865.195 2.234.092 4.465.231 6.699.315 2.342.089 4.673.302 7.004.532 2.284.225 4.54.61 6.773 1.139 1.987.47 3.93 1.07 5.808 1.87 2.456 1.045 4.402 2.714 5.94 4.884 1.517 2.141 2.479 4.516 2.949 7.085.24 1.315.46 2.643.551 3.975.094 1.39.09 2.795.008 4.186-.14 2.394-.602 4.738-1.312 7.032-.568 1.838-1.155 3.672-2.068 5.372-.539 1.004-1.168 1.96-1.763 2.935-.266.434-.58.841-.815 1.291-.521 1.004-1.365 1.457-2.453 1.504-.846.036-1.693.038-2.54.05-2.367.035-4.733.07-7.1.1-1.644.02-3.288.04-4.931.046-2.35.009-4.701.01-7.052.006-2.276-.003-4.552-.017-6.829-.028l-8.507-.045c-1.619-.008-3.238-.03-4.857-.025-2.359.007-4.717.033-7.075.051-1.62.012-3.239.019-4.858.038-2.375.029-4.75.066-7.125.1-1.003.015-2.005.034-3.008.048-1.454.02-2.91.082-4.363.044-1.27-.032-2.538-.173-3.806-.273-.376-.03-.741-.081-1.124.008-.556.13-.988-.146-1.349-.542-.622-.682-1.051-1.486-1.454-2.307-1.191-2.43-2.173-4.947-3.11-7.483-.569-1.54-1.174-3.068-1.588-4.661a42.82 42.82 0 0 1-1.067-5.612c-.147-1.215-.282-2.434-.337-3.655-.041-.907.023-1.823.097-2.73.095-1.153.211-2.307.383-3.45.442-2.955 1.751-5.462 4.032-7.413.6-.514 1.288-.94 1.977-1.333 1.277-.728 2.67-1.177 4.083-1.569a41.352 41.352 0 0 1 7.507-1.351 544.15 544.15 0 0 1 6.117-.491c2.716-.204 5.435-.21 8.156-.159 2.934.055 5.868.1 8.802.15.18.003.361 0 .542 0v-.003Zm31.042 40.088v-.069c1.997 0 3.994.014 5.992-.006a31.207 31.207 0 0 0 2.654-.14c.902-.086 1.602-.555 2.088-1.32a24.755 24.755 0 0 0 1.967-3.735c.619-1.484 1.195-2.985 1.561-4.552.313-1.337.572-2.69.784-4.048.148-.953.202-1.924.251-2.889.035-.687-.005-1.379-.02-2.069-.026-1.307-.19-2.6-.443-3.88a20.97 20.97 0 0 0-1.467-4.626c-.62-1.366-1.425-2.602-2.476-3.674-1.341-1.37-2.958-2.286-4.746-2.938a37.155 37.155 0 0 0-6.276-1.698c-1.386-.245-2.779-.456-4.174-.645a65.995 65.995 0 0 0-3.127-.327c-.817-.071-1.637-.11-2.456-.157-.95-.053-1.9-.1-2.85-.148-.951-.048-1.901-.096-2.852-.137-.78-.033-1.56-.054-2.338-.084-1.042-.039-2.083-.089-3.124-.12-.697-.022-1.395-.01-2.093-.029-1.28-.034-2.56-.085-3.84-.121-1.076-.03-2.152-.055-3.228-.072-1.617-.025-3.235-.044-4.853-.063-1.98-.023-3.96-.047-5.94-.062-.608-.005-1.07.268-1.367.806-.075.136-.138.278-.217.412-.77 1.322-1.433 2.69-1.893 4.154-.559 1.78-.998 3.586-1.191 5.441a55.06 55.06 0 0 0-.298 4.074c-.032 1.065.056 2.134.12 3.199.048.819.103 1.64.222 2.45.196 1.348.544 2.662.974 3.956a47.49 47.49 0 0 0 2.448 5.955c.787 1.604 1.648 3.173 2.49 4.75.328.615.694 1.21 1.045 1.813.145.249.322.463.636.49.213.017.426.035.639.037 1.166.01 2.333.02 3.5.022 2.136.003 4.272 0 6.408.002 1.677.002 3.353.005 5.03.012 2.86.01 5.72.027 8.58.035 2.21.006 4.42.001 6.63.001h7.25Zm-38.926-.14c-.106-.189-.16-.296-.224-.399-.56-.897-1.123-1.792-1.683-2.69-.535-.86-1.066-1.72-1.6-2.58-.271-.437-.597-.849-.805-1.313-.761-1.697-1.495-3.409-2.013-5.2a45.912 45.912 0 0 1-.748-3.005 30.203 30.203 0 0 1-.434-2.518 47.256 47.256 0 0 1-.319-3.176c-.047-.777-.014-1.56.012-2.339.025-.728.068-1.457.143-2.182.08-.782.206-1.56.313-2.338.234-1.718.58-3.413 1.203-5.034.29-.755.65-1.487 1.018-2.21.37-.729.793-1.432 1.184-2.151.136-.25.103-.303-.181-.294-1.936.062-3.873.118-5.808.198a93.369 93.369 0 0 0-3.71.218 61.457 61.457 0 0 0-3.541.38c-1.022.143-2.036.35-3.048.554-.946.19-1.905.35-2.823.637-.997.312-1.974.711-2.922 1.152-.829.384-1.66.81-2.139 1.665-.06.106-.143.2-.226.29-.732.805-1.369 1.669-1.8 2.679-.378.887-.676 1.792-.793 2.752-.099.811-.199 1.623-.287 2.436-.124 1.14-.277 2.274-.117 3.429.172 1.232.274 2.473.42 3.708a30.75 30.75 0 0 0 1.284 5.822c.578 1.795 1.228 3.567 1.858 5.344.746 2.107 1.665 4.14 2.659 6.14.218.44.498.615.977.602 1.692-.043 3.384-.058 5.076-.094 1.387-.03 2.773-.072 4.16-.115 1.255-.039 2.51-.088 3.765-.13.713-.024 1.427-.047 2.142-.065 1.23-.03 2.462-.064 3.694-.081 1.438-.02 2.876-.022 4.315-.038.307-.004.614-.033.997-.054ZM59.068 50.292a37.48 37.48 0 0 1-5.295-.263 690.51 690.51 0 0 1-8.553-1.102c-2.295-.312-4.56-.794-6.811-1.339-2.24-.541-4.41-1.296-6.577-2.062-.89-.315-1.792-.595-2.69-.884-1.54-.496-2.95-1.245-4.265-2.175-.416-.294-.821-.603-1.233-.902a1.592 1.592 0 0 0-.293-.18c-.382-.165-.54-.45-.512-.862.05-.73.256-1.42.538-2.089.476-1.128.956-2.254 1.432-3.381.974-2.309 1.952-4.615 2.916-6.927.68-1.63 1.37-3.254 2-4.903.72-1.884 1.208-3.836 1.52-5.83.121-.766-.04-1.523-.144-2.28-.121-.883-.174-1.766.009-2.647.233-1.124.867-2.006 1.7-2.766 1.425-1.302 3.113-2.085 4.972-2.534 2.007-.485 4.05-.658 6.11-.69 1.53-.023 3.058.016 4.576.207 1.58.198 3.161.403 4.734.655 2.333.375 4.589 1.057 6.823 1.816 2.335.794 4.606 1.747 6.846 2.776 1.463.672 2.857 1.454 4.085 2.502 2.004 1.71 3.364 3.83 3.963 6.406.166.71.308 1.435.348 2.16.088 1.58-.523 2.923-1.598 4.055-.837.883-1.82 1.586-2.864 2.204-.268.159-.54.313-.81.468a4.137 4.137 0 0 0-1.53 1.536c-1.24 2.12-2.023 4.415-2.582 6.792-.35 1.486-.678 2.978-1.008 4.469-.464 2.091-.92 4.184-1.38 6.277-.012.056-.023.112-.037.168-.232.939-.524 1.163-1.491 1.194-.87.028-1.74.078-2.899.131Zm-10.3-39.13-.002.092c-.6 0-1.203-.045-1.797.01-.894.085-1.787.208-2.67.37-1.401.258-2.777.582-3.896 1.575-.483.428-.762.919-.784 1.548-.026.739-.025 1.479-.025 2.219 0 2.34.068 4.682-.116 7.017-.073.93-.206 1.873-.46 2.767a64.479 64.479 0 0 1-1.556 4.744c-.845 2.279-1.707 4.555-2.667 6.787-.79 1.836-1.734 3.607-2.611 5.406-.147.302-.145.335.176.428 1.084.316 2.161.658 3.258.923 2.596.628 5.173 1.35 7.83 1.699.72.094 1.437.214 2.156.317.729.104 1.457.205 2.186.304.752.102 1.503.205 2.256.301.688.088 1.377.165 2.065.249.69.084 1.38.172 2.069.257.672.083 1.345.158 2.016.247a245.386 245.386 0 0 1 5.307.779c.6.095.5.122.594-.444.18-1.093.29-2.2.52-3.283a430.97 430.97 0 0 1 1.698-7.562c.247-1.067.559-2.119.808-3.185.448-1.914 1.224-3.666 2.486-5.187.234-.283.454-.576.813-.735 1.623-.719 2.973-1.8 4.084-3.175.775-.96 1.134-2.065.93-3.302-.304-1.835-.99-3.512-2.149-4.983-.654-.83-1.39-1.555-2.423-1.902-1.819-.611-3.632-1.237-5.458-1.825a47.894 47.894 0 0 0-3.224-.923 63.409 63.409 0 0 0-3.596-.763 46.837 46.837 0 0 0-2.921-.43c-.721-.087-1.45-.123-2.175-.172-.907-.061-1.815-.112-2.723-.167Zm-15.699 25.95c-.102-.01-.21-.001-.305-.03-.603-.188-1.215-.355-1.803-.582-1.193-.461-2.372-.958-3.558-1.438-.42-.17-.548-.125-.742.276-.326.673-.64 1.351-.97 2.022-.09.184-.056.277.131.359.79.345 1.575.697 2.36 1.053 1.364.619 2.726 1.243 4.09 1.863.33.149.456.102.601-.226.14-.315.261-.637.399-.952.337-.774.71-1.535 1.014-2.321a546.14 546.14 0 0 0 2.564-6.772c.325-.875.622-1.762.888-2.657.174-.587.23-1.209.41-1.793.272-.883.396-1.785.48-2.697.045-.49.063-.982.116-1.47.049-.44-.01-.549-.441-.675-.716-.21-1.431-.42-2.147-.632-.996-.294-1.993-.585-2.986-.889-.23-.07-.331-.026-.397.218-.195.728-.415 1.45-.626 2.174-.187.64-.138.74.495.954 1.04.351 2.083.696 3.125 1.046.09.03.176.077.264.117l-.021.06c-.184-.017-.37-.024-.552-.052a10.08 10.08 0 0 1-3.482-1.222c-.044.073-.075.111-.092.155-.44 1.156-.88 2.312-1.314 3.47-.1.264-.027.397.275.495.741.24 1.488.461 2.229.7.606.194 1.207.401 1.866.621-.502.184-.768.176-1.408-.003-.94-.262-1.862-.581-2.79-.882-.402-.13-.562-.07-.718.302-.409.976-.814 1.953-1.23 2.925-.075.176-.037.24.138.297 1.385.45 2.769.902 4.15 1.363.364.122.718.276 1.076.416l-.025.087c-.214-.035-.437-.045-.642-.11-1.46-.454-2.917-.92-4.376-1.38-.418-.13-.55-.067-.733.332a861.83 861.83 0 0 0-1.126 2.456c-.17.373-.096.556.293.7.714.265 1.432.52 2.146.786 1.152.432 2.304.866 3.374 1.536Zm5.704-16.283c.009-.099.022-.17.02-.24-.018-.435-.044-.87-.057-1.304-.04-1.47-.108-2.94-.104-4.41.002-.816.3-1.57.892-2.155.745-.736 1.69-1.153 2.654-1.498 1.4-.501 2.858-.76 4.339-.853a40.345 40.345 0 0 1 3.126-.08c.957.015 1.913.108 2.87.178.66.048 1.325.075 1.976.182 1.479.244 2.954.51 4.423.805 1.91.383 3.775.922 5.574 1.678.567.238 1.132.483 1.702.714.083.034.19.01.285.013-.06-.077-.107-.172-.183-.225a2.187 2.187 0 0 0-.393-.202c-1.394-.59-2.785-1.188-4.187-1.76-2.077-.846-4.206-1.542-6.403-2.005C54.08 9.41 52.836 9.222 51.6 9c-.795-.143-1.57-.374-2.385-.432-1.141-.081-2.277-.238-3.415-.356-.066-.007-.137.049-.206.075.05.053.09.136.15.154.848.259 1.698.508 2.547.76.267.079.532.16.798.24l-.011.106c-.094 0-.192.02-.28-.003-1.02-.27-2.035-.555-3.056-.821-.817-.213-1.64-.433-2.49-.417-1.244.023-2.487.075-3.721.282-1.457.245-2.86.64-4.174 1.325-.063.033-.121.074-.233.143.247.087.44.168.642.224.779.216 1.564.413 2.34.642.299.088.579.242.868.365l-.023.07c-.07-.006-.144-.003-.211-.02-1.093-.28-2.189-.547-3.275-.848-.49-.136-.936-.095-1.323.218-.71.572-1.338 1.205-1.507 2.169-.096.541-.059.668.454.832 1.264.403 2.53.801 3.793 1.206.154.05.3.126.45.19l-.029.084c-.161-.037-.327-.063-.484-.113-1.202-.381-2.401-.772-3.604-1.15-.236-.073-.487-.101-.76-.157 0 .126-.01.208.002.286.074.461.126.928.236 1.38.184.751.341 1.503.34 2.28 0 .343-.022.687-.045 1.03-.015.226.086.358.29.428.092.031.185.064.28.093l4.538 1.353c.218.065.434.136.678.212Zm-6.186 20.325c-.164-.075-.288-.136-.415-.19-.908-.381-1.816-.76-2.723-1.142-1.197-.505-2.392-1.013-3.588-1.52-.387-.164-.516-.123-.712.244-.262.492-.513.99-.778 1.48-.094.175-.065.28.112.376.656.356 1.307.722 1.96 1.085 1.333.742 2.674 1.471 3.997 2.23.543.313.94.041 1.124-.37.137-.307.288-.608.43-.913.194-.415.386-.832.593-1.28Z"/><path fill="#A89C81" d="m69.967 45.076-2.405-.113c-.046.461-.126.907-.114 1.352.004.154.204.351.365.444.296.171.632.273.944.419.116.054.212.153.317.23l-.032.082c-.157 0-.315.008-.472-.002-.36-.023-.721-.048-1.08-.085-.18-.019-.23.048-.227.218.01.74.013 1.48.011 2.22 0 .112-.038.225-.058.338h-.1c-.02-.145-.052-.289-.053-.433-.006-.6-.017-1.2.002-1.799.018-.52-.19-.864-.674-1.054-.116-.046-.217-.132-.325-.199l.012-.076c.244-.03.488-.077.733-.087.219-.009.288-.09.297-.312.015-.343.07-.685.123-1.025.032-.209-.03-.352-.222-.44a2.1 2.1 0 0 1-.495-.292c.17 0 .343-.015.512.004.212.022.277-.065.316-.267.263-1.386.53-2.773.82-4.154.122-.576.308-1.14.466-1.708.02-.075.054-.147.09-.241.2.121.142.285.116.422-.076.41-.17.818-.255 1.228l-.901 4.341c-.012.056-.015.115-.033.17-.065.199.012.281.213.31.633.092 1.265.193 1.896.3.098.016.273-.011.213.209ZM24.846 48.963c.345.066.69.132 1.036.196.258.048.518.085.776.139.239.049.31-.136.361-.286.027-.08-.041-.248-.117-.296-.422-.269-.86-.513-1.292-.767-.076-.044-.148-.093-.222-.14l.02-.08c.133.018.276.013.4.058.346.128.686.273 1.026.417.38.162.52.113.71-.249.044-.081.11-.152.165-.227l.081.016c0 .145.018.292-.004.433-.049.316-.016.371.274.47.459.155.913.322 1.368.487.059.022.11.065.164.098l-.025.094c-.219-.023-.44-.035-.657-.07a25.508 25.508 0 0 1-1.04-.193c-.141-.029-.255-.03-.327.126-.077.167-.088.323.062.447.131.109.279.198.475.335-.218.04-.386.083-.556.098-.176.015-.246.108-.25.27-.006.213.013.43-.02.64-.038.242-.12.478-.193.751-.28-.165-.363-.365-.368-.591-.005-.237.021-.475.036-.713.024-.38-.041-.465-.392-.602-.42-.165-.836-.341-1.247-.529-.113-.052-.2-.161-.299-.244l.055-.088ZM86.452 81.648c-.504-.004-.986-.09-1.375-.437-.75-.67-.888-1.53-.403-2.393a.629.629 0 0 1 .648-.322c.596.068 1.18.191 1.722.466.644.326.91 1.019.889 1.61-.022.566-.498.998-1.113 1.057-.122.011-.245.013-.368.019Zm.97-1.232c-.022-.686-.372-1.13-1.052-1.285-.308-.07-.628-.088-.943-.12-.193-.019-.327.08-.415.249-.272.525-.024 1.453.612 1.643.297.089.596.18.9.238.575.108.916-.177.898-.725ZM86.257 86.071c-.931 0-1.656-.75-1.66-1.711-.003-1.245.875-1.807 1.886-1.82.82-.01 1.564.873 1.56 1.815-.004.954-.798 1.718-1.786 1.716Zm.073-.474c.564.007 1.25-.612 1.225-1.164-.034-.742-.35-1.454-1.316-1.428-.78.02-1.199.345-1.254 1.3-.04.685.604 1.282 1.345 1.292ZM21.683 89.546c-.184-.274-.38-.54-.55-.823a18 18 0 0 1-1.896-4.441 72.568 72.568 0 0 1-.826-3.39c-.128-.564-.201-1.141-.296-1.714-.048-.291-.115-.356-.421-.356-.79 0-1.578.011-2.367.006-1.261-.01-2.477-.244-3.636-.75-1.119-.49-1.696-1.352-1.697-2.56 0-.67.38-1.157.93-1.532.732-.5 1.572-.674 2.412-.851.879-.186 1.758-.372 2.641-.532.483-.087.975-.12 1.463-.176.314-.035.357-.077.358-.4.003-.938.002-1.875.005-2.812.003-.846.004-1.692.016-2.538.024-1.842.424-3.61 1.081-5.323.166-.43.68-.545.914-.203.083.123.113.31.101.464-.038.532-.11 1.06-.162 1.591-.08.814-.164 1.629-.226 2.445-.076.988-.152 1.977-.189 2.968-.034.918-.016 1.84-.022 2.759-.002.179-.023.358-.014.536.012.218.152.327.361.32.607-.02 1.213-.05 1.82-.077.064-.003.129-.017.194-.02 1.575-.059 3.149-.15 4.724-.164.9-.008 1.792.166 2.45.87.55.59.758 1.341.856 2.124.075.6-.097 1.13-.546 1.53a8.66 8.66 0 0 1-1.122.835c-.163.103-.402.077-.591.149-1.37.514-2.822.58-4.246.798-1.18.181-2.366.33-3.548.507-.402.06-.44.144-.348.553.184.815.348 1.635.552 2.445.511 2.024 1.045 4.042 1.559 6.066.128.507.218 1.024.323 1.537.009.043-.003.09-.006.136l-.05.023Zm-4.998-11.75.003.066c1.088-.079 2.178-.134 3.263-.241a77.095 77.095 0 0 0 3.278-.408c1.606-.228 3.18-.608 4.732-1.078.405-.122.68-.377.772-.81a2.27 2.27 0 0 0-.308-1.718c-.477-.775-1.142-1.228-2.084-1.18-.703.037-1.406.074-2.108.128-.545.042-1.089.11-1.633.167l-1.778.19c-.569.059-1.138.11-1.706.176-.666.077-1.331.165-1.996.251-.688.089-1.386.133-2.06.281-1.1.24-2.185.547-3.274.83-.842.22-.986.775-.898 1.485.098.79.745 1.384 1.543 1.513 1.408.228 2.82.427 4.254.348Z"/><path fill="#A89C81" d="M14.463 75.97c3.132-.138 6.261-.33 9.396-.385l.01.1c-.049.018-.097.047-.148.053-.617.077-1.234.152-1.852.225-.796.094-1.595.175-2.39.281-.92.124-1.838.197-2.768.074-.64-.085-1.29-.104-1.935-.16-.112-.009-.222-.051-.333-.079l.02-.11Z"/></svg>