<svg xmlns="http://www.w3.org/2000/svg" width="114" height="115" fill="none"><g fill="#A89C81" clip-path="url(#a)"><path d="M98.76 43.922c-.262-.266-.45-.416-.593-.496a14.573 14.573 0 0 0-.675-1.877c-.69-1.63-1.885-3.692-3.964-5.932-1.778-1.932-4.217-3.948-7.259-6.086l.004-.003h-.01c-.49-.345-.992-.692-1.513-1.043-9.184-6.161-18.647-12.681-22.57-14.742-7.332-3.885-13.333-2.787-18.98 2.28-7.327 6.565-13.508 17.253-30.112 40.016-2.045 2.825-3.04 5.457-1.508 8.639.031 1.762.505 4.225 1.93 6.865 3.034 5.71 12.498 13.102 17.718 16.896 5.792 4.238 12.209 8.197 19.129 11.701 7.858 3.931 12.846 5.678 21.117-1.772 6.348-5.802 21.253-25.501 26.862-33.38 2.194-3.025 3.981-5.939 4.568-8.81.869-3.857-.486-7.35-2.773-10.581-.593-.819-1.04-1.339-1.371-1.675Zm-2.602 19.486c-5.01 6.748-20.882 27.516-26.621 32.853-6.936 6.385-10.743 5.092-18.042 1.577a144.506 144.506 0 0 1-19.073-11.085C27.337 83.27 17.68 76.229 14.496 70.977a16.549 16.549 0 0 1-1.997-4.748c.604.871 1.337 1.645 2.105 2.317 2.608 2.25 9.688 6.393 16.034 10.703 9.146 6.216 14.651 12.044 21.129 15.087 4.394 2.034 8.712 2.317 12.986.252 11.073-5.274 31.679-37.627 31.731-37.718 1.472-2.537 2.597-5.823 2.142-8.682-.132-.791-.225-1.197-.275-1.188-.05.008-.056.428-.023 1.207.078 2.277-.608 5.111-2.586 8.211-.062.097-22.566 32.083-31.846 36.29-3.723 1.734-7.367 1.412-11.16-.407-6.087-2.96-11.556-8.854-20.644-15.17-6.132-4.258-13.446-8.671-15.673-10.643-.71-.633-1.327-1.3-1.8-2.053-1.423-2.146-1.413-3.822.75-6.72 13.774-18.11 21.92-32.49 29.761-39.543 4.71-4.26 9.45-5.248 15.765-1.952 3.1 1.596 8.241 5.044 22.5 14.273 3.792 2.426 6.634 4.562 8.648 6.56 2.018 1.99 3.21 3.778 3.978 5.206.786 1.424 1.136 2.495 1.43 3.21.502 1.463.695 1.567.9 1.53.138-.023.276-.11.274-.771l.11.218c2.979 6.003 3.407 9.062-2.577 16.962Z"/><path d="M32.18 54.735c-.907-.531-2.899-1.51-3.951-1.567-1.388-.145-2.664.315-3.775 1.169-1.688 1.264-2.987 3.342-3.888 5.254-.277.616-.254 1.269-.15 1.578.096.331.207.49.307.608.201.224.393.223.594.204.2-.02.39-.058.535-.335.074-.133.128-.34.196-.546.11-.331 3.329-4.713 5.25-5.047.102-.038.2-.022.3-.032.326-.066 8.958 1.944 3.808 8.738-1.555 2.105-3.037 2.32-5.283.92-.885-.554-1.684-1.194-2.346-1.702-1.323-1.038-2.138-1.722-2.295-1.585-.148.127.382 1.072 1.506 2.404.573.661 1.248 1.423 2.177 2.205 2.832 2.361 5.614 2.127 8.116-.708 3.325-3.752 3.916-8.435-1.1-11.558ZM30.208 50.869c.198.19.39.187.59.168.2-.019.392-.055.54-.298.076-.116.134-.298.205-.465.078-.182.148-.213.302-.364l.07-.066c.834-.932 2.037-2.544 3.175-3.274.908-.626 1.453-.505 2.053-.287.583.231 1.192.504 1.778.838 2.679 1.515 2.375 3.796.568 6.157-1.288 1.722-2.493 1.976-4.436.828-1.752-1.038-3.853-2.946-4.111-2.717-.459.403 2.254 3.284 3.169 4.05 2.422 2.004 4.933 1.919 7.235-.605 2.86-3.12 3.676-7.421-.976-10.25a15.354 15.354 0 0 0-2.184-1.013c-.093-.033-.158-.063-.272-.097-.154-.002-2.097-.954-4.438.821-.52.383-.91.78-1.244 1.154a13.536 13.536 0 0 0-1.853 2.754c-.204.413-.131.263-.33.685-.255.554-.24 1.166-.138 1.445.092.3.2.434.297.536ZM39.473 38.99c.2.21.392.206.593.186.2-.02.39-.058.536-.322.245-.423.074-.537.501-1.015.27-.264 1.389-1.875 2.42-2.947.873-.907 1.88-1.69 2.996-1.234.082.049 3.023 1.188 3.922 2.696.937 1.474-.032 4.096-1.075 5.561-3.4 4.921-8.272-3.073-9.144-2.34-.15.124.325 1.033 1.352 2.324.525.642 1.142 1.378 1.999 2.146.429.38.925.756 1.527 1.076 2.352 1.227 4.441.35 6.183-1.725 1.974-2.344 3.061-5.82 1.655-8.44-.802-1.394-1.85-2.105-2.717-2.68-3.39-2.113-5.968-2.483-8.707.825-.943 1.147-1.758 2.581-2.26 3.816-.243.61-.19 1.218-.088 1.505.098.306.207.457.307.567ZM47.896 26.52c.2.21.392.207.593.186.2-.02.39-.058.536-.321.074-.127.13-.322.195-.523.07-.215.143-.31.306-.492.537-.525 2.72-4.018 4.47-4.3.857-.142 2.275.7 3.094 1.21.675.425 1.414 1 1.773 1.604.35.55.465 1.538.26 2.547-.207 1.034-.664 2.074-1.334 3.015-.655.947-1.416 1.612-2.197 1.701-1.54.225-3.563-1.547-4.787-2.518-1.234-1.002-2-1.657-2.16-1.524-.15.125.325 1.033 1.352 2.324.525.642 1.142 1.379 1.999 2.146.429.38.925.757 1.527 1.076.6.314 1.34.563 2.172.56.832-.005 1.674-.307 2.338-.745.674-.438 1.206-.983 1.673-1.539.926-1.1 1.665-2.448 2.04-3.886.362-1.443.404-3.083-.385-4.554-.802-1.394-1.85-2.106-2.717-2.68-2.676-1.667-4.962-2.42-7.402-.467-1.378 1.087-2.449 2.754-3.221 4.338-.125.27-.21.442-.343.77-.244.61-.19 1.217-.09 1.504.1.307.208.458.308.567ZM46.453 63.92c-2.782-1.63-5.16-2.371-7.726-.399a9.051 9.051 0 0 0-1.399 1.317c-.945 1.09-3.11 4.11-2.64 5.515.096.332.208.49.307.608.202.224.393.223.594.204.2-.019.391-.058.536-.335.073-.132.128-.339.196-.545.073-.223.148-.313.33-.519.06-.076 1.767-2.22 2.642-3.088a7.33 7.33 0 0 1 1.068-.896c1.477-1.049 2.43-.344 2.542-.347.678.275 1.385.602 2.069 1.002 1.909 1.122 2.718 2.155 2.22 4.34-.247 1.094-.768 2.183-1.514 3.166-1.562 2.115-3.045 2.315-5.282.92-2.002-1.254-4.382-3.513-4.641-3.287-.148.128.381 1.072 1.506 2.404.573.662 1.248 1.423 2.176 2.206 1.969 1.64 4.179 2.2 6.326.857 1.573-.977 3.349-3.156 4.038-5.6 1.004-3.654-.515-5.76-3.348-7.523ZM53.763 62.463c-1.288 1.722-2.494 1.975-4.436.828-.769-.456-1.475-.994-2.058-1.418-1.169-.867-1.9-1.436-2.054-1.3-.147.13.3.962 1.273 2.126.496.579 1.08 1.242 1.896 1.925 2.393 1.978 4.9 1.953 7.235-.605 1.99-2.172 3.107-5.435 1.664-7.867-.822-1.293-1.82-1.885-2.64-2.383a15.366 15.366 0 0 0-2.184-1.013c-1.65-.587-3.145-.463-4.71.723a8 8 0 0 0-1.244 1.155 13.479 13.479 0 0 0-1.852 2.753c-.194.392-.138.277-.33.686-.256.553-.24 1.166-.139 1.444.092.301.2.435.298.536.197.19.388.187.59.169.2-.02.39-.055.54-.299.075-.115.133-.298.204-.464.078-.183.148-.213.302-.365l.07-.066c.907-1.024 2.072-2.567 3.175-3.273 1.102-.76 1.776-.357 1.848-.364.048.013.138.052.205.077.584.23 1.193.504 1.778.837.629.356 1.333.857 1.653 1.349.89 1.212-.163 3.604-1.084 4.809ZM63.883 54.12c.674-.438 1.206-.983 1.673-1.54 1.974-2.343 3.06-5.822 1.655-8.44-.802-1.394-1.85-2.105-2.716-2.68a16.231 16.231 0 0 0-2.33-1.191c-.35-.038-3.23-1.79-6.378 2.016-.943 1.148-1.758 2.583-2.26 3.816-.244.61-.19 1.218-.088 1.505.098.307.207.457.307.567.2.21.392.207.593.187.2-.02.39-.058.536-.322.073-.127.13-.321.195-.522.11-.334 2.276-2.973 2.727-3.44a6.71 6.71 0 0 1 .976-.855c1.296-.96 2.103-.297 2.254-.278.63.274 1.284.599 1.913.991.675.424 1.414 1 1.773 1.604.944 1.482-.044 4.116-1.074 5.562-1.382 2-2.697 2.224-4.799.833-.823-.541-1.568-1.16-2.185-1.65-1.234-1.002-2-1.657-2.16-1.524-.15.125.325 1.033 1.352 2.324.525.642 1.142 1.378 1.999 2.146 2.25 1.99 4.347 2.006 6.037.89ZM61.862 35.136c.099.307.208.458.307.568.2.21.392.207.593.187.2-.02.391-.058.536-.322.074-.127.13-.321.195-.523.027-.082 3.503-5.58 5.722-4.673l.236.1c.63.275 1.283.6 1.912.992.675.424 1.414 1 1.774 1.604.35.549.464 1.538.26 2.546-.208 1.035-.665 2.074-1.335 3.015-.654.948-1.416 1.612-2.196 1.702-.805.117-1.788-.329-2.602-.868-.823-.541-1.569-1.16-2.186-1.65-1.234-1.002-2-1.657-2.16-1.524-.15.124.325 1.033 1.353 2.324.525.642 1.141 1.378 1.998 2.146.429.38.925.756 1.527 1.076.6.313 1.34.563 2.172.56.832-.005 1.675-.308 2.338-.746.674-.437 1.206-.982 1.673-1.539.926-1.099 1.666-2.447 2.04-3.886.363-1.443.405-3.083-.385-4.553-.802-1.395-1.85-2.106-2.716-2.68-8.203-5.113-11.543 4.772-11.056 6.144ZM62.773 75.879a17.454 17.454 0 0 0-2.478-1.187c-1.481-.721-3.437-.604-5.248.788a9.076 9.076 0 0 0-1.399 1.316c-1.112 1.284-1.853 2.588-2.49 3.938-.277.616-.253 1.27-.15 1.578.096.332.208.49.307.609.202.223.393.222.594.203.2-.02.392-.058.536-.335.073-.133.128-.339.196-.545.135-.41 2.438-3.076 2.972-3.607 2.359-2.332 3.397-1.212 3.61-1.243.678.275 1.385.601 2.07 1.003 1.908 1.12 2.717 2.154 2.22 4.34-.248 1.093-.769 2.182-1.514 3.165-1.556 2.106-3.037 2.32-5.283.92-1.997-1.25-4.383-3.513-4.641-3.287-.488.421 2.684 3.769 3.682 4.61 2.833 2.361 5.614 2.126 8.117-.709 1-1.128 1.822-2.526 2.247-4.035 1.002-3.644-.505-5.751-3.348-7.522ZM70.963 65.728c-2.492-1.418-4.61-2.021-6.895-.29a8 8 0 0 0-1.243 1.155c-.853.97-2.774 3.641-2.322 4.883.092.3.2.434.298.536.197.19.389.188.59.168.2-.018.391-.054.54-.297.075-.116.134-.299.205-.465.034-.082 2.452-3.002 3.547-3.704 1.28-.883 2.407-.261 3.83.55 1.594.902 2.276 1.714 1.862 3.49-.21.915-.653 1.83-1.293 2.667-1.288 1.723-2.494 1.977-4.436.828-.769-.455-1.475-.993-2.058-1.417-1.168-.868-1.9-1.437-2.054-1.299-.147.13.3.96 1.273 2.125.496.579 1.08 1.241 1.896 1.925 2.423 2.002 4.928 1.924 7.235-.605.894-.975 1.645-2.198 2.04-3.533.938-3.253-.445-5.153-3.015-6.717ZM78.485 52.228c-.138-.021-2.458-1.37-5.073.725-.548.432-.96.875-1.306 1.292-.942 1.148-1.758 2.583-2.258 3.816-.245.61-.191 1.217-.09 1.504.099.308.208.458.307.568.2.21.392.207.594.187.2-.02.39-.059.535-.322.074-.127.13-.321.195-.523.072-.215.144-.31.307-.492 2.84-2.78 2.94-5.972 7.564-3.09 1.727 1.087 2.452 2.083 2.033 4.151-.335 1.67-1.855 4.523-3.53 4.717-1.542.224-3.564-1.547-4.788-2.52-1.235-1-2.001-1.656-2.16-1.522-.15.124.324 1.033 1.352 2.323 1 1.224 2.127 2.48 3.525 3.222.601.314 1.34.563 2.172.56 2.876-.015 5.34-3.433 6.051-6.17.87-3.461-.477-5.494-3.1-7.234a16.282 16.282 0 0 0-2.33-1.192ZM89.236 40.95c-2.673-1.665-4.969-2.417-7.402-.466-1.55 1.221-2.872 3.4-3.565 5.107-.244.61-.19 1.218-.089 1.504.099.308.208.459.307.568.2.21.392.207.593.187.2-.02.391-.058.536-.322.074-.127.13-.321.195-.522.071-.216.144-.311.307-.493 2.434-2.383 1.83-4.044 5.65-4.08.63.274 1.284.599 1.914.991 1.731 1.088 2.451 2.087 2.033 4.15-.336 1.67-1.855 4.525-3.53 4.717-.806.117-1.788-.329-2.603-.868-.823-.54-1.569-1.161-2.185-1.65-1.235-1.002-2.001-1.657-2.16-1.524-.15.125.324 1.033 1.352 2.324.525.642 1.142 1.378 1.998 2.146 1.047.927 2.284 1.64 3.7 1.636 2.882-.017 5.34-3.444 6.05-6.17.363-1.444.405-3.083-.384-4.554-.803-1.395-1.85-2.106-2.717-2.68Z"/></g><defs><clipPath id="a"><path fill="#fff" d="M.258 19.171 95.329.757l18.414 95.072-95.071 18.414z"/></clipPath></defs></svg>