<svg width="402" height="422" fill="none" xmlns="http://www.w3.org/2000/svg"><path d="M397.528 119.763c7.591 46.89 5.096 91.188-8.275 131.104-13.564 40.191-38.278 75.805-71.398 101.787-32.926 25.709-74.258 41.786-124.546 54.834-50.013 13.243-109.063 22.989-144.56-1.232C13.719 381.955 2.355 322.944.832 272.11c-1.716-50.559 6.33-93.409 11.44-144.909C17.11 75.507 18.93 14.695 49.433 2.904 79.66-9.081 138.764 27.68 194.293 31.078c55.335 3.672 107.289-26.296 142.434-16.717 34.678 9.66 52.742 58.593 60.801 105.402Z" fill="#FFF3E1"/></svg>