<svg width="90" height="90" fill="none" xmlns="http://www.w3.org/2000/svg"><g clip-path="url(#a)"><path d="m14.691 73.403 11.202 8.376a2.47 2.47 0 0 0 3.46-.5l8.376-11.201a2.47 2.47 0 0 0-.5-3.46 2.47 2.47 0 0 0-3.46.499l-4.801 6.421-.56-3.88c-1.687-11.686-.058-25.309 8.196-32.678-.47 11.017 7.627 15.404 14.156 14.462 6.747-.974 11.444-7.255 10.47-14.002-.89-6.167-6.509-12.229-16.505-9.949 5.036-8.154 15.462-14.882 27.656-16.642a2.472 2.472 0 1 0-.706-4.895C55.421 8.3 42.269 18.262 38.017 29.946 24.28 37.242 21.33 55.235 23.513 70.364l.56 3.88-6.42-4.8a2.47 2.47 0 0 0-3.461.499 2.47 2.47 0 0 0 .5 3.46Zm41.645-35.257c.584 4.048-2.234 7.817-6.282 8.401-5.416.782-10.344-3.903-7.95-13.062 8.633-3.684 13.502-.4 14.232 4.661Z" fill="#FFDCA6"/></g><defs><clipPath id="a"><path fill="#fff" transform="rotate(171.787 41.995 42.372)" d="M0 0h79.122v79.122H0z"/></clipPath></defs></svg>