<svg xmlns="http://www.w3.org/2000/svg" width="480" height="439" fill="none"><path fill="#FFC46A" d="M470.614 249.266c2.293 51.202 14.535 87.695 5.127 136.35-9.408 48.655-52.654 57.831-96.159 51.12-43.179-6.932-81.825-15.026-133.779-27.908-51.847-13.428-105.036 19.673-151.9 17.133-47.19-2.32-88.276-40.605-92.702-83.712-4.319-43.653 27.908-93 38.893-151.276C50.752 132.919 39.622 65.831 68.45 48.72c28.503-16.89 96.966 16.198 157.415 8.604C285.769 49.624 337.438.918 380.678.204c43.46-.386 78.491 47.22 89.618 96.727 11.127 49.507-1.869 100.587.318 152.335Z"/></svg>