<svg width="289" height="314" fill="none" xmlns="http://www.w3.org/2000/svg"><path d="M215.094 8.009c34.439 10.087 67.909 30.087 72.636 57.462 4.498 27.413-19.519 62.163-34.032 91.586-14.742 29.461-19.716 53.773-32.409 84.228-12.693 30.454-33.299 67.305-59.181 71.995-25.918 4.473-57.571-23.139-82.597-46.297-25.026-23.158-43.496-42.294-58.028-64.736-14.53-22.441-24.964-48.658-18.647-70.531 6.548-21.91 30.04-39.728 50.757-61.525C74.31 48.395 92.517 22.8 118.962 10.037c26.71-12.583 61.923-12.154 96.132-2.028Z" fill="#FFF3E1"/></svg>