<svg xmlns="http://www.w3.org/2000/svg" width="514" height="785" fill="none"><path fill="#FFC46A" d="M457.988 654.734c-18.528 52.262-70.141 77.563-118.097 101.128-47.957 23.564-92.258 45.392-130.966 34.873-38.316-10.997-71.039-54.341-109.032-89.42-37.993-35.078-81.212-62.4-89.44-109.274-8.229-46.875 17.88-113.872 15.418-191.026C23.756 323.89-7.628 236.548 1.995 169.669c9.666-67.388 59.99-114.344 112.518-142.131C167.041-.25 221.336-7.88 267.781 10.488c46.445 18.367 84.648 63.21 131.993 99.607 47.04 35.858 103.266 62.763 112.272 116.886 9.354 54.153-28.208 136.063-39.711 216.63-11.112 80.088 3.79 159.34-14.347 211.123Z"/></svg>