<svg width="393" height="400" fill="none" xmlns="http://www.w3.org/2000/svg"><path d="M391.347 173.373c-1.661 42.376-3.273 82.4-20.896 110.234-17.622 27.833-51.747 43.335-93.15 67.802-40.912 24.607-89.445 58.869-123.976 44.024-34.809-14.662-55.614-78.432-85.927-131.769-30.525-53.662-70.345-96.567-66.161-130.863 4.397-33.972 53.011-59.01 88.334-81.795 35.814-22.643 58.68-43.723 86.1-48.782 26.928-5.2 58.476 5.115 96.531 14.393 37.776 9.462 81.633 17.242 102.46 43.425 21.04 26.507 18.625 70.771 16.685 113.331Z" fill="#FFF3E1"/></svg>