<svg width="520" height="520" viewBox="0 0 520 520" fill="none" xmlns="http://www.w3.org/2000/svg">
<path fill-rule="evenodd" clip-rule="evenodd" d="M231 316.953L194.101 336H64V137H194.101L231 156.047V210.565C236.852 208.989 242.799 208.168 248.914 208.207C262.584 208.293 275.589 212.677 288.695 220.078V155.804L325.662 137H419.034L456.001 155.804V317.466L419.034 336.271L455.045 391H419.672L384.617 336.271H325.662L288.695 317.466V258.414C270.85 245.072 258.888 240.27 248.713 240.206C243.444 240.173 237.734 241.413 231 244.574V316.953ZM95.8095 162.586V310.414H199.19V259.033L182.452 239.412C188.105 234.589 193.664 230.199 199.19 226.334V162.586H95.8095ZM320.563 311.011V162.26H424.133V311.011H320.563Z" fill="#8B96A2"/>
<path fill-rule="evenodd" clip-rule="evenodd" d="M0 64C0 28.6538 28.6538 0 64 0H456C491.346 0 520 28.6538 520 64V456C520 491.346 491.346 520 456 520H64C28.6538 520 0 491.346 0 456V64ZM64 28H456C475.882 28 492 44.1177 492 64V456C492 475.882 475.882 492 456 492H64C44.1177 492 28 475.882 28 456V64C28 44.1177 44.1177 28 64 28Z" fill="#8B96A2"/>
</svg>
