<svg xmlns="http://www.w3.org/2000/svg" width="520" height="520" fill="none"><path fill="#FFC46A" fill-rule="evenodd" d="M231 316.953 194.101 336H64V137h130.101L231 156.047v54.518c5.852-1.576 11.799-2.397 17.914-2.358 13.67.086 26.675 4.47 39.781 11.871v-64.274L325.662 137h93.372l36.967 18.804v161.662l-36.967 18.805L455.045 391h-35.373l-35.055-54.729h-58.955l-36.967-18.805v-59.052c-17.845-13.342-29.807-18.144-39.982-18.208-5.269-.033-10.979 1.207-17.713 4.368v72.379ZM95.81 162.586v147.828h103.38v-51.381l-16.738-19.621c5.653-4.823 11.212-9.213 16.738-13.078v-63.748H95.81Zm224.753 148.425V162.26h103.57v148.751h-103.57Z" clip-rule="evenodd"/><path fill="#FFC46A" fill-rule="evenodd" d="M0 64C0 28.654 28.654 0 64 0h392c35.346 0 64 28.654 64 64v392c0 35.346-28.654 64-64 64H64c-35.346 0-64-28.654-64-64V64Zm64-36h392c19.882 0 36 16.118 36 36v392c0 19.882-16.118 36-36 36H64c-19.882 0-36-16.118-36-36V64c0-19.882 16.118-36 36-36Z" clip-rule="evenodd"/></svg>