<svg xmlns="http://www.w3.org/2000/svg" width="645" height="674" fill="none"><path fill="#FFF3E1" d="M1.149 129.724C9.197 62.781 73.05 4.695 142.27.934c69.108-4.277 143.695 46.285 230.204 45.223 86.51-1.062 185.457-53.86 226.126-30.392 40.558 22.953 23.352 122.062 26.538 205.954 3.701 83.779 27.792 152.343 15.874 216.358-12.545 63.612-61.615 122.788-124.49 165.575-62.763 43.302-139.847 70.327-219.67 69.933-79.823-.395-162.273-27.693-197.14-86.367-34.869-58.674-22.155-148.722-39.677-231.647C41.999 272.758-6.273 197.069 1.149 129.724Z"/></svg>