<svg width="124" height="124" viewBox="0 0 124 124" fill="none" xmlns="http://www.w3.org/2000/svg">
<path d="M62.0008 113C60.5712 113 59.2378 112.625 57.9999 111.969L45.3333 104.566C43.4291 103.535 44.3808 103.161 44.9525 102.974C47.5238 102.13 48 101.943 50.6668 100.443C50.9522 100.256 51.3331 100.35 51.6193 100.537L61.3337 106.253C61.7146 106.441 62.19 106.441 62.4763 106.253L100.476 84.607C100.857 84.4195 101.048 84.0444 101.048 83.5764V40.377C101.048 39.9081 100.857 39.5338 100.476 39.3463L62.4763 17.7947C62.0954 17.6063 61.6192 17.6063 61.3337 17.7947L23.3331 39.3463C22.9523 39.5338 22.7623 40.0027 22.7623 40.377V83.5764C22.7623 83.9506 22.9523 84.4195 23.3331 84.607L33.7146 90.5107C39.3335 93.3214 42.8566 90.0418 42.8566 86.7622V44.1255C42.8566 43.5636 43.3337 43.001 43.9999 43.001H48.8571C49.428 43.001 49.9997 43.4699 49.9997 44.1255V86.7622C49.9997 94.1646 45.905 98.4757 38.7619 98.4757C36.5714 98.4757 34.8572 98.4757 30 96.133L20.0001 90.5107C17.5242 89.1041 16 86.4801 16 83.6701V40.4707C16 37.66 17.5242 35.036 20.0001 33.6302L57.9999 11.984C60.3812 10.672 63.6188 10.672 66.0001 11.984L104 33.6302C106.477 35.036 108 37.66 108 40.4707V83.6701C108 86.4809 106.477 89.1049 104 90.5107L66.0001 112.157C64.7622 112.719 63.3342 113 62.0008 113ZM73.7141 83.295C57.0474 83.295 53.6198 75.798 53.6198 69.4263C53.6198 68.8637 54.0952 68.3019 54.7615 68.3019H59.7141C60.2858 68.3019 60.762 68.677 60.762 69.2396C61.5237 74.2055 63.7142 76.642 73.8103 76.642C81.8097 76.642 85.2381 74.8611 85.2381 70.6446C85.2381 68.2081 84.2856 66.428 71.8098 65.2098C61.4283 64.1791 54.9531 61.9302 54.9531 53.7776C54.9531 46.1868 61.4283 41.689 72.2861 41.689C84.4764 41.689 90.4762 45.8126 91.2387 54.8083C91.2387 55.0896 91.1433 55.3701 90.9533 55.6514C90.7624 55.839 90.4762 56.0265 90.1908 56.0265H85.2381C84.7619 56.0265 84.2856 55.6514 84.191 55.1826C83.0477 50.0291 80.0955 48.342 72.2861 48.342C63.5242 48.342 62.4763 51.3411 62.4763 53.5901C62.4763 56.307 63.7142 57.151 75.5245 58.6497C87.2378 60.1493 92.7621 62.3045 92.7621 70.3633C92.6667 78.6096 85.8098 83.295 73.7141 83.295Z" fill="#23223B"/>
</svg>
