<svg width="114" height="124" fill="#23223B" xmlns="http://www.w3.org/2000/svg"><path d="M56.61 124c-1.753 0-3.388-.456-4.906-1.253l-15.532-9c-2.335-1.253-1.168-1.708-.467-1.936 3.153-1.026 3.737-1.253 7.007-3.076.35-.228.817-.114 1.168.114l11.912 6.949c.467.228 1.05.228 1.401 0l46.596-26.315c.467-.228.701-.684.701-1.253V35.713c0-.57-.234-1.025-.701-1.253L57.193 8.26c-.467-.229-1.051-.229-1.401 0L9.195 34.46c-.467.228-.7.798-.7 1.253V88.23c0 .455.233 1.025.7 1.253l12.73 7.177c6.89 3.417 11.21-.57 11.21-4.557V40.27c0-.683.585-1.367 1.402-1.367h5.956c.7 0 1.401.57 1.401 1.367v51.833c0 8.999-5.021 14.24-13.78 14.24-2.686 0-4.788 0-10.744-2.848L5.108 96.66C2.072 94.95.203 91.76.203 88.344V35.827c0-3.417 1.869-6.607 4.905-8.316L51.704 1.196c2.92-1.595 6.89-1.595 9.81 0l46.596 26.315c3.037 1.709 4.905 4.899 4.905 8.316v52.517c0 3.417-1.868 6.607-4.905 8.316l-46.596 26.315c-1.518.683-3.27 1.025-4.905 1.025Zm14.363-36.112c-20.437 0-24.64-9.114-24.64-16.86 0-.684.583-1.367 1.4-1.367h6.073c.701 0 1.285.456 1.285 1.14.934 6.037 3.62 8.999 16 8.999 9.809 0 14.013-2.165 14.013-7.291 0-2.962-1.168-5.126-16.466-6.607-12.73-1.253-20.67-3.987-20.67-13.898 0-9.228 7.94-14.696 21.254-14.696 14.948 0 22.305 5.013 23.24 15.949 0 .342-.117.683-.35 1.025-.234.228-.585.456-.935.456h-6.073c-.584 0-1.168-.456-1.284-1.026-1.402-6.265-5.022-8.316-14.598-8.316-10.744 0-12.029 3.646-12.029 6.38 0 3.303 1.518 4.329 16 6.151C87.556 59.75 94.33 62.37 94.33 72.167c-.117 10.025-8.525 15.72-23.357 15.72Z" fill="#23223B"/></svg>