<svg xmlns="http://www.w3.org/2000/svg" viewBox="0 0 500 500"><path d="M353.45 275.74v19.94h4.6a28 28 0 0 1 0-6.32c.44-2.35 5.44-8.42 5.3-13.62ZM390.28 275.74v19.94h4.61a28 28 0 0 1 0-6.32c.44-2.35 5.44-8.42 5.29-13.62ZM426.34 275.74v19.94h-4.61a28 28 0 0 0 0-6.32c-.44-2.35-5.44-8.42-5.29-13.62ZM458.22 275.74v19.94h-4.6a28 28 0 0 0 0-6.32c-.44-2.35-5.44-8.42-5.3-13.62Z" style="fill:#e0e0e0"/><path d="M350.32 177.32h110.32v99.07H350.32z" style="fill:#ebebeb"/><path d="m430.92 177.32.82 99.07h28.89v-99.08l-29.71.01zM355.28 184.61h70.83v25.21h-70.83zM355.28 214.84h70.83v25.21h-70.83zM355.28 245.07h70.83v25.21h-70.83zM382.43 148.85l-3.05 28.35h39.14l3.25-28.35h-39.34z" style="fill:#e0e0e0"/><path d="m384.04 150.89-2.97 24.8h35.32l2.86-24.8h-35.21z" style="fill:#f5f5f5"/><path d="m389.99 155.06-1.83 16.46h22.29l1.14-16.46h-21.6zM420.37 161.06l8.08 16.25-9.93-.11 1.97-17.2M71.13 88.12a22.83 22.83 0 0 1 4.6 1.25 22.58 22.58 0 0 1 4.44 1.75 21.34 21.34 0 0 1-4.6-1.25 21.87 21.87 0 0 1-4.44-1.75ZM185.93 252.71v37.5h-5.02l-6.74-37.92 11.76.42zM140.29 252.71v37.5h-5.03l-6.73-37.92 11.76.42zM83.21 252.71v37.5h5.02l6.74-37.92-11.76.42zM51.15 252.71v37.5h5.02l6.74-37.92-11.76.42z" style="fill:#e0e0e0"/><path d="M154.56 170.23s19.84-5.72 25.31 1.91 6.06 81.09 6.06 81.09-35.41.64-36.06 0 4.69-83 4.69-83Z" style="fill:#e0e0e0"/><path d="m52.16 239.83-.87-127.39A29.51 29.51 0 0 1 81 82.73h46.76a29.14 29.14 0 0 1 29.13 29.83l-3 127.27Z" style="fill:#ebebeb"/><path d="M52.16 239.83s18-26.59 39.21-27.46 66.85 0 66.85 0 20.24.76 21.65 25.84V253H52.16Z" style="fill:#ebebeb"/><path d="m93.61 213.13 52.43-.28c5.47 0 11.7-.7 17 .81 15.63 4.43 17.92 24.42 16.68 38.2-.05.57.83.57.88 0 1-11.55-.18-27.74-10.06-35.44-5.71-4.44-12.33-4.51-19.14-4.48l-57.79.31a.44.44 0 0 0 0 .88ZM142.41 86.71a2.33 2.33 0 0 1-.35-.07c-.23 0-.56-.16-1-.24l-1.68-.23c-.67-.06-1.44-.15-2.3-.21-3.48-.24-8.53-.36-14.76-.36-3.12 0-6.53 0-10.19.11a108.58 108.58 0 0 0-11.67.58 55.73 55.73 0 0 0-6.19 1.13 29.17 29.17 0 0 0-6.15 2.2 24.69 24.69 0 0 0-9.56 9.6 16.22 16.22 0 0 0-1.26 3.24 24.32 24.32 0 0 0-.52 3.42c-.28 2.3-.51 4.57-.73 6.8-.44 4.47-.77 8.78-1 12.89-.54 8.23-.8 15.65-1 21.88s-.3 11.25-.4 14.76c0 1.72-.09 3.07-.12 4v1a1.65 1.65 0 0 1 0 .36 2.45 2.45 0 0 1 0-.36v-5c0-3.49.09-8.53.23-14.77s.38-13.66.89-21.9c.26-4.11.58-8.43 1-12.9.22-2.24.45-4.51.72-6.82a24 24 0 0 1 .54-3.49A16.25 16.25 0 0 1 78.09 99a23.52 23.52 0 0 1 4.27-5.67 24 24 0 0 1 5.52-4.14 28.92 28.92 0 0 1 6.26-2.23 54.59 54.59 0 0 1 6.26-1.12 104.38 104.38 0 0 1 11.71-.54c3.67 0 7.08-.07 10.2 0 6.24 0 11.29.22 14.77.52.87.08 1.64.18 2.31.25s1.23.21 1.68.29.78.23 1 .29a1.68 1.68 0 0 1 .34.06Z" style="fill:#e0e0e0"/><path d="M67.65 120.21a14 14 0 0 1 3.72 1 14.07 14.07 0 0 1 3.54 1.52 14.49 14.49 0 0 1-3.72-1 15 15 0 0 1-3.54-1.52ZM71.59 127.53c0-.15.73-.3 1.65-.34s1.67 0 1.67.19-.73.29-1.65.33-1.66-.04-1.67-.18ZM101.59 125.09a2.39 2.39 0 0 0-1.59.59 1.58 1.58 0 0 0-.45 1.62 1.85 1.85 0 0 0 1.56 1.29 2 2 0 0 0 1.75-1.06 1.82 1.82 0 0 0 0-1.72 3.06 3.06 0 0 0-1.28-1.17s.2 0 .51.07a2.25 2.25 0 0 1 1.09.91 2.19 2.19 0 0 1 .16 2.12 2.38 2.38 0 0 1-2.22 1.37 2.29 2.29 0 0 1-2-1.68 1.93 1.93 0 0 1 .66-2 2 2 0 0 1 1.34-.48c.32.05.48.11.47.14Z" style="fill:#e0e0e0"/><path d="M99.87 113.29a4.31 4.31 0 0 1 1.59 1.22 8.61 8.61 0 0 1 1.67 9.13 4.12 4.12 0 0 1-1 1.7c-.08 0 .33-.68.7-1.82a9.22 9.22 0 0 0-1.6-8.77c-.8-.93-1.41-1.39-1.36-1.46ZM101 141.61c-.06-.05.43-.72 1-1.91a14.57 14.57 0 0 0 1.41-4.93c.17-2 0-3.89-.75-4.91a3.3 3.3 0 0 0-1.66-1.16s.22-.08.6 0a2.67 2.67 0 0 1 1.37.91 4.61 4.61 0 0 1 .92 2.26 12.87 12.87 0 0 1 .06 2.93 12.72 12.72 0 0 1-1.6 5.05 5.23 5.23 0 0 1-1.35 1.76ZM108.27 126.63a17.52 17.52 0 0 0-2.21-.39 15.16 15.16 0 0 0-2.21.38c-.1-.1.8-.91 2.21-.9s2.32.82 2.21.91ZM131.34 125.09a2.38 2.38 0 0 0-1.59.59 1.58 1.58 0 0 0-.45 1.62 1.85 1.85 0 0 0 1.56 1.29 2 2 0 0 0 1.75-1.06 1.82 1.82 0 0 0-.05-1.72 3.13 3.13 0 0 0-1.28-1.17s.2 0 .51.07a2.34 2.34 0 0 1 1.09.91 2.19 2.19 0 0 1 .16 2.12 2.38 2.38 0 0 1-2.22 1.37 2.29 2.29 0 0 1-2-1.68 1.93 1.93 0 0 1 .66-2 2 2 0 0 1 1.34-.48c.36.05.53.11.52.14Z" style="fill:#e0e0e0"/><path d="M129.62 113.29a4.31 4.31 0 0 1 1.59 1.22 8.67 8.67 0 0 1 1.67 9.13 4.12 4.12 0 0 1-1 1.7c-.08 0 .33-.68.7-1.82a9.41 9.41 0 0 0 .33-4.59 9.57 9.57 0 0 0-1.93-4.18c-.8-.93-1.41-1.39-1.36-1.46ZM130.77 141.61c-.07-.05.43-.72 1-1.91a14.57 14.57 0 0 0 1.41-4.93c.17-2 0-3.89-.75-4.91a3.3 3.3 0 0 0-1.68-1.16s.21-.08.6 0a2.67 2.67 0 0 1 1.37.91 4.61 4.61 0 0 1 .92 2.26 12.35 12.35 0 0 1 0 2.93 12.57 12.57 0 0 1-1.6 5.05 5.3 5.3 0 0 1-1.27 1.76ZM138 126.63a17.52 17.52 0 0 0-2.21-.39 15.16 15.16 0 0 0-2.21.38c-.11-.1.8-.91 2.21-.9a2.54 2.54 0 0 1 2.21.91Z" style="fill:#e0e0e0"/><path d="M52.7 169.38s30.33-7.85 35.82 2.48S95 253.31 95 253.31s-43.8 1.61-43.9-.23 1.6-83.7 1.6-83.7Z" style="fill:#f5f5f5"/><path d="M51.06 169s20-5.15 25.51 2.47 6.91 82.15 6.91 82.15-32 1-32.62.3.2-84.92.2-84.92Z" style="fill:#ebebeb"/><path d="M62.8 206.18s-.15-.05-.38 0a.84.84 0 0 0-.65.59 3.21 3.21 0 0 0-.06 1.47.93.93 0 0 0 1.09.87 1.33 1.33 0 0 0 .87-1.79 3.07 3.07 0 0 0-1-1.35l-.19-.16h.22q.54-.12.57-.06s-.16.14-.5.29v-.21a2.75 2.75 0 0 1 1.29 1.39 2 2 0 0 1 0 1.4 1.6 1.6 0 0 1-1.23 1.06 1.42 1.42 0 0 1-1.17-.32 1.68 1.68 0 0 1-.48-1 3.26 3.26 0 0 1 .19-1.71 1 1 0 0 1 1-.64c.35-.01.45.15.43.17Z" style="fill:#e0e0e0"/><path d="M68.5 192.66c.13.08-1.59 3-3.23 6.75s-2.57 7-2.73 7a8.49 8.49 0 0 1 .46-2.16 39.09 39.09 0 0 1 1.8-5 39.57 39.57 0 0 1 2.43-4.73 7.84 7.84 0 0 1 1.27-1.86ZM56.54 193.92a7.07 7.07 0 0 1 1.08 1.71c.6 1.1 1.37 2.65 2.13 4.4s1.36 3.38 1.75 4.57a7.68 7.68 0 0 1 .51 2c-.15.05-1.23-2.83-2.74-6.32s-2.87-6.28-2.73-6.36ZM68.36 230.42a22.52 22.52 0 0 1-.72-3.12c-.39-1.93-.94-4.6-1.6-7.53s-1.31-5.59-1.79-7.5a22.82 22.82 0 0 1-.69-3.13 17.29 17.29 0 0 1 1 3c.56 1.89 1.27 4.54 1.94 7.48s1.15 5.63 1.45 7.59a16.9 16.9 0 0 1 .41 3.21ZM56.56 222.26a8 8 0 0 1 .39-2 41.09 41.09 0 0 1 1.61-4.75 39.71 39.71 0 0 1 2.18-4.51 7.27 7.27 0 0 1 1.15-1.74c.13.08-1.38 2.85-2.84 6.46s-2.34 6.58-2.49 6.54ZM243.12 51.89h-59.04v76.99l59.04 1.48V51.89z" style="fill:#e0e0e0"/><path d="M239.23 54.63h-51.66v69.82l51.66 1.74V54.63z" style="fill:#fff"/><path d="m230.19 67.31-34.28-1.3v48.8h34.28v-47.5z" style="fill:#e0e0e0"/><path d="m195.91 114.81 34.28-25.07-34.28-23.73v48.8z" style="fill:#f5f5f5"/><path d="M306 104.51h-46.11v60.13l46.11 1.15v-61.28z" style="fill:#e0e0e0"/><path d="M302.97 106.65h-40.35v54.53l40.35 1.36v-55.89z" style="fill:#fff"/><path d="m295.9 116.56-26.77-1.02v38.11h26.77v-37.09z" style="fill:#e0e0e0"/><path d="m269.13 153.65 26.77-19.58-26.77-18.53v38.11z" style="fill:#f5f5f5"/><ellipse cx="253.56" cy="371.11" rx="178.04" ry="75.91" style="fill:#f5f5f5"/><path d="M207.2 366.76c-4.74.82-9.64 1.7-13.63 4.39s-6.83 7.71-5.47 12.32c1.66 5.63 8.25 7.93 14 9.22a262.33 262.33 0 0 0 113.28.27c4.55-1 10-3.09 10.53-7.73.62-5.37-5.8-8.52-11.05-9.8a209.1 209.1 0 0 0-56.17-5.85" style="fill:#e0e0e0"/><path d="M425.87 351.92c.08 0 .31.27.68.93a16.1 16.1 0 0 1 1.26 3.12 35.82 35.82 0 0 1 1 12.83c-.07 1.41-.35 2.87-.55 4.42s-.61 3.14-1.12 4.78a53.6 53.6 0 0 1-1.71 5.1l-1.16 2.61c-.38.89-.91 1.74-1.37 2.63a41.87 41.87 0 0 1-8 10.17 108.47 108.47 0 0 1-11.05 9A127 127 0 0 1 375 422.68a331.21 331.21 0 0 1-35.37 11.4 333.54 333.54 0 0 1-40.29 8l-10.72 1.24-2.7.31c-.91.1-1.82.14-2.73.21l-5.49.38c-7.34.65-14.82.67-22.37.86A336.35 336.35 0 0 1 171 434.44c-3.17-.84-6.31-1.62-9.38-2.49l-9-2.82-4.4-1.38c-1.46-.44-2.87-1-4.29-1.52l-8.33-3.06c-10.9-4-20.92-8.64-29.24-14.3a63.15 63.15 0 0 1-18.92-19.3 51.44 51.44 0 0 1-7.08-19.13 38.37 38.37 0 0 1 .14-12.85 19.64 19.64 0 0 1 .83-3.23c.24-.72.41-1.07.49-1s.1.41 0 1.15-.25 1.82-.31 3.25a44.57 44.57 0 0 0 .81 12.37A51.84 51.84 0 0 0 89.86 388a61.3 61.3 0 0 0 18.5 17.79c8.08 5.23 17.86 9.52 28.71 13.33l8.27 2.89c1.41.47 2.8 1 4.25 1.44l4.37 1.3 8.91 2.68c3 .82 6.15 1.55 9.27 2.35a345.18 345.18 0 0 0 83.18 10.09c7.45-.19 14.81-.2 22-.82l5.41-.36c.9-.07 1.79-.1 2.68-.2l2.67-.29 10.6-1.2a343.11 343.11 0 0 0 39.76-7.6 346.58 346.58 0 0 0 35-10.78 127.2 127.2 0 0 0 28.25-14.16 109.62 109.62 0 0 0 10.92-8.43 39.64 39.64 0 0 0 7.71-9.18c.46-.83 1-1.6 1.38-2.42l1.19-2.42a49.42 49.42 0 0 0 1.81-4.76c.56-1.54.89-3.07 1.28-4.51s.62-2.85.75-4.19a40.53 40.53 0 0 0 0-12.37 28.09 28.09 0 0 0-.74-3.15c-.14-.68-.2-1.03-.12-1.11Z" style="fill:#e0e0e0"/><path d="M405.81 366.63a4.9 4.9 0 0 1-.38-1.78 13.41 13.41 0 0 0-.4-2.17 20 20 0 0 0-.82-2.91l-.62-1.7c-.22-.6-.57-1.19-.87-1.82a34.24 34.24 0 0 0-2.33-4 50.51 50.51 0 0 0-7.81-8.49c-6.59-5.73-16-11.19-27.49-16a225.43 225.43 0 0 0-40.72-11.89 345.89 345.89 0 0 0-51.16-6.09 391.43 391.43 0 0 0-59.11 1.6c-10.36 1.09-20.92 2.65-31.59 4.82a243.22 243.22 0 0 0-32 8.73c-10.55 3.83-21.14 8.44-30.5 15a53.46 53.46 0 0 0-12.35 11.54l-1.23 1.69-1.1 1.84c-.17.3-.36.59-.52.9l-.43.93c-.27.62-.59 1.23-.83 1.87a21.28 21.28 0 0 0 0 15.82c.23.63.56 1.24.83 1.87l.43.93c.16.31.35.6.52.9l1.06 1.78 1.23 1.69A53.25 53.25 0 0 0 120 393.25c9.37 6.58 20 11.19 30.51 15a242.93 242.93 0 0 0 32 8.73c10.66 2.17 21.23 3.73 31.59 4.82a391.56 391.56 0 0 0 59.12 1.6 345.89 345.89 0 0 0 51.16-6.09 225.67 225.67 0 0 0 40.72-11.89c11.52-4.78 20.9-10.23 27.48-16a50.09 50.09 0 0 0 7.81-8.49 34.24 34.24 0 0 0 2.33-4c.3-.63.65-1.22.87-1.82l.62-1.7a20 20 0 0 0 .82-2.91 13.52 13.52 0 0 0 .4-2.16c.16-1.18.29-1.79.38-1.79s.14.61.15 1.83a11.15 11.15 0 0 1-.15 2.25 18.27 18.27 0 0 1-.59 3.08c-.17.57-.35 1.18-.53 1.82s-.51 1.27-.79 1.95a32.63 32.63 0 0 1-2.22 4.28 49.24 49.24 0 0 1-7.74 9.15c-6.61 6.16-16.08 12-27.71 17.13a220.07 220.07 0 0 1-41.1 12.81 339.61 339.61 0 0 1-51.69 6.8 387 387 0 0 1-59.83-1.13c-10.5-1-21.23-2.57-32.09-4.73a243.68 243.68 0 0 1-32.76-8.79c-10.86-3.91-21.8-8.61-31.79-15.59a58.37 58.37 0 0 1-13.53-12.68l-1.44-1.86-1.24-2.08c-.2-.35-.42-.69-.6-1.05l-.52-1.11c-.33-.75-.71-1.47-1-2.24a26.55 26.55 0 0 1 0-19.55c.29-.76.66-1.49 1-2.24l.52-1.11c.19-.36.41-.7.61-1.05l1.24-2.08 1.41-1.93A58.13 58.13 0 0 1 117 335.76c10-7 20.92-11.67 31.78-15.59a245.12 245.12 0 0 1 32.76-8.78c10.86-2.16 21.58-3.69 32.08-4.73a387 387 0 0 1 59.83-1.13 339.64 339.64 0 0 1 51.68 6.8 220.18 220.18 0 0 1 41.11 12.81c11.63 5.12 21.1 11 27.7 17.13a48.94 48.94 0 0 1 7.75 9.15 32.63 32.63 0 0 1 2.22 4.28c.28.68.59 1.31.79 1.95s.36 1.25.53 1.82a18.27 18.27 0 0 1 .59 3.08 11.19 11.19 0 0 1 .15 2.25q-.02 1.83-.16 1.83Z" style="fill:#ebebeb"/><path d="M387.91 365.1c-.09 0-.22-.51-.38-1.48 0-.25-.07-.52-.13-.82s-.18-.61-.28-1-.21-.73-.32-1.13-.34-.8-.52-1.24a22 22 0 0 0-1.47-2.81c-.3-.5-.7-1-1.07-1.5-.18-.26-.38-.52-.57-.79l-.68-.77a36.22 36.22 0 0 0-3.15-3.2l-1.93-1.59c-.65-.55-1.41-1-2.13-1.57a76.19 76.19 0 0 0-10.52-6.09 124.63 124.63 0 0 0-13.46-5.43 216.68 216.68 0 0 0-34.49-8.44 336.47 336.47 0 0 0-42.9-4.28 384.55 384.55 0 0 0-49.48 1.21c-8.67.77-17.53 1.91-26.5 3.48a232.37 232.37 0 0 0-27.07 6.35 123.67 123.67 0 0 0-26.27 10.88 49.8 49.8 0 0 0-11.18 8.56c-.4.42-.74.87-1.11 1.3a11 11 0 0 0-1 1.35l-.94 1.39-.76 1.47a13.32 13.32 0 0 0 0 12.32l.77 1.47.94 1.39a11 11 0 0 0 1 1.35c.38.43.72.89 1.11 1.31a50.25 50.25 0 0 0 11.18 8.56 124 124 0 0 0 26.28 10.88 232.91 232.91 0 0 0 27.07 6.3c9 1.57 17.83 2.71 26.51 3.48a384.55 384.55 0 0 0 49.48 1.21 336.63 336.63 0 0 0 42.91-4.28 216.27 216.27 0 0 0 34.48-8.44 126 126 0 0 0 13.44-5.5 75 75 0 0 0 10.51-6c.73-.54 1.48-1 2.13-1.58l1.93-1.58a37.64 37.64 0 0 0 3.15-3.2l.68-.77.58-.79c.36-.52.76-1 1.06-1.5a20.76 20.76 0 0 0 1.47-2.81c.18-.44.36-.85.52-1.24l.32-1.13c.1-.35.19-.67.28-1s.09-.57.13-.82c.16-1 .29-1.48.38-1.48s.14.51.15 1.54v.86l-.17 1c-.06.38-.13.78-.2 1.22s-.28.87-.43 1.35a18.67 18.67 0 0 1-1.33 3.09c-.28.56-.66 1.08-1 1.66l-.56.88-.67.85a37.64 37.64 0 0 1-3.13 3.53l-1.93 1.75c-.66.61-1.41 1.13-2.15 1.73a72.9 72.9 0 0 1-10.6 6.67 120.14 120.14 0 0 1-13.6 6 209.59 209.59 0 0 1-34.82 9.33 328.91 328.91 0 0 1-43.35 5 376.76 376.76 0 0 1-50.09-.75c-8.8-.72-17.8-1.81-26.94-3.36a234.7 234.7 0 0 1-27.69-6.31A127.68 127.68 0 0 1 142 389.8a54.78 54.78 0 0 1-12.38-9.5c-.47-.49-.89-1-1.33-1.55a15.61 15.61 0 0 1-1.25-1.63l-1.16-1.73-1-1.88a18.5 18.5 0 0 1 0-16.85l1-1.87 1.17-1.73a14.35 14.35 0 0 1 1.25-1.63c.44-.51.86-1.06 1.32-1.55a55.17 55.17 0 0 1 12.38-9.49 127.13 127.13 0 0 1 27.4-11.29 232.57 232.57 0 0 1 27.68-6.31 314.46 314.46 0 0 1 26.94-3.36 376.63 376.63 0 0 1 50.08-.75 328.71 328.71 0 0 1 43.35 5 209.72 209.72 0 0 1 34.83 9.32 122.82 122.82 0 0 1 13.6 5.95 73.45 73.45 0 0 1 10.6 6.68c.73.59 1.49 1.12 2.14 1.73l1.93 1.75a36.43 36.43 0 0 1 3.14 3.53l.66.85.57.87c.35.58.73 1.11 1 1.66a20 20 0 0 1 1.33 3.1c.15.48.3.93.43 1.35s.14.84.2 1.22l.17 1v.86c0 1.04-.05 1.55-.14 1.55Z" style="fill:#ebebeb"/><path d="M284.64 326.38s10.53-11.82 21-9.65 12.3 4 12.3 4 16.06-3.73 16.24-1.67-5 12.52-5 12.52a19.64 19.64 0 0 1 .53 18s12.46 11.61 6.9 14.57-17.43-.92-17.43-.92-24.49 23.66-46 28.13-47.65-6.77-56.64-15.91c-9.52-9.67-17.55-35.73-15.67-37.06 2.74-1.92-1.93-16.08 16-29S233.22 289 233.22 289l7-2.37s-7.19 22.29 3.22 36.59 28.88 21.18 41.2 3.16Z" style="fill:#f1ad6d"/><g style="opacity:.2"><path d="M305.49 316.49a10.51 10.51 0 0 0-5 3.87 7 7 0 0 0-.86 6.1 5.28 5.28 0 0 0 4.86 3.5c2.52-.07 5-2.18 7.32-1.1 1.41.67 2.06 2.31 3.25 3.32a4.54 4.54 0 0 0 6.63-1.21 5.53 5.53 0 0 0 0-4.83 11.34 11.34 0 0 0-3.12-3.87 23.25 23.25 0 0 0-13.54-5.49" style="fill:#fff"/></g><path d="M204.3 335.69c-1.68-2.67-9-1-11.63.7s-4.33 4.53-6 7.19c-2.46 3.85-5.32 7.58-9.16 10.07s-8.8 3.6-13.07 2-7.2-5.82-9.89-9.65-5.84-7.83-10.37-9c-6.21-1.62-12.88 3.28-14.5 9.49s1 12.95 5.38 17.64c7.21 7.73 18.89 10.5 29.18 8s19.07-9.66 24.68-18.62c2.12-3.39 3.88-7.1 6.78-9.85s7.41-4.36 11-2.52" style="fill:#f1ad6d"/><path d="M296.75 328.66a6 6 0 0 1-1.43 4.19c.38-.62-.24-1.36-.8-1.82s-1.19-1.17-.84-1.8c.54-1 2.34 0 3.11-.81" style="fill:#263238"/><path d="M294.5 323.33c0 .08-.42.36-1.13.83a4.52 4.52 0 0 0-2 2.39 2.39 2.39 0 0 0 1.05 2.63c.7.42 1.26.38 1.26.48s-.57.26-1.45-.12a2.61 2.61 0 0 1-1.19-1.13 2.74 2.74 0 0 1-.23-2 4.4 4.4 0 0 1 2.34-2.59 3.24 3.24 0 0 1 1.35-.49ZM302.17 338.16a1.17 1.17 0 1 1-.77.32M303.2 322.55a1.17 1.17 0 1 1-.77.32" style="fill:#263238"/><circle cx="265.56" cy="299.99" r="36.58" style="fill:#455a64"/><path d="M288.1 338.75a36.34 36.34 0 0 0-8.79-23c-1.8-2.07-4-4-6.65-4.61s-5.91.58-6.83 3.17c-.85 2.43.5 5 1.59 7.35a40.85 40.85 0 0 1 2.88 25.93" style="fill:#f1ad6d"/><path d="M287.48 338.43a4 4 0 0 1 0-.74c0-.48 0-1.18-.06-2.09a36.15 36.15 0 0 0-1.28-7.55 33.88 33.88 0 0 0-4.84-10.22 17.38 17.38 0 0 0-4.57-4.77 8.53 8.53 0 0 0-3.18-1.3 7 7 0 0 0-3.48.3 5.21 5.21 0 0 0-2.7 2.1 5.55 5.55 0 0 0-.68 3.27 33.14 33.14 0 0 0 1.7 6.46 65.6 65.6 0 0 1 2.8 11.11 25.9 25.9 0 0 1 0 7.73 17.68 17.68 0 0 1-.45 2.06 4 4 0 0 1-.25.69c-.06 0 .26-1 .48-2.78a27.29 27.29 0 0 0-.2-7.64 68.18 68.18 0 0 0-2.94-11l-1-3.15a15.7 15.7 0 0 1-.73-3.43 6 6 0 0 1 .75-3.61 5.77 5.77 0 0 1 3-2.34 7.47 7.47 0 0 1 3.77-.33 9.09 9.09 0 0 1 3.39 1.4 18 18 0 0 1 4.7 4.93 33.6 33.6 0 0 1 5.9 18.07v2.11a3.25 3.25 0 0 1-.13.72Z" style="fill:#263238"/><path d="M270.43 319.57a17.21 17.21 0 0 1-1.83-2.57 17.58 17.58 0 0 1-1.82-2.61 9.18 9.18 0 0 1 3.65 5.22ZM272.86 317.14a12.66 12.66 0 0 1-2-2.41 12.39 12.39 0 0 1-1.83-2.54c.11-.11 1.21.8 2.28 2.19a6.87 6.87 0 0 1 1.55 2.76ZM275.76 316.36c-.17 0-.44-1.23-1.15-2.61s-1.55-2.36-1.43-2.48a4.45 4.45 0 0 1 1.94 2.22 4.34 4.34 0 0 1 .64 2.87Z" style="fill:#263238"/><path d="M211.07 334a15.93 15.93 0 0 0 6.32-16.22 3.74 3.74 0 0 1 0-2.85c.82-1.29 2.7-.63 4.2-.41 8.37 1.2 23.64.48 23.64.48 5.14-.48 13.14-1.32 13.14-1.32-3.85 6.45-13 11.3-19.95 11.19a35.81 35.81 0 0 1 7.11 8.32 28.07 28.07 0 0 1 4.24 17.81 21.41 21.41 0 0 1-9.32 15.44c-5.23 3.34-12.32 3.82-17.69.7" style="fill:#f1ad6d"/><path d="M229.82 369.3a24.49 24.49 0 0 0 4.39-.6 19.67 19.67 0 0 0 10.06-6.57 20.91 20.91 0 0 0 4.94-12.1A25.68 25.68 0 0 0 249 345a28.73 28.73 0 0 0-1.19-5.25 31.17 31.17 0 0 0-2.17-5.22 30.45 30.45 0 0 0-7.39-9.35l-.54-.46h.71a26.86 26.86 0 0 0 13.31-4.09 19.05 19.05 0 0 0 6.39-7l.29.41a216.4 216.4 0 0 1-41.64.53l.21-.27a19.8 19.8 0 0 1 .76 8.93 20.41 20.41 0 0 1-2 6.47 19.85 19.85 0 0 1-2.35 3.58c-.32.37-.58.64-.75.82l-.28.27a2.5 2.5 0 0 1 .23-.31c.16-.19.41-.47.71-.85a21.93 21.93 0 0 0 2.24-3.61 20.48 20.48 0 0 0 1.89-6.41 19.68 19.68 0 0 0-.83-8.76l-.1-.29h.31a224.52 224.52 0 0 0 41.54-.68l.55-.07-.26.48a19.63 19.63 0 0 1-6.58 7.17 27.29 27.29 0 0 1-13.6 4.18l.16-.5a32.44 32.44 0 0 1 9.69 14.84 28.81 28.81 0 0 1 1.19 5.34 25.9 25.9 0 0 1 .17 5.18 21 21 0 0 1-.91 4.78 21.72 21.72 0 0 1-4.21 7.53 19.53 19.53 0 0 1-10.3 6.52c-.35.08-.68.17-1 .23l-.9.1-.76.1h-1.49Z" style="fill:#263238"/><path d="M248.58 319.24a13.2 13.2 0 0 0 3.5-1.83c1.69-1.41 2.22-3.21 2.39-3.15s0 .49-.25 1.2a6.43 6.43 0 0 1-1.77 2.39 6.33 6.33 0 0 1-2.64 1.34c-.75.17-1.23.12-1.23.05ZM291.61 335.69c0 .07-.62 0-1.24-.64a2.75 2.75 0 0 1-.65-1.44 3.36 3.36 0 0 1 .33-1.89 4 4 0 0 1 2.63-2.11c.86-.19 1.4 0 1.39 0s-.52.09-1.27.37a4 4 0 0 0-2.23 2 2.77 2.77 0 0 0 .12 2.82c.44.64.95.81.92.89Z" style="fill:#263238"/><path d="M331.26 318.38c1.16.05-2.67 3.95-4.28 5.71a3.67 3.67 0 0 1-2.28 1.44 3.47 3.47 0 0 1-2.05-.77 17.75 17.75 0 0 1-4.07-3.81l-.26-.31s10.52-2.37 12.94-2.26ZM326.19 352.89a16.14 16.14 0 0 0-6 8.31 19.42 19.42 0 0 0 11.37 1.8 2.82 2.82 0 0 0 2.07-1c.58-.88.1-2.07-.49-2.94-1.76-2.59-4.38-4.43-6.95-6.21" style="opacity:.30000000000000004"/><path d="M289.25 361.58c-.09 0 .52-1.53 1.31-4a57.29 57.29 0 0 0 2.65-20c-.11-2.59-.31-4.19-.22-4.21a4.41 4.41 0 0 1 .26 1.11c.13.72.26 1.77.37 3.07a48.72 48.72 0 0 1-2.68 20.13 30.63 30.63 0 0 1-1.16 2.87 4.13 4.13 0 0 1-.53 1.03ZM296.24 358.25c-.09 0 .16-1.36.41-3.55a50.56 50.56 0 0 0-1-17.05c-.49-2.15-.9-3.46-.81-3.49a3.22 3.22 0 0 1 .4.88c.23.58.51 1.44.81 2.51a41.42 41.42 0 0 1 1 17.21c-.17 1.09-.35 2-.51 2.57a2.88 2.88 0 0 1-.3.92ZM293.35 321a6.46 6.46 0 0 1 .58 3.11 6.56 6.56 0 0 1-.41 3.13 13.86 13.86 0 0 1-.16-3.11 13.42 13.42 0 0 1-.01-3.13Z" style="fill:#263238"/><g style="opacity:.2"><path d="M303.39 376.29c-.45-2.72-4.45-7.26-7.21-7.18s-5.29 1.42-7.77 2.63-5.19 2.33-7.92 1.94c-3.51-.51-6.24-3.39-9.67-4.3a11 11 0 0 0-8.63 1.62 18.28 18.28 0 0 0-5.9 6.74c-1.47 2.69-2.5 5.64-4.39 8.05s-5 4.68-8 3.89c0 0 19.2 6.24 34.68.56 11.42-4.16 24.81-13.95 24.81-13.95Z" style="fill:#fff"/></g><g style="opacity:.2"><path d="M285.49 326.58a7.1 7.1 0 0 0-7.7 9.4 13.3 13.3 0 0 1 .92 2.61c.24 1.74-.83 3.37-1.07 5.1a5 5 0 0 0 1.44 4.28 4.08 4.08 0 0 0 4.35.78c1.75-.79 2.6-2.78 3.09-4.63a27.71 27.71 0 0 0-1.16-17.48" style="fill:#fff"/></g><g style="opacity:.2"><path d="M211 369.24a24.76 24.76 0 0 0 20.7-5.29c2.92-2.48 5.31-5.83 5.77-9.64s-1.42-8-5-9.49c-4.75-2-10.31 1.37-15.26 0a18.21 18.21 0 0 1-5.57-3.25 13 13 0 0 0-5.76-2.81c-2.14-.27-4.6.72-5.31 2.77v1.74c2.18 7.14 6.09 16.3 10.43 25.97Z" style="fill:#fff"/></g><g style="opacity:.2"><path d="M151 372.44a8.24 8.24 0 0 0 9.73-8.72 6.27 6.27 0 0 0-.32-1.46c-1.29-3.51-4.38-6.49-8.09-6.92-2.2-.26-4.55.36-6.6-.48s-3.41-3.16-4.17-5.37-1.25-4.58-2.62-6.48-4-3.15-6.08-2c0 0-6.74 6-2.38 15.95 3.53 7.97 10.26 13.73 20.53 15.48Z" style="fill:#fff"/></g><path d="M288.17 273.88a2.61 2.61 0 0 1-.33.63l-1.06 1.74a30.71 30.71 0 0 1-1.78 2.68c-.74 1-1.53 2.22-2.55 3.43l-1.56 1.93c-.54.67-1.17 1.32-1.79 2-1.21 1.41-2.65 2.78-4.14 4.25a87.07 87.07 0 0 1-10.64 8.5 86.12 86.12 0 0 1-11.93 6.56c-1.93.81-3.75 1.62-5.52 2.2-.88.3-1.72.63-2.55.88l-2.38.7c-1.51.48-2.92.74-4.14 1a31.42 31.42 0 0 1-3.16.62l-2 .31a3.68 3.68 0 0 1-.7.07 3.38 3.38 0 0 1 .69-.19l2-.41c.87-.16 1.93-.38 3.14-.71s2.6-.61 4.1-1.11l2.36-.73c.82-.26 1.65-.6 2.52-.91 1.75-.6 3.55-1.41 5.47-2.23a82.56 82.56 0 0 0 22.41-15c1.49-1.46 2.94-2.81 4.16-4.2.62-.68 1.25-1.32 1.81-2l1.57-1.9c1-1.19 1.85-2.36 2.61-3.36s1.37-1.88 1.85-2.62l1.15-1.67a4.73 4.73 0 0 1 .39-.46Z" style="fill:#263238"/><path d="M261 301.5a8.61 8.61 0 0 1-.88-1.23c-.27-.41-.59-.92-.92-1.53s-.74-1.29-1.09-2.09a39.69 39.69 0 0 1-2.24-5.73 45.24 45.24 0 0 1-1.52-7.39 44.78 44.78 0 0 1-.16-7.53 40.73 40.73 0 0 1 .91-6.09c.17-.86.42-1.61.61-2.28a16.15 16.15 0 0 1 .56-1.7 7.91 7.91 0 0 1 .58-1.4c.11 0-.66 2.06-1.35 5.47a43 43 0 0 0-.78 6 43.71 43.71 0 0 0 1.66 14.74 43.05 43.05 0 0 0 2.1 5.71c1.37 3.19 2.57 4.99 2.52 5.05ZM270.76 292.92a5 5 0 0 1-.76-.92 24 24 0 0 1-1.81-2.74 30.53 30.53 0 0 1-2.1-4.41 35 35 0 0 1-1.61-5.76 35.58 35.58 0 0 1-.53-6 30.58 30.58 0 0 1 .41-4.87 23.73 23.73 0 0 1 .73-3.21 4.82 4.82 0 0 1 .41-1.13c.1 0-.38 1.67-.74 4.4a37.29 37.29 0 0 0-.28 4.8A39.19 39.19 0 0 0 265 279a38.11 38.11 0 0 0 1.55 5.69 33.8 33.8 0 0 0 2 4.39c1.26 2.41 2.3 3.77 2.21 3.84ZM279.86 284.55a10.58 10.58 0 0 1-1.81-2.45 24.35 24.35 0 0 1-2.73-6.83 24.05 24.05 0 0 1-.55-7.34 10.31 10.31 0 0 1 .55-3c.1 0-.08 1.16-.14 3a27.74 27.74 0 0 0 3.23 13.95c.87 1.66 1.53 2.61 1.45 2.67ZM297.75 281.57a3.23 3.23 0 0 1-.33.67l-1.06 1.9c-.45.82-1 1.82-1.78 2.93s-1.53 2.42-2.55 3.76l-1.56 2.17c-.54.74-1.17 1.47-1.79 2.24-1.22 1.57-2.66 3.12-4.16 4.77a99.32 99.32 0 0 1-10.71 9.75 100.32 100.32 0 0 1-12.11 8c-2 1-3.84 2.05-5.66 2.84-.9.4-1.76.83-2.61 1.18l-2.46 1c-1.55.65-3 1.09-4.27 1.53s-2.37.76-3.29 1l-2.09.55a3.44 3.44 0 0 1-.74.15 4.29 4.29 0 0 1 .71-.26l2.06-.66c.9-.27 2-.61 3.24-1.09s2.7-.92 4.23-1.6l2.43-1c.85-.36 1.7-.79 2.59-1.21 1.8-.8 3.64-1.83 5.6-2.87a104.76 104.76 0 0 0 12-7.94 105.92 105.92 0 0 0 10.68-9.67c1.49-1.63 2.94-3.16 4.17-4.7.62-.77 1.26-1.48 1.81-2.21l1.58-2.1c1-1.32 1.85-2.61 2.61-3.7s1.38-2.07 1.86-2.87.85-1.36 1.15-1.83a4.55 4.55 0 0 1 .45-.73ZM302.74 286.53a3.22 3.22 0 0 1-.23.7c-.2.51-.47 1.16-.79 2l-.58 1.43c-.23.51-.51 1.05-.79 1.64-.59 1.17-1.2 2.54-2.06 4l-1.29 2.17c-.45.78-1 1.55-1.52 2.36-1 1.65-2.31 3.29-3.62 5a77.13 77.13 0 0 1-21.25 18.66c-1.91 1.07-3.7 2.13-5.47 2.94-.87.41-1.7.85-2.53 1.2l-2.4 1c-1.51.67-2.95 1.09-4.19 1.53-.62.2-1.19.41-1.73.57l-1.49.39-2.05.53a3.72 3.72 0 0 1-.73.14 3.75 3.75 0 0 1 .7-.26l2-.62 1.47-.44c.53-.18 1.09-.4 1.71-.62 1.22-.46 2.64-.91 4.13-1.6l2.37-1c.82-.36 1.64-.81 2.51-1.23 1.75-.82 3.52-1.89 5.4-3a78.84 78.84 0 0 0 21.11-18.53c1.32-1.73 2.6-3.34 3.64-5 .53-.81 1.08-1.56 1.54-2.33l1.32-2.22c.88-1.39 1.5-2.74 2.12-3.89.29-.58.59-1.12.83-1.62s.43-1 .63-1.4c.36-.79.65-1.43.88-1.92a4.9 4.9 0 0 1 .36-.58Z" style="fill:#263238"/><path d="M256.6 293a34.51 34.51 0 0 1-3.39-1.3 70 70 0 0 0-16.9-4.34 33.78 33.78 0 0 1-3.6-.49 3.18 3.18 0 0 1 1-.06c.63 0 1.54.05 2.66.14a54.7 54.7 0 0 1 17 4.37c1 .46 1.85.86 2.41 1.16a3.36 3.36 0 0 1 .82.52ZM255.55 280.57c-.08.16-3.34-1.55-7.65-2.86s-8-1.74-8-1.92a8.6 8.6 0 0 1 2.42.13 35.44 35.44 0 0 1 11.11 3.4 8.19 8.19 0 0 1 2.12 1.25ZM252.27 304.17a26.53 26.53 0 0 1-3.1-1.12 67.12 67.12 0 0 0-7.58-2.29 65.73 65.73 0 0 0-7.81-1.34 26.85 26.85 0 0 1-3.27-.4 14.7 14.7 0 0 1 3.31 0 48.22 48.22 0 0 1 15.5 3.67 13.74 13.74 0 0 1 2.95 1.48Z" style="fill:#263238"/><path d="M211.66 300.13c0-.06.8 0 2.17-.41a12.83 12.83 0 0 0 5.16-3 24.4 24.4 0 0 0 5.17-7.23c1.57-3 3-6.49 5.34-9.69a34.69 34.69 0 0 1 7.83-7.85 35.28 35.28 0 0 1 8-4.31 33.38 33.38 0 0 1 5.87-1.65c.71-.13 1.27-.18 1.65-.23a2.05 2.05 0 0 1 .57 0 18 18 0 0 1-2.17.48 37.39 37.39 0 0 0-5.77 1.81 36.56 36.56 0 0 0-7.8 4.36 35.12 35.12 0 0 0-7.67 7.76c-2.3 3.13-3.73 6.6-5.34 9.6a24 24 0 0 1-5.37 7.28 12.46 12.46 0 0 1-5.37 2.89 8.6 8.6 0 0 1-1.65.22 2.17 2.17 0 0 1-.62-.03ZM283.78 293.9c-.08-.09 1.77-1.34 4.15-4a30 30 0 0 0 6.54-12 12.85 12.85 0 0 0 .53-3.9 5.88 5.88 0 0 0-1.05-3.33 4.67 4.67 0 0 0-2.6-1.72 7.08 7.08 0 0 0-2.8-.14 14.77 14.77 0 0 0-3.95 1.32 8.72 8.72 0 0 1-1.43.62 8.32 8.32 0 0 1 1.33-.82 13.54 13.54 0 0 1 4-1.52 7.42 7.42 0 0 1 3 .08 5.1 5.1 0 0 1 2.91 1.86 6.55 6.55 0 0 1 1.19 3.62 13.26 13.26 0 0 1-.49 4 28.76 28.76 0 0 1-6.8 12.16 24.78 24.78 0 0 1-3.16 2.85 6.74 6.74 0 0 1-1.37.92Z" style="fill:#455a64"/></svg>
