<svg width="520" height="520" viewBox="0 0 520 520" fill="none" xmlns="http://www.w3.org/2000/svg">
<path d="M0 66.56C0 29.7999 29.7999 0 66.56 0H453.44C490.2 0 520 29.7999 520 66.56V453.44C520 490.2 490.2 520 453.44 520H66.56C29.7999 520 0 490.2 0 453.44V66.56Z" fill="#F7127D"/>
<path d="M167.562 157.37L304.38 119.798L297.134 105.064C292.394 95.487 280.832 91.532 271.312 96.3012L148.832 157.37H167.562Z" fill="white"/>
<path d="M346.851 120.884C345.155 120.884 343.459 121.116 341.763 121.582L211.459 157.37H371.439L365.427 135.191C363.115 126.545 355.33 120.884 346.851 120.884Z" fill="white"/>
<path d="M391.519 170.941H106.669C100.579 170.941 95.1451 173.771 91.5994 178.23C89.9807 180.285 88.7474 182.65 88.0537 185.248C87.6298 186.877 87.36 188.583 87.36 190.327V406.336C87.36 417.038 95.993 425.723 106.63 425.723H391.48C402.118 425.723 410.75 417.038 410.75 406.336V352.247H296.402C278.326 352.247 263.643 337.474 263.643 319.289V276.172C263.643 267.255 267.188 259.151 272.931 253.219C278.018 247.945 284.84 244.378 292.471 243.486C293.742 243.332 295.053 243.254 296.363 243.254H410.75V190.327C410.789 179.626 402.156 170.941 391.519 170.941Z" fill="white"/>
<path d="M424.278 261.787C422.351 260.004 420.077 258.647 417.533 257.755C415.567 257.096 413.487 256.708 411.29 256.708H296.402C285.764 256.708 277.132 265.393 277.132 276.095V319.25C277.132 329.952 285.764 338.637 296.402 338.637H411.29C413.487 338.637 415.568 338.249 417.533 337.59C420.077 336.737 422.351 335.341 424.278 333.558C428.132 330.029 430.56 324.911 430.56 319.25V276.095C430.56 270.434 428.132 265.315 424.278 261.787ZM336.638 301.531C336.638 306.881 332.321 311.224 327.003 311.224H320.605C315.286 311.224 310.97 306.881 310.97 301.531V295.094C310.97 291.992 312.396 289.239 314.67 287.494C316.327 286.215 318.37 285.401 320.605 285.401H327.003C332.321 285.401 336.638 289.743 336.638 295.094V301.531Z" fill="white"/>
</svg>
