<svg xmlns="http://www.w3.org/2000/svg" width="250" height="250" fill="none"><path fill="#FFC46A" d="M0 24.961C0 11.175 11.175 0 24.961 0h200.078C238.825 0 250 11.175 250 24.961v200.078C250 238.825 238.825 250 225.039 250H24.961C11.175 250 0 238.825 0 225.039V24.961Z"/><path fill="#23223B" fill-rule="evenodd" d="m93.162 168.496 17.794-9.045V122.62c3.083-1.345 5.807-1.908 8.389-1.892 5.179.033 11.022 2.395 19.235 8.4v31.777l17.795 9.045h28.379l16.874 26.325h17.027l-17.334-26.325 17.795-9.045V83.147l-17.795-9.045h-44.946l-17.795 9.045v31.035c-6.404-3.726-12.644-5.893-19.157-5.934-2.879-.018-5.689.379-8.467 1.148V83.043l-17.794-9.045h-62.74v94.498h62.74Zm-47.4-12.15V86.148h49.854v31.065c-2.372 1.696-4.772 3.603-7.226 5.695l7.226 8.477v24.961H45.761ZM153.92 86.252V157.8h49.856V86.252H153.92Z" clip-rule="evenodd"/></svg>