<svg xmlns="http://www.w3.org/2000/svg" width="520" height="520" fill="none"><path fill="#FFC46A" d="M0 32C0 14.327 14.327 0 32 0h456c17.673 0 32 14.327 32 32v456c0 17.673-14.327 32-32 32H32c-17.673 0-32-14.327-32-32V32Z"/><path fill="#23223B" fill-rule="evenodd" d="M194.101 336 231 316.953v-72.379c6.734-3.161 12.444-4.401 17.713-4.368 10.175.064 22.137 4.866 39.982 18.208v59.052l36.967 18.805h58.955L419.672 391h35.373l-36.011-54.729 36.967-18.805V155.804L419.034 137h-93.372l-36.967 18.804v64.274c-13.106-7.401-26.111-11.785-39.781-11.871-6.115-.039-12.062.782-17.914 2.358v-54.518L194.101 137H64v199h130.101ZM95.81 310.414V162.586h103.38v63.748c-5.526 3.865-11.085 8.255-16.738 13.078l16.738 19.621v51.381H95.81ZM320.563 162.26v148.751h103.57V162.26h-103.57Z" clip-rule="evenodd"/></svg>